<?xml version="1.0" encoding="utf-8" standalone="no"?>
<!DOCTYPE svg PUBLIC "-//W3C//DTD SVG 1.1//EN"
  "http://www.w3.org/Graphics/SVG/1.1/DTD/svg11.dtd">
<!-- Created with matplotlib (https://matplotlib.org/) -->
<svg height="288pt" version="1.1" viewBox="0 0 432 288" width="432pt" xmlns="http://www.w3.org/2000/svg" xmlns:xlink="http://www.w3.org/1999/xlink">
 <defs>
  <style type="text/css">
*{stroke-linecap:butt;stroke-linejoin:round;}
  </style>
 </defs>
 <g id="figure_1">
  <g id="patch_1">
   <path d="M 0 288 
L 432 288 
L 432 0 
L 0 0 
z
" style="fill:#ffffff;"/>
  </g>
  <g id="axes_1">
   <g id="patch_2">
    <path d="M 54 256.32 
L 388.8 256.32 
L 388.8 34.56 
L 54 34.56 
z
" style="fill:#ffffff;"/>
   </g>
   <g id="patch_3">
    <path clip-path="url(#p3e98ccf3be)" d="M 69.218182 244.8 
L 71.519608 244.8 
L 71.519608 244.8 
L 69.218182 244.8 
z
" style="fill:#ffa500;"/>
   </g>
   <g id="patch_4">
    <path clip-path="url(#p3e98ccf3be)" d="M 72.094965 244.8 
L 74.396391 244.8 
L 74.396391 244.8 
L 72.094965 244.8 
z
" style="fill:#ffa500;"/>
   </g>
   <g id="patch_5">
    <path clip-path="url(#p3e98ccf3be)" d="M 74.971748 244.8 
L 77.273174 244.8 
L 77.273174 244.8 
L 74.971748 244.8 
z
" style="fill:#ffa500;"/>
   </g>
   <g id="patch_6">
    <path clip-path="url(#p3e98ccf3be)" d="M 77.848531 244.8 
L 80.149957 244.8 
L 80.149957 244.8 
L 77.848531 244.8 
z
" style="fill:#ffa500;"/>
   </g>
   <g id="patch_7">
    <path clip-path="url(#p3e98ccf3be)" d="M 80.725314 244.8 
L 83.02674 244.8 
L 83.02674 244.8 
L 80.725314 244.8 
z
" style="fill:#ffa500;"/>
   </g>
   <g id="patch_8">
    <path clip-path="url(#p3e98ccf3be)" d="M 83.602097 244.8 
L 85.903523 244.8 
L 85.903523 244.8 
L 83.602097 244.8 
z
" style="fill:#ffa500;"/>
   </g>
   <g id="patch_9">
    <path clip-path="url(#p3e98ccf3be)" d="M 86.47888 244.8 
L 88.780306 244.8 
L 88.780306 244.8 
L 86.47888 244.8 
z
" style="fill:#ffa500;"/>
   </g>
   <g id="patch_10">
    <path clip-path="url(#p3e98ccf3be)" d="M 89.355662 244.8 
L 91.657089 244.8 
L 91.657089 244.8 
L 89.355662 244.8 
z
" style="fill:#ffa500;"/>
   </g>
   <g id="patch_11">
    <path clip-path="url(#p3e98ccf3be)" d="M 92.232445 244.8 
L 94.533872 244.8 
L 94.533872 244.8 
L 92.232445 244.8 
z
" style="fill:#ffa500;"/>
   </g>
   <g id="patch_12">
    <path clip-path="url(#p3e98ccf3be)" d="M 95.109228 244.8 
L 97.410655 244.8 
L 97.410655 244.8 
L 95.109228 244.8 
z
" style="fill:#ffa500;"/>
   </g>
   <g id="patch_13">
    <path clip-path="url(#p3e98ccf3be)" d="M 97.986011 244.8 
L 100.287438 244.8 
L 100.287438 244.8 
L 97.986011 244.8 
z
" style="fill:#ffa500;"/>
   </g>
   <g id="patch_14">
    <path clip-path="url(#p3e98ccf3be)" d="M 100.862794 244.8 
L 103.164221 244.8 
L 103.164221 244.8 
L 100.862794 244.8 
z
" style="fill:#ffa500;"/>
   </g>
   <g id="patch_15">
    <path clip-path="url(#p3e98ccf3be)" d="M 103.739577 244.8 
L 106.041004 244.8 
L 106.041004 244.8 
L 103.739577 244.8 
z
" style="fill:#ffa500;"/>
   </g>
   <g id="patch_16">
    <path clip-path="url(#p3e98ccf3be)" d="M 106.61636 244.8 
L 108.917787 244.8 
L 108.917787 244.8 
L 106.61636 244.8 
z
" style="fill:#ffa500;"/>
   </g>
   <g id="patch_17">
    <path clip-path="url(#p3e98ccf3be)" d="M 109.493143 244.8 
L 111.79457 244.8 
L 111.79457 244.8 
L 109.493143 244.8 
z
" style="fill:#ffa500;"/>
   </g>
   <g id="patch_18">
    <path clip-path="url(#p3e98ccf3be)" d="M 112.369926 244.8 
L 114.671352 244.8 
L 114.671352 244.8 
L 112.369926 244.8 
z
" style="fill:#ffa500;"/>
   </g>
   <g id="patch_19">
    <path clip-path="url(#p3e98ccf3be)" d="M 115.246709 244.8 
L 117.548135 244.8 
L 117.548135 244.8 
L 115.246709 244.8 
z
" style="fill:#ffa500;"/>
   </g>
   <g id="patch_20">
    <path clip-path="url(#p3e98ccf3be)" d="M 118.123492 244.8 
L 120.424918 244.8 
L 120.424918 244.8 
L 118.123492 244.8 
z
" style="fill:#ffa500;"/>
   </g>
   <g id="patch_21">
    <path clip-path="url(#p3e98ccf3be)" d="M 121.000275 244.8 
L 123.301701 244.8 
L 123.301701 244.8 
L 121.000275 244.8 
z
" style="fill:#ffa500;"/>
   </g>
   <g id="patch_22">
    <path clip-path="url(#p3e98ccf3be)" d="M 123.877058 244.8 
L 126.178484 244.8 
L 126.178484 244.8 
L 123.877058 244.8 
z
" style="fill:#ffa500;"/>
   </g>
   <g id="patch_23">
    <path clip-path="url(#p3e98ccf3be)" d="M 126.753841 244.8 
L 129.055267 244.8 
L 129.055267 244.8 
L 126.753841 244.8 
z
" style="fill:#ffa500;"/>
   </g>
   <g id="patch_24">
    <path clip-path="url(#p3e98ccf3be)" d="M 129.630624 244.8 
L 131.93205 244.8 
L 131.93205 244.8 
L 129.630624 244.8 
z
" style="fill:#ffa500;"/>
   </g>
   <g id="patch_25">
    <path clip-path="url(#p3e98ccf3be)" d="M 132.507407 244.8 
L 134.808833 244.8 
L 134.808833 244.8 
L 132.507407 244.8 
z
" style="fill:#ffa500;"/>
   </g>
   <g id="patch_26">
    <path clip-path="url(#p3e98ccf3be)" d="M 135.38419 244.8 
L 137.685616 244.8 
L 137.685616 244.8 
L 135.38419 244.8 
z
" style="fill:#ffa500;"/>
   </g>
   <g id="patch_27">
    <path clip-path="url(#p3e98ccf3be)" d="M 138.260973 244.8 
L 140.562399 244.8 
L 140.562399 244.8 
L 138.260973 244.8 
z
" style="fill:#ffa500;"/>
   </g>
   <g id="patch_28">
    <path clip-path="url(#p3e98ccf3be)" d="M 141.137756 244.8 
L 143.439182 244.8 
L 143.439182 244.8 
L 141.137756 244.8 
z
" style="fill:#ffa500;"/>
   </g>
   <g id="patch_29">
    <path clip-path="url(#p3e98ccf3be)" d="M 144.014539 244.8 
L 146.315965 244.8 
L 146.315965 244.8 
L 144.014539 244.8 
z
" style="fill:#ffa500;"/>
   </g>
   <g id="patch_30">
    <path clip-path="url(#p3e98ccf3be)" d="M 146.891322 244.8 
L 149.192748 244.8 
L 149.192748 244.8 
L 146.891322 244.8 
z
" style="fill:#ffa500;"/>
   </g>
   <g id="patch_31">
    <path clip-path="url(#p3e98ccf3be)" d="M 149.768104 244.8 
L 152.069531 244.8 
L 152.069531 244.8 
L 149.768104 244.8 
z
" style="fill:#ffa500;"/>
   </g>
   <g id="patch_32">
    <path clip-path="url(#p3e98ccf3be)" d="M 152.644887 244.8 
L 154.946314 244.8 
L 154.946314 244.8 
L 152.644887 244.8 
z
" style="fill:#ffa500;"/>
   </g>
   <g id="patch_33">
    <path clip-path="url(#p3e98ccf3be)" d="M 155.52167 244.8 
L 157.823097 244.8 
L 157.823097 244.8 
L 155.52167 244.8 
z
" style="fill:#ffa500;"/>
   </g>
   <g id="patch_34">
    <path clip-path="url(#p3e98ccf3be)" d="M 158.398453 244.8 
L 160.69988 244.8 
L 160.69988 244.8 
L 158.398453 244.8 
z
" style="fill:#ffa500;"/>
   </g>
   <g id="patch_35">
    <path clip-path="url(#p3e98ccf3be)" d="M 161.275236 244.8 
L 163.576663 244.8 
L 163.576663 244.8 
L 161.275236 244.8 
z
" style="fill:#ffa500;"/>
   </g>
   <g id="patch_36">
    <path clip-path="url(#p3e98ccf3be)" d="M 164.152019 244.8 
L 166.453446 244.8 
L 166.453446 244.8 
L 164.152019 244.8 
z
" style="fill:#ffa500;"/>
   </g>
   <g id="patch_37">
    <path clip-path="url(#p3e98ccf3be)" d="M 167.028802 244.8 
L 169.330229 244.8 
L 169.330229 244.8 
L 167.028802 244.8 
z
" style="fill:#ffa500;"/>
   </g>
   <g id="patch_38">
    <path clip-path="url(#p3e98ccf3be)" d="M 169.905585 244.8 
L 172.207012 244.8 
L 172.207012 244.8 
L 169.905585 244.8 
z
" style="fill:#ffa500;"/>
   </g>
   <g id="patch_39">
    <path clip-path="url(#p3e98ccf3be)" d="M 172.782368 244.8 
L 175.083794 244.8 
L 175.083794 244.8 
L 172.782368 244.8 
z
" style="fill:#ffa500;"/>
   </g>
   <g id="patch_40">
    <path clip-path="url(#p3e98ccf3be)" d="M 175.659151 244.8 
L 177.960577 244.8 
L 177.960577 244.8 
L 175.659151 244.8 
z
" style="fill:#ffa500;"/>
   </g>
   <g id="patch_41">
    <path clip-path="url(#p3e98ccf3be)" d="M 178.535934 244.8 
L 180.83736 244.8 
L 180.83736 244.8 
L 178.535934 244.8 
z
" style="fill:#ffa500;"/>
   </g>
   <g id="patch_42">
    <path clip-path="url(#p3e98ccf3be)" d="M 181.412717 244.8 
L 183.714143 244.8 
L 183.714143 244.8 
L 181.412717 244.8 
z
" style="fill:#ffa500;"/>
   </g>
   <g id="patch_43">
    <path clip-path="url(#p3e98ccf3be)" d="M 184.2895 244.8 
L 186.590926 244.8 
L 186.590926 244.8 
L 184.2895 244.8 
z
" style="fill:#ffa500;"/>
   </g>
   <g id="patch_44">
    <path clip-path="url(#p3e98ccf3be)" d="M 187.166283 244.8 
L 189.467709 244.8 
L 189.467709 244.8 
L 187.166283 244.8 
z
" style="fill:#ffa500;"/>
   </g>
   <g id="patch_45">
    <path clip-path="url(#p3e98ccf3be)" d="M 190.043066 244.8 
L 192.344492 244.8 
L 192.344492 243.36 
L 190.043066 243.36 
z
" style="fill:#ffa500;"/>
   </g>
   <g id="patch_46">
    <path clip-path="url(#p3e98ccf3be)" d="M 192.919849 244.8 
L 195.221275 244.8 
L 195.221275 244.8 
L 192.919849 244.8 
z
" style="fill:#ffa500;"/>
   </g>
   <g id="patch_47">
    <path clip-path="url(#p3e98ccf3be)" d="M 195.796632 244.8 
L 198.098058 244.8 
L 198.098058 244.8 
L 195.796632 244.8 
z
" style="fill:#ffa500;"/>
   </g>
   <g id="patch_48">
    <path clip-path="url(#p3e98ccf3be)" d="M 198.673415 244.8 
L 200.974841 244.8 
L 200.974841 244.8 
L 198.673415 244.8 
z
" style="fill:#ffa500;"/>
   </g>
   <g id="patch_49">
    <path clip-path="url(#p3e98ccf3be)" d="M 201.550198 244.8 
L 203.851624 244.8 
L 203.851624 244.8 
L 201.550198 244.8 
z
" style="fill:#ffa500;"/>
   </g>
   <g id="patch_50">
    <path clip-path="url(#p3e98ccf3be)" d="M 204.426981 244.8 
L 206.728407 244.8 
L 206.728407 244.8 
L 204.426981 244.8 
z
" style="fill:#ffa500;"/>
   </g>
   <g id="patch_51">
    <path clip-path="url(#p3e98ccf3be)" d="M 207.303764 244.8 
L 209.60519 244.8 
L 209.60519 243.36 
L 207.303764 243.36 
z
" style="fill:#ffa500;"/>
   </g>
   <g id="patch_52">
    <path clip-path="url(#p3e98ccf3be)" d="M 210.180546 244.8 
L 212.481973 244.8 
L 212.481973 241.92 
L 210.180546 241.92 
z
" style="fill:#ffa500;"/>
   </g>
   <g id="patch_53">
    <path clip-path="url(#p3e98ccf3be)" d="M 213.057329 244.8 
L 215.358756 244.8 
L 215.358756 244.8 
L 213.057329 244.8 
z
" style="fill:#ffa500;"/>
   </g>
   <g id="patch_54">
    <path clip-path="url(#p3e98ccf3be)" d="M 215.934112 244.8 
L 218.235539 244.8 
L 218.235539 244.8 
L 215.934112 244.8 
z
" style="fill:#ffa500;"/>
   </g>
   <g id="patch_55">
    <path clip-path="url(#p3e98ccf3be)" d="M 218.810895 244.8 
L 221.112322 244.8 
L 221.112322 246.24 
L 218.810895 246.24 
z
" style="fill:#ffa500;"/>
   </g>
   <g id="patch_56">
    <path clip-path="url(#p3e98ccf3be)" d="M 221.687678 244.8 
L 223.989105 244.8 
L 223.989105 241.92 
L 221.687678 241.92 
z
" style="fill:#ffa500;"/>
   </g>
   <g id="patch_57">
    <path clip-path="url(#p3e98ccf3be)" d="M 224.564461 244.8 
L 226.865888 244.8 
L 226.865888 241.92 
L 224.564461 241.92 
z
" style="fill:#ffa500;"/>
   </g>
   <g id="patch_58">
    <path clip-path="url(#p3e98ccf3be)" d="M 227.441244 244.8 
L 229.742671 244.8 
L 229.742671 237.6 
L 227.441244 237.6 
z
" style="fill:#ffa500;"/>
   </g>
   <g id="patch_59">
    <path clip-path="url(#p3e98ccf3be)" d="M 230.318027 244.8 
L 232.619454 244.8 
L 232.619454 239.04 
L 230.318027 239.04 
z
" style="fill:#ffa500;"/>
   </g>
   <g id="patch_60">
    <path clip-path="url(#p3e98ccf3be)" d="M 233.19481 244.8 
L 235.496236 244.8 
L 235.496236 241.92 
L 233.19481 241.92 
z
" style="fill:#ffa500;"/>
   </g>
   <g id="patch_61">
    <path clip-path="url(#p3e98ccf3be)" d="M 236.071593 244.8 
L 238.373019 244.8 
L 238.373019 236.16 
L 236.071593 236.16 
z
" style="fill:#ffa500;"/>
   </g>
   <g id="patch_62">
    <path clip-path="url(#p3e98ccf3be)" d="M 238.948376 244.8 
L 241.249802 244.8 
L 241.249802 243.36 
L 238.948376 243.36 
z
" style="fill:#ffa500;"/>
   </g>
   <g id="patch_63">
    <path clip-path="url(#p3e98ccf3be)" d="M 241.825159 244.8 
L 244.126585 244.8 
L 244.126585 237.6 
L 241.825159 237.6 
z
" style="fill:#ffa500;"/>
   </g>
   <g id="patch_64">
    <path clip-path="url(#p3e98ccf3be)" d="M 244.701942 244.8 
L 247.003368 244.8 
L 247.003368 231.84 
L 244.701942 231.84 
z
" style="fill:#ffa500;"/>
   </g>
   <g id="patch_65">
    <path clip-path="url(#p3e98ccf3be)" d="M 247.578725 244.8 
L 249.880151 244.8 
L 249.880151 228.96 
L 247.578725 228.96 
z
" style="fill:#ffa500;"/>
   </g>
   <g id="patch_66">
    <path clip-path="url(#p3e98ccf3be)" d="M 250.455508 244.8 
L 252.756934 244.8 
L 252.756934 223.2 
L 250.455508 223.2 
z
" style="fill:#ffa500;"/>
   </g>
   <g id="patch_67">
    <path clip-path="url(#p3e98ccf3be)" d="M 253.332291 244.8 
L 255.633717 244.8 
L 255.633717 221.76 
L 253.332291 221.76 
z
" style="fill:#ffa500;"/>
   </g>
   <g id="patch_68">
    <path clip-path="url(#p3e98ccf3be)" d="M 256.209074 244.8 
L 258.5105 244.8 
L 258.5105 226.08 
L 256.209074 226.08 
z
" style="fill:#ffa500;"/>
   </g>
   <g id="patch_69">
    <path clip-path="url(#p3e98ccf3be)" d="M 259.085857 244.8 
L 261.387283 244.8 
L 261.387283 221.76 
L 259.085857 221.76 
z
" style="fill:#ffa500;"/>
   </g>
   <g id="patch_70">
    <path clip-path="url(#p3e98ccf3be)" d="M 261.96264 244.8 
L 264.264066 244.8 
L 264.264066 224.64 
L 261.96264 224.64 
z
" style="fill:#ffa500;"/>
   </g>
   <g id="patch_71">
    <path clip-path="url(#p3e98ccf3be)" d="M 264.839423 244.8 
L 267.140849 244.8 
L 267.140849 213.12 
L 264.839423 213.12 
z
" style="fill:#ffa500;"/>
   </g>
   <g id="patch_72">
    <path clip-path="url(#p3e98ccf3be)" d="M 267.716206 244.8 
L 270.017632 244.8 
L 270.017632 205.92 
L 267.716206 205.92 
z
" style="fill:#ffa500;"/>
   </g>
   <g id="patch_73">
    <path clip-path="url(#p3e98ccf3be)" d="M 270.592988 244.8 
L 272.894415 244.8 
L 272.894415 207.36 
L 270.592988 207.36 
z
" style="fill:#ffa500;"/>
   </g>
   <g id="patch_74">
    <path clip-path="url(#p3e98ccf3be)" d="M 273.469771 244.8 
L 275.771198 244.8 
L 275.771198 188.64 
L 273.469771 188.64 
z
" style="fill:#ffa500;"/>
   </g>
   <g id="patch_75">
    <path clip-path="url(#p3e98ccf3be)" d="M 276.346554 244.8 
L 278.647981 244.8 
L 278.647981 205.92 
L 276.346554 205.92 
z
" style="fill:#ffa500;"/>
   </g>
   <g id="patch_76">
    <path clip-path="url(#p3e98ccf3be)" d="M 279.223337 244.8 
L 281.524764 244.8 
L 281.524764 210.24 
L 279.223337 210.24 
z
" style="fill:#ffa500;"/>
   </g>
   <g id="patch_77">
    <path clip-path="url(#p3e98ccf3be)" d="M 282.10012 244.8 
L 284.401547 244.8 
L 284.401547 159.84 
L 282.10012 159.84 
z
" style="fill:#ffa500;"/>
   </g>
   <g id="patch_78">
    <path clip-path="url(#p3e98ccf3be)" d="M 284.976903 244.8 
L 287.27833 244.8 
L 287.27833 198.72 
L 284.976903 198.72 
z
" style="fill:#ffa500;"/>
   </g>
   <g id="patch_79">
    <path clip-path="url(#p3e98ccf3be)" d="M 287.853686 244.8 
L 290.155113 244.8 
L 290.155113 169.92 
L 287.853686 169.92 
z
" style="fill:#ffa500;"/>
   </g>
   <g id="patch_80">
    <path clip-path="url(#p3e98ccf3be)" d="M 290.730469 244.8 
L 293.031896 244.8 
L 293.031896 154.08 
L 290.730469 154.08 
z
" style="fill:#ffa500;"/>
   </g>
   <g id="patch_81">
    <path clip-path="url(#p3e98ccf3be)" d="M 293.607252 244.8 
L 295.908678 244.8 
L 295.908678 174.24 
L 293.607252 174.24 
z
" style="fill:#ffa500;"/>
   </g>
   <g id="patch_82">
    <path clip-path="url(#p3e98ccf3be)" d="M 296.484035 244.8 
L 298.785461 244.8 
L 298.785461 188.64 
L 296.484035 188.64 
z
" style="fill:#ffa500;"/>
   </g>
   <g id="patch_83">
    <path clip-path="url(#p3e98ccf3be)" d="M 299.360818 244.8 
L 301.662244 244.8 
L 301.662244 214.56 
L 299.360818 214.56 
z
" style="fill:#ffa500;"/>
   </g>
   <g id="patch_84">
    <path clip-path="url(#p3e98ccf3be)" d="M 302.237601 244.8 
L 304.539027 244.8 
L 304.539027 192.96 
L 302.237601 192.96 
z
" style="fill:#ffa500;"/>
   </g>
   <g id="patch_85">
    <path clip-path="url(#p3e98ccf3be)" d="M 305.114384 244.8 
L 307.41581 244.8 
L 307.41581 138.24 
L 305.114384 138.24 
z
" style="fill:#ffa500;"/>
   </g>
   <g id="patch_86">
    <path clip-path="url(#p3e98ccf3be)" d="M 307.991167 244.8 
L 310.292593 244.8 
L 310.292593 168.48 
L 307.991167 168.48 
z
" style="fill:#ffa500;"/>
   </g>
   <g id="patch_87">
    <path clip-path="url(#p3e98ccf3be)" d="M 310.86795 244.8 
L 313.169376 244.8 
L 313.169376 110.88 
L 310.86795 110.88 
z
" style="fill:#ffa500;"/>
   </g>
   <g id="patch_88">
    <path clip-path="url(#p3e98ccf3be)" d="M 313.744733 244.8 
L 316.046159 244.8 
L 316.046159 106.56 
L 313.744733 106.56 
z
" style="fill:#ffa500;"/>
   </g>
   <g id="patch_89">
    <path clip-path="url(#p3e98ccf3be)" d="M 316.621516 244.8 
L 318.922942 244.8 
L 318.922942 128.16 
L 316.621516 128.16 
z
" style="fill:#ffa500;"/>
   </g>
   <g id="patch_90">
    <path clip-path="url(#p3e98ccf3be)" d="M 319.498299 244.8 
L 321.799725 244.8 
L 321.799725 96.48 
L 319.498299 96.48 
z
" style="fill:#ffa500;"/>
   </g>
   <g id="patch_91">
    <path clip-path="url(#p3e98ccf3be)" d="M 322.375082 244.8 
L 324.676508 244.8 
L 324.676508 191.52 
L 322.375082 191.52 
z
" style="fill:#ffa500;"/>
   </g>
   <g id="patch_92">
    <path clip-path="url(#p3e98ccf3be)" d="M 325.251865 244.8 
L 327.553291 244.8 
L 327.553291 175.68 
L 325.251865 175.68 
z
" style="fill:#ffa500;"/>
   </g>
   <g id="patch_93">
    <path clip-path="url(#p3e98ccf3be)" d="M 328.128648 244.8 
L 330.430074 244.8 
L 330.430074 162.72 
L 328.128648 162.72 
z
" style="fill:#ffa500;"/>
   </g>
   <g id="patch_94">
    <path clip-path="url(#p3e98ccf3be)" d="M 331.00543 244.8 
L 333.306857 244.8 
L 333.306857 44.64 
L 331.00543 44.64 
z
" style="fill:#ffa500;"/>
   </g>
   <g id="patch_95">
    <path clip-path="url(#p3e98ccf3be)" d="M 333.882213 244.8 
L 336.18364 244.8 
L 336.18364 83.52 
L 333.882213 83.52 
z
" style="fill:#ffa500;"/>
   </g>
   <g id="patch_96">
    <path clip-path="url(#p3e98ccf3be)" d="M 336.758996 244.8 
L 339.060423 244.8 
L 339.060423 118.08 
L 336.758996 118.08 
z
" style="fill:#ffa500;"/>
   </g>
   <g id="patch_97">
    <path clip-path="url(#p3e98ccf3be)" d="M 339.635779 244.8 
L 341.937206 244.8 
L 341.937206 146.88 
L 339.635779 146.88 
z
" style="fill:#ffa500;"/>
   </g>
   <g id="patch_98">
    <path clip-path="url(#p3e98ccf3be)" d="M 342.512562 244.8 
L 344.813989 244.8 
L 344.813989 192.96 
L 342.512562 192.96 
z
" style="fill:#ffa500;"/>
   </g>
   <g id="patch_99">
    <path clip-path="url(#p3e98ccf3be)" d="M 345.389345 244.8 
L 347.690772 244.8 
L 347.690772 167.04 
L 345.389345 167.04 
z
" style="fill:#ffa500;"/>
   </g>
   <g id="patch_100">
    <path clip-path="url(#p3e98ccf3be)" d="M 348.266128 244.8 
L 350.567555 244.8 
L 350.567555 122.4 
L 348.266128 122.4 
z
" style="fill:#ffa500;"/>
   </g>
   <g id="patch_101">
    <path clip-path="url(#p3e98ccf3be)" d="M 351.142911 244.8 
L 353.444338 244.8 
L 353.444338 126.72 
L 351.142911 126.72 
z
" style="fill:#ffa500;"/>
   </g>
   <g id="patch_102">
    <path clip-path="url(#p3e98ccf3be)" d="M 354.019694 244.8 
L 356.32112 244.8 
L 356.32112 122.4 
L 354.019694 122.4 
z
" style="fill:#ffa500;"/>
   </g>
   <g id="patch_103">
    <path clip-path="url(#p3e98ccf3be)" d="M 356.896477 244.8 
L 359.197903 244.8 
L 359.197903 108 
L 356.896477 108 
z
" style="fill:#ffa500;"/>
   </g>
   <g id="patch_104">
    <path clip-path="url(#p3e98ccf3be)" d="M 359.77326 244.8 
L 362.074686 244.8 
L 362.074686 167.04 
L 359.77326 167.04 
z
" style="fill:#ffa500;"/>
   </g>
   <g id="patch_105">
    <path clip-path="url(#p3e98ccf3be)" d="M 362.650043 244.8 
L 364.951469 244.8 
L 364.951469 192.96 
L 362.650043 192.96 
z
" style="fill:#ffa500;"/>
   </g>
   <g id="patch_106">
    <path clip-path="url(#p3e98ccf3be)" d="M 365.526826 244.8 
L 367.828252 244.8 
L 367.828252 155.52 
L 365.526826 155.52 
z
" style="fill:#ffa500;"/>
   </g>
   <g id="patch_107">
    <path clip-path="url(#p3e98ccf3be)" d="M 368.403609 244.8 
L 370.705035 244.8 
L 370.705035 96.48 
L 368.403609 96.48 
z
" style="fill:#ffa500;"/>
   </g>
   <g id="patch_108">
    <path clip-path="url(#p3e98ccf3be)" d="M 371.280392 244.8 
L 373.581818 244.8 
L 373.581818 125.28 
L 371.280392 125.28 
z
" style="fill:#ffa500;"/>
   </g>
   <g id="matplotlib.axis_1">
    <g id="xtick_1">
     <g id="line2d_1">
      <defs>
       <path d="M 0 0 
L 0 3.5 
" id="md5b2f812e3" style="stroke:#000000;stroke-width:0.8;"/>
      </defs>
      <g>
       <use style="stroke:#000000;stroke-width:0.8;" x="70.368895" xlink:href="#md5b2f812e3" y="256.32"/>
      </g>
     </g>
     <g id="text_1">
      <!-- 1/22/20 -->
      <defs>
       <path d="M 12.40625 8.296875 
L 28.515625 8.296875 
L 28.515625 63.921875 
L 10.984375 60.40625 
L 10.984375 69.390625 
L 28.421875 72.90625 
L 38.28125 72.90625 
L 38.28125 8.296875 
L 54.390625 8.296875 
L 54.390625 0 
L 12.40625 0 
z
" id="DejaVuSans-49"/>
       <path d="M 25.390625 72.90625 
L 33.6875 72.90625 
L 8.296875 -9.28125 
L 0 -9.28125 
z
" id="DejaVuSans-47"/>
       <path d="M 19.1875 8.296875 
L 53.609375 8.296875 
L 53.609375 0 
L 7.328125 0 
L 7.328125 8.296875 
Q 12.9375 14.109375 22.625 23.890625 
Q 32.328125 33.6875 34.8125 36.53125 
Q 39.546875 41.84375 41.421875 45.53125 
Q 43.3125 49.21875 43.3125 52.78125 
Q 43.3125 58.59375 39.234375 62.25 
Q 35.15625 65.921875 28.609375 65.921875 
Q 23.96875 65.921875 18.8125 64.3125 
Q 13.671875 62.703125 7.8125 59.421875 
L 7.8125 69.390625 
Q 13.765625 71.78125 18.9375 73 
Q 24.125 74.21875 28.421875 74.21875 
Q 39.75 74.21875 46.484375 68.546875 
Q 53.21875 62.890625 53.21875 53.421875 
Q 53.21875 48.921875 51.53125 44.890625 
Q 49.859375 40.875 45.40625 35.40625 
Q 44.1875 33.984375 37.640625 27.21875 
Q 31.109375 20.453125 19.1875 8.296875 
z
" id="DejaVuSans-50"/>
       <path d="M 31.78125 66.40625 
Q 24.171875 66.40625 20.328125 58.90625 
Q 16.5 51.421875 16.5 36.375 
Q 16.5 21.390625 20.328125 13.890625 
Q 24.171875 6.390625 31.78125 6.390625 
Q 39.453125 6.390625 43.28125 13.890625 
Q 47.125 21.390625 47.125 36.375 
Q 47.125 51.421875 43.28125 58.90625 
Q 39.453125 66.40625 31.78125 66.40625 
z
M 31.78125 74.21875 
Q 44.046875 74.21875 50.515625 64.515625 
Q 56.984375 54.828125 56.984375 36.375 
Q 56.984375 17.96875 50.515625 8.265625 
Q 44.046875 -1.421875 31.78125 -1.421875 
Q 19.53125 -1.421875 13.0625 8.265625 
Q 6.59375 17.96875 6.59375 36.375 
Q 6.59375 54.828125 13.0625 64.515625 
Q 19.53125 74.21875 31.78125 74.21875 
z
" id="DejaVuSans-48"/>
      </defs>
      <g transform="translate(72.02452 286.45)rotate(-90)scale(0.06 -0.06)">
       <use xlink:href="#DejaVuSans-49"/>
       <use x="63.623047" xlink:href="#DejaVuSans-47"/>
       <use x="97.314453" xlink:href="#DejaVuSans-50"/>
       <use x="160.9375" xlink:href="#DejaVuSans-50"/>
       <use x="224.560547" xlink:href="#DejaVuSans-47"/>
       <use x="258.251953" xlink:href="#DejaVuSans-50"/>
       <use x="321.875" xlink:href="#DejaVuSans-48"/>
      </g>
     </g>
    </g>
    <g id="xtick_2">
     <g id="line2d_2">
      <g>
       <use style="stroke:#000000;stroke-width:0.8;" x="73.245678" xlink:href="#md5b2f812e3" y="256.32"/>
      </g>
     </g>
    </g>
    <g id="xtick_3">
     <g id="line2d_3">
      <g>
       <use style="stroke:#000000;stroke-width:0.8;" x="76.122461" xlink:href="#md5b2f812e3" y="256.32"/>
      </g>
     </g>
    </g>
    <g id="xtick_4">
     <g id="line2d_4">
      <g>
       <use style="stroke:#000000;stroke-width:0.8;" x="78.999244" xlink:href="#md5b2f812e3" y="256.32"/>
      </g>
     </g>
     <g id="text_2">
      <!-- 1/25/20 -->
      <defs>
       <path d="M 10.796875 72.90625 
L 49.515625 72.90625 
L 49.515625 64.59375 
L 19.828125 64.59375 
L 19.828125 46.734375 
Q 21.96875 47.46875 24.109375 47.828125 
Q 26.265625 48.1875 28.421875 48.1875 
Q 40.625 48.1875 47.75 41.5 
Q 54.890625 34.8125 54.890625 23.390625 
Q 54.890625 11.625 47.5625 5.09375 
Q 40.234375 -1.421875 26.90625 -1.421875 
Q 22.3125 -1.421875 17.546875 -0.640625 
Q 12.796875 0.140625 7.71875 1.703125 
L 7.71875 11.625 
Q 12.109375 9.234375 16.796875 8.0625 
Q 21.484375 6.890625 26.703125 6.890625 
Q 35.15625 6.890625 40.078125 11.328125 
Q 45.015625 15.765625 45.015625 23.390625 
Q 45.015625 31 40.078125 35.4375 
Q 35.15625 39.890625 26.703125 39.890625 
Q 22.75 39.890625 18.8125 39.015625 
Q 14.890625 38.140625 10.796875 36.28125 
z
" id="DejaVuSans-53"/>
      </defs>
      <g transform="translate(80.654869 286.45)rotate(-90)scale(0.06 -0.06)">
       <use xlink:href="#DejaVuSans-49"/>
       <use x="63.623047" xlink:href="#DejaVuSans-47"/>
       <use x="97.314453" xlink:href="#DejaVuSans-50"/>
       <use x="160.9375" xlink:href="#DejaVuSans-53"/>
       <use x="224.560547" xlink:href="#DejaVuSans-47"/>
       <use x="258.251953" xlink:href="#DejaVuSans-50"/>
       <use x="321.875" xlink:href="#DejaVuSans-48"/>
      </g>
     </g>
    </g>
    <g id="xtick_5">
     <g id="line2d_5">
      <g>
       <use style="stroke:#000000;stroke-width:0.8;" x="81.876027" xlink:href="#md5b2f812e3" y="256.32"/>
      </g>
     </g>
    </g>
    <g id="xtick_6">
     <g id="line2d_6">
      <g>
       <use style="stroke:#000000;stroke-width:0.8;" x="84.75281" xlink:href="#md5b2f812e3" y="256.32"/>
      </g>
     </g>
    </g>
    <g id="xtick_7">
     <g id="line2d_7">
      <g>
       <use style="stroke:#000000;stroke-width:0.8;" x="87.629593" xlink:href="#md5b2f812e3" y="256.32"/>
      </g>
     </g>
     <g id="text_3">
      <!-- 1/28/20 -->
      <defs>
       <path d="M 31.78125 34.625 
Q 24.75 34.625 20.71875 30.859375 
Q 16.703125 27.09375 16.703125 20.515625 
Q 16.703125 13.921875 20.71875 10.15625 
Q 24.75 6.390625 31.78125 6.390625 
Q 38.8125 6.390625 42.859375 10.171875 
Q 46.921875 13.96875 46.921875 20.515625 
Q 46.921875 27.09375 42.890625 30.859375 
Q 38.875 34.625 31.78125 34.625 
z
M 21.921875 38.8125 
Q 15.578125 40.375 12.03125 44.71875 
Q 8.5 49.078125 8.5 55.328125 
Q 8.5 64.0625 14.71875 69.140625 
Q 20.953125 74.21875 31.78125 74.21875 
Q 42.671875 74.21875 48.875 69.140625 
Q 55.078125 64.0625 55.078125 55.328125 
Q 55.078125 49.078125 51.53125 44.71875 
Q 48 40.375 41.703125 38.8125 
Q 48.828125 37.15625 52.796875 32.3125 
Q 56.78125 27.484375 56.78125 20.515625 
Q 56.78125 9.90625 50.3125 4.234375 
Q 43.84375 -1.421875 31.78125 -1.421875 
Q 19.734375 -1.421875 13.25 4.234375 
Q 6.78125 9.90625 6.78125 20.515625 
Q 6.78125 27.484375 10.78125 32.3125 
Q 14.796875 37.15625 21.921875 38.8125 
z
M 18.3125 54.390625 
Q 18.3125 48.734375 21.84375 45.5625 
Q 25.390625 42.390625 31.78125 42.390625 
Q 38.140625 42.390625 41.71875 45.5625 
Q 45.3125 48.734375 45.3125 54.390625 
Q 45.3125 60.0625 41.71875 63.234375 
Q 38.140625 66.40625 31.78125 66.40625 
Q 25.390625 66.40625 21.84375 63.234375 
Q 18.3125 60.0625 18.3125 54.390625 
z
" id="DejaVuSans-56"/>
      </defs>
      <g transform="translate(89.285218 286.45)rotate(-90)scale(0.06 -0.06)">
       <use xlink:href="#DejaVuSans-49"/>
       <use x="63.623047" xlink:href="#DejaVuSans-47"/>
       <use x="97.314453" xlink:href="#DejaVuSans-50"/>
       <use x="160.9375" xlink:href="#DejaVuSans-56"/>
       <use x="224.560547" xlink:href="#DejaVuSans-47"/>
       <use x="258.251953" xlink:href="#DejaVuSans-50"/>
       <use x="321.875" xlink:href="#DejaVuSans-48"/>
      </g>
     </g>
    </g>
    <g id="xtick_8">
     <g id="line2d_8">
      <g>
       <use style="stroke:#000000;stroke-width:0.8;" x="90.506376" xlink:href="#md5b2f812e3" y="256.32"/>
      </g>
     </g>
    </g>
    <g id="xtick_9">
     <g id="line2d_9">
      <g>
       <use style="stroke:#000000;stroke-width:0.8;" x="93.383159" xlink:href="#md5b2f812e3" y="256.32"/>
      </g>
     </g>
    </g>
    <g id="xtick_10">
     <g id="line2d_10">
      <g>
       <use style="stroke:#000000;stroke-width:0.8;" x="96.259942" xlink:href="#md5b2f812e3" y="256.32"/>
      </g>
     </g>
     <g id="text_4">
      <!-- 1/31/20 -->
      <defs>
       <path d="M 40.578125 39.3125 
Q 47.65625 37.796875 51.625 33 
Q 55.609375 28.21875 55.609375 21.1875 
Q 55.609375 10.40625 48.1875 4.484375 
Q 40.765625 -1.421875 27.09375 -1.421875 
Q 22.515625 -1.421875 17.65625 -0.515625 
Q 12.796875 0.390625 7.625 2.203125 
L 7.625 11.71875 
Q 11.71875 9.328125 16.59375 8.109375 
Q 21.484375 6.890625 26.8125 6.890625 
Q 36.078125 6.890625 40.9375 10.546875 
Q 45.796875 14.203125 45.796875 21.1875 
Q 45.796875 27.640625 41.28125 31.265625 
Q 36.765625 34.90625 28.71875 34.90625 
L 20.21875 34.90625 
L 20.21875 43.015625 
L 29.109375 43.015625 
Q 36.375 43.015625 40.234375 45.921875 
Q 44.09375 48.828125 44.09375 54.296875 
Q 44.09375 59.90625 40.109375 62.90625 
Q 36.140625 65.921875 28.71875 65.921875 
Q 24.65625 65.921875 20.015625 65.03125 
Q 15.375 64.15625 9.8125 62.3125 
L 9.8125 71.09375 
Q 15.4375 72.65625 20.34375 73.4375 
Q 25.25 74.21875 29.59375 74.21875 
Q 40.828125 74.21875 47.359375 69.109375 
Q 53.90625 64.015625 53.90625 55.328125 
Q 53.90625 49.265625 50.4375 45.09375 
Q 46.96875 40.921875 40.578125 39.3125 
z
" id="DejaVuSans-51"/>
      </defs>
      <g transform="translate(97.915567 286.45)rotate(-90)scale(0.06 -0.06)">
       <use xlink:href="#DejaVuSans-49"/>
       <use x="63.623047" xlink:href="#DejaVuSans-47"/>
       <use x="97.314453" xlink:href="#DejaVuSans-51"/>
       <use x="160.9375" xlink:href="#DejaVuSans-49"/>
       <use x="224.560547" xlink:href="#DejaVuSans-47"/>
       <use x="258.251953" xlink:href="#DejaVuSans-50"/>
       <use x="321.875" xlink:href="#DejaVuSans-48"/>
      </g>
     </g>
    </g>
    <g id="xtick_11">
     <g id="line2d_11">
      <g>
       <use style="stroke:#000000;stroke-width:0.8;" x="99.136725" xlink:href="#md5b2f812e3" y="256.32"/>
      </g>
     </g>
    </g>
    <g id="xtick_12">
     <g id="line2d_12">
      <g>
       <use style="stroke:#000000;stroke-width:0.8;" x="102.013507" xlink:href="#md5b2f812e3" y="256.32"/>
      </g>
     </g>
    </g>
    <g id="xtick_13">
     <g id="line2d_13">
      <g>
       <use style="stroke:#000000;stroke-width:0.8;" x="104.89029" xlink:href="#md5b2f812e3" y="256.32"/>
      </g>
     </g>
     <g id="text_5">
      <!-- 2/3/20 -->
      <g transform="translate(106.545915 282.6325)rotate(-90)scale(0.06 -0.06)">
       <use xlink:href="#DejaVuSans-50"/>
       <use x="63.623047" xlink:href="#DejaVuSans-47"/>
       <use x="97.314453" xlink:href="#DejaVuSans-51"/>
       <use x="160.9375" xlink:href="#DejaVuSans-47"/>
       <use x="194.628906" xlink:href="#DejaVuSans-50"/>
       <use x="258.251953" xlink:href="#DejaVuSans-48"/>
      </g>
     </g>
    </g>
    <g id="xtick_14">
     <g id="line2d_14">
      <g>
       <use style="stroke:#000000;stroke-width:0.8;" x="107.767073" xlink:href="#md5b2f812e3" y="256.32"/>
      </g>
     </g>
    </g>
    <g id="xtick_15">
     <g id="line2d_15">
      <g>
       <use style="stroke:#000000;stroke-width:0.8;" x="110.643856" xlink:href="#md5b2f812e3" y="256.32"/>
      </g>
     </g>
    </g>
    <g id="xtick_16">
     <g id="line2d_16">
      <g>
       <use style="stroke:#000000;stroke-width:0.8;" x="113.520639" xlink:href="#md5b2f812e3" y="256.32"/>
      </g>
     </g>
     <g id="text_6">
      <!-- 2/6/20 -->
      <defs>
       <path d="M 33.015625 40.375 
Q 26.375 40.375 22.484375 35.828125 
Q 18.609375 31.296875 18.609375 23.390625 
Q 18.609375 15.53125 22.484375 10.953125 
Q 26.375 6.390625 33.015625 6.390625 
Q 39.65625 6.390625 43.53125 10.953125 
Q 47.40625 15.53125 47.40625 23.390625 
Q 47.40625 31.296875 43.53125 35.828125 
Q 39.65625 40.375 33.015625 40.375 
z
M 52.59375 71.296875 
L 52.59375 62.3125 
Q 48.875 64.0625 45.09375 64.984375 
Q 41.3125 65.921875 37.59375 65.921875 
Q 27.828125 65.921875 22.671875 59.328125 
Q 17.53125 52.734375 16.796875 39.40625 
Q 19.671875 43.65625 24.015625 45.921875 
Q 28.375 48.1875 33.59375 48.1875 
Q 44.578125 48.1875 50.953125 41.515625 
Q 57.328125 34.859375 57.328125 23.390625 
Q 57.328125 12.15625 50.6875 5.359375 
Q 44.046875 -1.421875 33.015625 -1.421875 
Q 20.359375 -1.421875 13.671875 8.265625 
Q 6.984375 17.96875 6.984375 36.375 
Q 6.984375 53.65625 15.1875 63.9375 
Q 23.390625 74.21875 37.203125 74.21875 
Q 40.921875 74.21875 44.703125 73.484375 
Q 48.484375 72.75 52.59375 71.296875 
z
" id="DejaVuSans-54"/>
      </defs>
      <g transform="translate(115.176264 282.6325)rotate(-90)scale(0.06 -0.06)">
       <use xlink:href="#DejaVuSans-50"/>
       <use x="63.623047" xlink:href="#DejaVuSans-47"/>
       <use x="97.314453" xlink:href="#DejaVuSans-54"/>
       <use x="160.9375" xlink:href="#DejaVuSans-47"/>
       <use x="194.628906" xlink:href="#DejaVuSans-50"/>
       <use x="258.251953" xlink:href="#DejaVuSans-48"/>
      </g>
     </g>
    </g>
    <g id="xtick_17">
     <g id="line2d_17">
      <g>
       <use style="stroke:#000000;stroke-width:0.8;" x="116.397422" xlink:href="#md5b2f812e3" y="256.32"/>
      </g>
     </g>
    </g>
    <g id="xtick_18">
     <g id="line2d_18">
      <g>
       <use style="stroke:#000000;stroke-width:0.8;" x="119.274205" xlink:href="#md5b2f812e3" y="256.32"/>
      </g>
     </g>
    </g>
    <g id="xtick_19">
     <g id="line2d_19">
      <g>
       <use style="stroke:#000000;stroke-width:0.8;" x="122.150988" xlink:href="#md5b2f812e3" y="256.32"/>
      </g>
     </g>
     <g id="text_7">
      <!-- 2/9/20 -->
      <defs>
       <path d="M 10.984375 1.515625 
L 10.984375 10.5 
Q 14.703125 8.734375 18.5 7.8125 
Q 22.3125 6.890625 25.984375 6.890625 
Q 35.75 6.890625 40.890625 13.453125 
Q 46.046875 20.015625 46.78125 33.40625 
Q 43.953125 29.203125 39.59375 26.953125 
Q 35.25 24.703125 29.984375 24.703125 
Q 19.046875 24.703125 12.671875 31.3125 
Q 6.296875 37.9375 6.296875 49.421875 
Q 6.296875 60.640625 12.9375 67.421875 
Q 19.578125 74.21875 30.609375 74.21875 
Q 43.265625 74.21875 49.921875 64.515625 
Q 56.59375 54.828125 56.59375 36.375 
Q 56.59375 19.140625 48.40625 8.859375 
Q 40.234375 -1.421875 26.421875 -1.421875 
Q 22.703125 -1.421875 18.890625 -0.6875 
Q 15.09375 0.046875 10.984375 1.515625 
z
M 30.609375 32.421875 
Q 37.25 32.421875 41.125 36.953125 
Q 45.015625 41.5 45.015625 49.421875 
Q 45.015625 57.28125 41.125 61.84375 
Q 37.25 66.40625 30.609375 66.40625 
Q 23.96875 66.40625 20.09375 61.84375 
Q 16.21875 57.28125 16.21875 49.421875 
Q 16.21875 41.5 20.09375 36.953125 
Q 23.96875 32.421875 30.609375 32.421875 
z
" id="DejaVuSans-57"/>
      </defs>
      <g transform="translate(123.806613 282.6325)rotate(-90)scale(0.06 -0.06)">
       <use xlink:href="#DejaVuSans-50"/>
       <use x="63.623047" xlink:href="#DejaVuSans-47"/>
       <use x="97.314453" xlink:href="#DejaVuSans-57"/>
       <use x="160.9375" xlink:href="#DejaVuSans-47"/>
       <use x="194.628906" xlink:href="#DejaVuSans-50"/>
       <use x="258.251953" xlink:href="#DejaVuSans-48"/>
      </g>
     </g>
    </g>
    <g id="xtick_20">
     <g id="line2d_20">
      <g>
       <use style="stroke:#000000;stroke-width:0.8;" x="125.027771" xlink:href="#md5b2f812e3" y="256.32"/>
      </g>
     </g>
    </g>
    <g id="xtick_21">
     <g id="line2d_21">
      <g>
       <use style="stroke:#000000;stroke-width:0.8;" x="127.904554" xlink:href="#md5b2f812e3" y="256.32"/>
      </g>
     </g>
    </g>
    <g id="xtick_22">
     <g id="line2d_22">
      <g>
       <use style="stroke:#000000;stroke-width:0.8;" x="130.781337" xlink:href="#md5b2f812e3" y="256.32"/>
      </g>
     </g>
     <g id="text_8">
      <!-- 2/12/20 -->
      <g transform="translate(132.436962 286.45)rotate(-90)scale(0.06 -0.06)">
       <use xlink:href="#DejaVuSans-50"/>
       <use x="63.623047" xlink:href="#DejaVuSans-47"/>
       <use x="97.314453" xlink:href="#DejaVuSans-49"/>
       <use x="160.9375" xlink:href="#DejaVuSans-50"/>
       <use x="224.560547" xlink:href="#DejaVuSans-47"/>
       <use x="258.251953" xlink:href="#DejaVuSans-50"/>
       <use x="321.875" xlink:href="#DejaVuSans-48"/>
      </g>
     </g>
    </g>
    <g id="xtick_23">
     <g id="line2d_23">
      <g>
       <use style="stroke:#000000;stroke-width:0.8;" x="133.65812" xlink:href="#md5b2f812e3" y="256.32"/>
      </g>
     </g>
    </g>
    <g id="xtick_24">
     <g id="line2d_24">
      <g>
       <use style="stroke:#000000;stroke-width:0.8;" x="136.534903" xlink:href="#md5b2f812e3" y="256.32"/>
      </g>
     </g>
    </g>
    <g id="xtick_25">
     <g id="line2d_25">
      <g>
       <use style="stroke:#000000;stroke-width:0.8;" x="139.411686" xlink:href="#md5b2f812e3" y="256.32"/>
      </g>
     </g>
     <g id="text_9">
      <!-- 2/15/20 -->
      <g transform="translate(141.067311 286.45)rotate(-90)scale(0.06 -0.06)">
       <use xlink:href="#DejaVuSans-50"/>
       <use x="63.623047" xlink:href="#DejaVuSans-47"/>
       <use x="97.314453" xlink:href="#DejaVuSans-49"/>
       <use x="160.9375" xlink:href="#DejaVuSans-53"/>
       <use x="224.560547" xlink:href="#DejaVuSans-47"/>
       <use x="258.251953" xlink:href="#DejaVuSans-50"/>
       <use x="321.875" xlink:href="#DejaVuSans-48"/>
      </g>
     </g>
    </g>
    <g id="xtick_26">
     <g id="line2d_26">
      <g>
       <use style="stroke:#000000;stroke-width:0.8;" x="142.288469" xlink:href="#md5b2f812e3" y="256.32"/>
      </g>
     </g>
    </g>
    <g id="xtick_27">
     <g id="line2d_27">
      <g>
       <use style="stroke:#000000;stroke-width:0.8;" x="145.165252" xlink:href="#md5b2f812e3" y="256.32"/>
      </g>
     </g>
    </g>
    <g id="xtick_28">
     <g id="line2d_28">
      <g>
       <use style="stroke:#000000;stroke-width:0.8;" x="148.042035" xlink:href="#md5b2f812e3" y="256.32"/>
      </g>
     </g>
     <g id="text_10">
      <!-- 2/18/20 -->
      <g transform="translate(149.69766 286.45)rotate(-90)scale(0.06 -0.06)">
       <use xlink:href="#DejaVuSans-50"/>
       <use x="63.623047" xlink:href="#DejaVuSans-47"/>
       <use x="97.314453" xlink:href="#DejaVuSans-49"/>
       <use x="160.9375" xlink:href="#DejaVuSans-56"/>
       <use x="224.560547" xlink:href="#DejaVuSans-47"/>
       <use x="258.251953" xlink:href="#DejaVuSans-50"/>
       <use x="321.875" xlink:href="#DejaVuSans-48"/>
      </g>
     </g>
    </g>
    <g id="xtick_29">
     <g id="line2d_29">
      <g>
       <use style="stroke:#000000;stroke-width:0.8;" x="150.918818" xlink:href="#md5b2f812e3" y="256.32"/>
      </g>
     </g>
    </g>
    <g id="xtick_30">
     <g id="line2d_30">
      <g>
       <use style="stroke:#000000;stroke-width:0.8;" x="153.795601" xlink:href="#md5b2f812e3" y="256.32"/>
      </g>
     </g>
    </g>
    <g id="xtick_31">
     <g id="line2d_31">
      <g>
       <use style="stroke:#000000;stroke-width:0.8;" x="156.672384" xlink:href="#md5b2f812e3" y="256.32"/>
      </g>
     </g>
     <g id="text_11">
      <!-- 2/21/20 -->
      <g transform="translate(158.328009 286.45)rotate(-90)scale(0.06 -0.06)">
       <use xlink:href="#DejaVuSans-50"/>
       <use x="63.623047" xlink:href="#DejaVuSans-47"/>
       <use x="97.314453" xlink:href="#DejaVuSans-50"/>
       <use x="160.9375" xlink:href="#DejaVuSans-49"/>
       <use x="224.560547" xlink:href="#DejaVuSans-47"/>
       <use x="258.251953" xlink:href="#DejaVuSans-50"/>
       <use x="321.875" xlink:href="#DejaVuSans-48"/>
      </g>
     </g>
    </g>
    <g id="xtick_32">
     <g id="line2d_32">
      <g>
       <use style="stroke:#000000;stroke-width:0.8;" x="159.549167" xlink:href="#md5b2f812e3" y="256.32"/>
      </g>
     </g>
    </g>
    <g id="xtick_33">
     <g id="line2d_33">
      <g>
       <use style="stroke:#000000;stroke-width:0.8;" x="162.425949" xlink:href="#md5b2f812e3" y="256.32"/>
      </g>
     </g>
    </g>
    <g id="xtick_34">
     <g id="line2d_34">
      <g>
       <use style="stroke:#000000;stroke-width:0.8;" x="165.302732" xlink:href="#md5b2f812e3" y="256.32"/>
      </g>
     </g>
     <g id="text_12">
      <!-- 2/24/20 -->
      <defs>
       <path d="M 37.796875 64.3125 
L 12.890625 25.390625 
L 37.796875 25.390625 
z
M 35.203125 72.90625 
L 47.609375 72.90625 
L 47.609375 25.390625 
L 58.015625 25.390625 
L 58.015625 17.1875 
L 47.609375 17.1875 
L 47.609375 0 
L 37.796875 0 
L 37.796875 17.1875 
L 4.890625 17.1875 
L 4.890625 26.703125 
z
" id="DejaVuSans-52"/>
      </defs>
      <g transform="translate(166.958357 286.45)rotate(-90)scale(0.06 -0.06)">
       <use xlink:href="#DejaVuSans-50"/>
       <use x="63.623047" xlink:href="#DejaVuSans-47"/>
       <use x="97.314453" xlink:href="#DejaVuSans-50"/>
       <use x="160.9375" xlink:href="#DejaVuSans-52"/>
       <use x="224.560547" xlink:href="#DejaVuSans-47"/>
       <use x="258.251953" xlink:href="#DejaVuSans-50"/>
       <use x="321.875" xlink:href="#DejaVuSans-48"/>
      </g>
     </g>
    </g>
    <g id="xtick_35">
     <g id="line2d_35">
      <g>
       <use style="stroke:#000000;stroke-width:0.8;" x="168.179515" xlink:href="#md5b2f812e3" y="256.32"/>
      </g>
     </g>
    </g>
    <g id="xtick_36">
     <g id="line2d_36">
      <g>
       <use style="stroke:#000000;stroke-width:0.8;" x="171.056298" xlink:href="#md5b2f812e3" y="256.32"/>
      </g>
     </g>
    </g>
    <g id="xtick_37">
     <g id="line2d_37">
      <g>
       <use style="stroke:#000000;stroke-width:0.8;" x="173.933081" xlink:href="#md5b2f812e3" y="256.32"/>
      </g>
     </g>
     <g id="text_13">
      <!-- 2/27/20 -->
      <defs>
       <path d="M 8.203125 72.90625 
L 55.078125 72.90625 
L 55.078125 68.703125 
L 28.609375 0 
L 18.3125 0 
L 43.21875 64.59375 
L 8.203125 64.59375 
z
" id="DejaVuSans-55"/>
      </defs>
      <g transform="translate(175.588706 286.45)rotate(-90)scale(0.06 -0.06)">
       <use xlink:href="#DejaVuSans-50"/>
       <use x="63.623047" xlink:href="#DejaVuSans-47"/>
       <use x="97.314453" xlink:href="#DejaVuSans-50"/>
       <use x="160.9375" xlink:href="#DejaVuSans-55"/>
       <use x="224.560547" xlink:href="#DejaVuSans-47"/>
       <use x="258.251953" xlink:href="#DejaVuSans-50"/>
       <use x="321.875" xlink:href="#DejaVuSans-48"/>
      </g>
     </g>
    </g>
    <g id="xtick_38">
     <g id="line2d_38">
      <g>
       <use style="stroke:#000000;stroke-width:0.8;" x="176.809864" xlink:href="#md5b2f812e3" y="256.32"/>
      </g>
     </g>
    </g>
    <g id="xtick_39">
     <g id="line2d_39">
      <g>
       <use style="stroke:#000000;stroke-width:0.8;" x="179.686647" xlink:href="#md5b2f812e3" y="256.32"/>
      </g>
     </g>
    </g>
    <g id="xtick_40">
     <g id="line2d_40">
      <g>
       <use style="stroke:#000000;stroke-width:0.8;" x="182.56343" xlink:href="#md5b2f812e3" y="256.32"/>
      </g>
     </g>
     <g id="text_14">
      <!-- 3/1/20 -->
      <g transform="translate(184.219055 282.6325)rotate(-90)scale(0.06 -0.06)">
       <use xlink:href="#DejaVuSans-51"/>
       <use x="63.623047" xlink:href="#DejaVuSans-47"/>
       <use x="97.314453" xlink:href="#DejaVuSans-49"/>
       <use x="160.9375" xlink:href="#DejaVuSans-47"/>
       <use x="194.628906" xlink:href="#DejaVuSans-50"/>
       <use x="258.251953" xlink:href="#DejaVuSans-48"/>
      </g>
     </g>
    </g>
    <g id="xtick_41">
     <g id="line2d_41">
      <g>
       <use style="stroke:#000000;stroke-width:0.8;" x="185.440213" xlink:href="#md5b2f812e3" y="256.32"/>
      </g>
     </g>
    </g>
    <g id="xtick_42">
     <g id="line2d_42">
      <g>
       <use style="stroke:#000000;stroke-width:0.8;" x="188.316996" xlink:href="#md5b2f812e3" y="256.32"/>
      </g>
     </g>
    </g>
    <g id="xtick_43">
     <g id="line2d_43">
      <g>
       <use style="stroke:#000000;stroke-width:0.8;" x="191.193779" xlink:href="#md5b2f812e3" y="256.32"/>
      </g>
     </g>
     <g id="text_15">
      <!-- 3/4/20 -->
      <g transform="translate(192.849404 282.6325)rotate(-90)scale(0.06 -0.06)">
       <use xlink:href="#DejaVuSans-51"/>
       <use x="63.623047" xlink:href="#DejaVuSans-47"/>
       <use x="97.314453" xlink:href="#DejaVuSans-52"/>
       <use x="160.9375" xlink:href="#DejaVuSans-47"/>
       <use x="194.628906" xlink:href="#DejaVuSans-50"/>
       <use x="258.251953" xlink:href="#DejaVuSans-48"/>
      </g>
     </g>
    </g>
    <g id="xtick_44">
     <g id="line2d_44">
      <g>
       <use style="stroke:#000000;stroke-width:0.8;" x="194.070562" xlink:href="#md5b2f812e3" y="256.32"/>
      </g>
     </g>
    </g>
    <g id="xtick_45">
     <g id="line2d_45">
      <g>
       <use style="stroke:#000000;stroke-width:0.8;" x="196.947345" xlink:href="#md5b2f812e3" y="256.32"/>
      </g>
     </g>
    </g>
    <g id="xtick_46">
     <g id="line2d_46">
      <g>
       <use style="stroke:#000000;stroke-width:0.8;" x="199.824128" xlink:href="#md5b2f812e3" y="256.32"/>
      </g>
     </g>
     <g id="text_16">
      <!-- 3/7/20 -->
      <g transform="translate(201.479753 282.6325)rotate(-90)scale(0.06 -0.06)">
       <use xlink:href="#DejaVuSans-51"/>
       <use x="63.623047" xlink:href="#DejaVuSans-47"/>
       <use x="97.314453" xlink:href="#DejaVuSans-55"/>
       <use x="160.9375" xlink:href="#DejaVuSans-47"/>
       <use x="194.628906" xlink:href="#DejaVuSans-50"/>
       <use x="258.251953" xlink:href="#DejaVuSans-48"/>
      </g>
     </g>
    </g>
    <g id="xtick_47">
     <g id="line2d_47">
      <g>
       <use style="stroke:#000000;stroke-width:0.8;" x="202.700911" xlink:href="#md5b2f812e3" y="256.32"/>
      </g>
     </g>
    </g>
    <g id="xtick_48">
     <g id="line2d_48">
      <g>
       <use style="stroke:#000000;stroke-width:0.8;" x="205.577694" xlink:href="#md5b2f812e3" y="256.32"/>
      </g>
     </g>
    </g>
    <g id="xtick_49">
     <g id="line2d_49">
      <g>
       <use style="stroke:#000000;stroke-width:0.8;" x="208.454477" xlink:href="#md5b2f812e3" y="256.32"/>
      </g>
     </g>
     <g id="text_17">
      <!-- 3/10/20 -->
      <g transform="translate(210.110102 286.45)rotate(-90)scale(0.06 -0.06)">
       <use xlink:href="#DejaVuSans-51"/>
       <use x="63.623047" xlink:href="#DejaVuSans-47"/>
       <use x="97.314453" xlink:href="#DejaVuSans-49"/>
       <use x="160.9375" xlink:href="#DejaVuSans-48"/>
       <use x="224.560547" xlink:href="#DejaVuSans-47"/>
       <use x="258.251953" xlink:href="#DejaVuSans-50"/>
       <use x="321.875" xlink:href="#DejaVuSans-48"/>
      </g>
     </g>
    </g>
    <g id="xtick_50">
     <g id="line2d_50">
      <g>
       <use style="stroke:#000000;stroke-width:0.8;" x="211.33126" xlink:href="#md5b2f812e3" y="256.32"/>
      </g>
     </g>
    </g>
    <g id="xtick_51">
     <g id="line2d_51">
      <g>
       <use style="stroke:#000000;stroke-width:0.8;" x="214.208043" xlink:href="#md5b2f812e3" y="256.32"/>
      </g>
     </g>
    </g>
    <g id="xtick_52">
     <g id="line2d_52">
      <g>
       <use style="stroke:#000000;stroke-width:0.8;" x="217.084826" xlink:href="#md5b2f812e3" y="256.32"/>
      </g>
     </g>
     <g id="text_18">
      <!-- 3/13/20 -->
      <g transform="translate(218.740451 286.45)rotate(-90)scale(0.06 -0.06)">
       <use xlink:href="#DejaVuSans-51"/>
       <use x="63.623047" xlink:href="#DejaVuSans-47"/>
       <use x="97.314453" xlink:href="#DejaVuSans-49"/>
       <use x="160.9375" xlink:href="#DejaVuSans-51"/>
       <use x="224.560547" xlink:href="#DejaVuSans-47"/>
       <use x="258.251953" xlink:href="#DejaVuSans-50"/>
       <use x="321.875" xlink:href="#DejaVuSans-48"/>
      </g>
     </g>
    </g>
    <g id="xtick_53">
     <g id="line2d_53">
      <g>
       <use style="stroke:#000000;stroke-width:0.8;" x="219.961609" xlink:href="#md5b2f812e3" y="256.32"/>
      </g>
     </g>
    </g>
    <g id="xtick_54">
     <g id="line2d_54">
      <g>
       <use style="stroke:#000000;stroke-width:0.8;" x="222.838391" xlink:href="#md5b2f812e3" y="256.32"/>
      </g>
     </g>
    </g>
    <g id="xtick_55">
     <g id="line2d_55">
      <g>
       <use style="stroke:#000000;stroke-width:0.8;" x="225.715174" xlink:href="#md5b2f812e3" y="256.32"/>
      </g>
     </g>
     <g id="text_19">
      <!-- 3/16/20 -->
      <g transform="translate(227.370799 286.45)rotate(-90)scale(0.06 -0.06)">
       <use xlink:href="#DejaVuSans-51"/>
       <use x="63.623047" xlink:href="#DejaVuSans-47"/>
       <use x="97.314453" xlink:href="#DejaVuSans-49"/>
       <use x="160.9375" xlink:href="#DejaVuSans-54"/>
       <use x="224.560547" xlink:href="#DejaVuSans-47"/>
       <use x="258.251953" xlink:href="#DejaVuSans-50"/>
       <use x="321.875" xlink:href="#DejaVuSans-48"/>
      </g>
     </g>
    </g>
    <g id="xtick_56">
     <g id="line2d_56">
      <g>
       <use style="stroke:#000000;stroke-width:0.8;" x="228.591957" xlink:href="#md5b2f812e3" y="256.32"/>
      </g>
     </g>
    </g>
    <g id="xtick_57">
     <g id="line2d_57">
      <g>
       <use style="stroke:#000000;stroke-width:0.8;" x="231.46874" xlink:href="#md5b2f812e3" y="256.32"/>
      </g>
     </g>
    </g>
    <g id="xtick_58">
     <g id="line2d_58">
      <g>
       <use style="stroke:#000000;stroke-width:0.8;" x="234.345523" xlink:href="#md5b2f812e3" y="256.32"/>
      </g>
     </g>
     <g id="text_20">
      <!-- 3/19/20 -->
      <g transform="translate(236.001148 286.45)rotate(-90)scale(0.06 -0.06)">
       <use xlink:href="#DejaVuSans-51"/>
       <use x="63.623047" xlink:href="#DejaVuSans-47"/>
       <use x="97.314453" xlink:href="#DejaVuSans-49"/>
       <use x="160.9375" xlink:href="#DejaVuSans-57"/>
       <use x="224.560547" xlink:href="#DejaVuSans-47"/>
       <use x="258.251953" xlink:href="#DejaVuSans-50"/>
       <use x="321.875" xlink:href="#DejaVuSans-48"/>
      </g>
     </g>
    </g>
    <g id="xtick_59">
     <g id="line2d_59">
      <g>
       <use style="stroke:#000000;stroke-width:0.8;" x="237.222306" xlink:href="#md5b2f812e3" y="256.32"/>
      </g>
     </g>
    </g>
    <g id="xtick_60">
     <g id="line2d_60">
      <g>
       <use style="stroke:#000000;stroke-width:0.8;" x="240.099089" xlink:href="#md5b2f812e3" y="256.32"/>
      </g>
     </g>
    </g>
    <g id="xtick_61">
     <g id="line2d_61">
      <g>
       <use style="stroke:#000000;stroke-width:0.8;" x="242.975872" xlink:href="#md5b2f812e3" y="256.32"/>
      </g>
     </g>
     <g id="text_21">
      <!-- 3/22/20 -->
      <g transform="translate(244.631497 286.45)rotate(-90)scale(0.06 -0.06)">
       <use xlink:href="#DejaVuSans-51"/>
       <use x="63.623047" xlink:href="#DejaVuSans-47"/>
       <use x="97.314453" xlink:href="#DejaVuSans-50"/>
       <use x="160.9375" xlink:href="#DejaVuSans-50"/>
       <use x="224.560547" xlink:href="#DejaVuSans-47"/>
       <use x="258.251953" xlink:href="#DejaVuSans-50"/>
       <use x="321.875" xlink:href="#DejaVuSans-48"/>
      </g>
     </g>
    </g>
    <g id="xtick_62">
     <g id="line2d_62">
      <g>
       <use style="stroke:#000000;stroke-width:0.8;" x="245.852655" xlink:href="#md5b2f812e3" y="256.32"/>
      </g>
     </g>
    </g>
    <g id="xtick_63">
     <g id="line2d_63">
      <g>
       <use style="stroke:#000000;stroke-width:0.8;" x="248.729438" xlink:href="#md5b2f812e3" y="256.32"/>
      </g>
     </g>
    </g>
    <g id="xtick_64">
     <g id="line2d_64">
      <g>
       <use style="stroke:#000000;stroke-width:0.8;" x="251.606221" xlink:href="#md5b2f812e3" y="256.32"/>
      </g>
     </g>
     <g id="text_22">
      <!-- 3/25/20 -->
      <g transform="translate(253.261846 286.45)rotate(-90)scale(0.06 -0.06)">
       <use xlink:href="#DejaVuSans-51"/>
       <use x="63.623047" xlink:href="#DejaVuSans-47"/>
       <use x="97.314453" xlink:href="#DejaVuSans-50"/>
       <use x="160.9375" xlink:href="#DejaVuSans-53"/>
       <use x="224.560547" xlink:href="#DejaVuSans-47"/>
       <use x="258.251953" xlink:href="#DejaVuSans-50"/>
       <use x="321.875" xlink:href="#DejaVuSans-48"/>
      </g>
     </g>
    </g>
    <g id="xtick_65">
     <g id="line2d_65">
      <g>
       <use style="stroke:#000000;stroke-width:0.8;" x="254.483004" xlink:href="#md5b2f812e3" y="256.32"/>
      </g>
     </g>
    </g>
    <g id="xtick_66">
     <g id="line2d_66">
      <g>
       <use style="stroke:#000000;stroke-width:0.8;" x="257.359787" xlink:href="#md5b2f812e3" y="256.32"/>
      </g>
     </g>
    </g>
    <g id="xtick_67">
     <g id="line2d_67">
      <g>
       <use style="stroke:#000000;stroke-width:0.8;" x="260.23657" xlink:href="#md5b2f812e3" y="256.32"/>
      </g>
     </g>
     <g id="text_23">
      <!-- 3/28/20 -->
      <g transform="translate(261.892195 286.45)rotate(-90)scale(0.06 -0.06)">
       <use xlink:href="#DejaVuSans-51"/>
       <use x="63.623047" xlink:href="#DejaVuSans-47"/>
       <use x="97.314453" xlink:href="#DejaVuSans-50"/>
       <use x="160.9375" xlink:href="#DejaVuSans-56"/>
       <use x="224.560547" xlink:href="#DejaVuSans-47"/>
       <use x="258.251953" xlink:href="#DejaVuSans-50"/>
       <use x="321.875" xlink:href="#DejaVuSans-48"/>
      </g>
     </g>
    </g>
    <g id="xtick_68">
     <g id="line2d_68">
      <g>
       <use style="stroke:#000000;stroke-width:0.8;" x="263.113353" xlink:href="#md5b2f812e3" y="256.32"/>
      </g>
     </g>
    </g>
    <g id="xtick_69">
     <g id="line2d_69">
      <g>
       <use style="stroke:#000000;stroke-width:0.8;" x="265.990136" xlink:href="#md5b2f812e3" y="256.32"/>
      </g>
     </g>
    </g>
    <g id="xtick_70">
     <g id="line2d_70">
      <g>
       <use style="stroke:#000000;stroke-width:0.8;" x="268.866919" xlink:href="#md5b2f812e3" y="256.32"/>
      </g>
     </g>
     <g id="text_24">
      <!-- 3/31/20 -->
      <g transform="translate(270.522544 286.45)rotate(-90)scale(0.06 -0.06)">
       <use xlink:href="#DejaVuSans-51"/>
       <use x="63.623047" xlink:href="#DejaVuSans-47"/>
       <use x="97.314453" xlink:href="#DejaVuSans-51"/>
       <use x="160.9375" xlink:href="#DejaVuSans-49"/>
       <use x="224.560547" xlink:href="#DejaVuSans-47"/>
       <use x="258.251953" xlink:href="#DejaVuSans-50"/>
       <use x="321.875" xlink:href="#DejaVuSans-48"/>
      </g>
     </g>
    </g>
    <g id="xtick_71">
     <g id="line2d_71">
      <g>
       <use style="stroke:#000000;stroke-width:0.8;" x="271.743702" xlink:href="#md5b2f812e3" y="256.32"/>
      </g>
     </g>
    </g>
    <g id="xtick_72">
     <g id="line2d_72">
      <g>
       <use style="stroke:#000000;stroke-width:0.8;" x="274.620485" xlink:href="#md5b2f812e3" y="256.32"/>
      </g>
     </g>
    </g>
    <g id="xtick_73">
     <g id="line2d_73">
      <g>
       <use style="stroke:#000000;stroke-width:0.8;" x="277.497268" xlink:href="#md5b2f812e3" y="256.32"/>
      </g>
     </g>
     <g id="text_25">
      <!-- 4/3/20 -->
      <g transform="translate(279.152893 282.6325)rotate(-90)scale(0.06 -0.06)">
       <use xlink:href="#DejaVuSans-52"/>
       <use x="63.623047" xlink:href="#DejaVuSans-47"/>
       <use x="97.314453" xlink:href="#DejaVuSans-51"/>
       <use x="160.9375" xlink:href="#DejaVuSans-47"/>
       <use x="194.628906" xlink:href="#DejaVuSans-50"/>
       <use x="258.251953" xlink:href="#DejaVuSans-48"/>
      </g>
     </g>
    </g>
    <g id="xtick_74">
     <g id="line2d_74">
      <g>
       <use style="stroke:#000000;stroke-width:0.8;" x="280.374051" xlink:href="#md5b2f812e3" y="256.32"/>
      </g>
     </g>
    </g>
    <g id="xtick_75">
     <g id="line2d_75">
      <g>
       <use style="stroke:#000000;stroke-width:0.8;" x="283.250833" xlink:href="#md5b2f812e3" y="256.32"/>
      </g>
     </g>
    </g>
    <g id="xtick_76">
     <g id="line2d_76">
      <g>
       <use style="stroke:#000000;stroke-width:0.8;" x="286.127616" xlink:href="#md5b2f812e3" y="256.32"/>
      </g>
     </g>
     <g id="text_26">
      <!-- 4/6/20 -->
      <g transform="translate(287.783241 282.6325)rotate(-90)scale(0.06 -0.06)">
       <use xlink:href="#DejaVuSans-52"/>
       <use x="63.623047" xlink:href="#DejaVuSans-47"/>
       <use x="97.314453" xlink:href="#DejaVuSans-54"/>
       <use x="160.9375" xlink:href="#DejaVuSans-47"/>
       <use x="194.628906" xlink:href="#DejaVuSans-50"/>
       <use x="258.251953" xlink:href="#DejaVuSans-48"/>
      </g>
     </g>
    </g>
    <g id="xtick_77">
     <g id="line2d_77">
      <g>
       <use style="stroke:#000000;stroke-width:0.8;" x="289.004399" xlink:href="#md5b2f812e3" y="256.32"/>
      </g>
     </g>
    </g>
    <g id="xtick_78">
     <g id="line2d_78">
      <g>
       <use style="stroke:#000000;stroke-width:0.8;" x="291.881182" xlink:href="#md5b2f812e3" y="256.32"/>
      </g>
     </g>
    </g>
    <g id="xtick_79">
     <g id="line2d_79">
      <g>
       <use style="stroke:#000000;stroke-width:0.8;" x="294.757965" xlink:href="#md5b2f812e3" y="256.32"/>
      </g>
     </g>
     <g id="text_27">
      <!-- 4/9/20 -->
      <g transform="translate(296.41359 282.6325)rotate(-90)scale(0.06 -0.06)">
       <use xlink:href="#DejaVuSans-52"/>
       <use x="63.623047" xlink:href="#DejaVuSans-47"/>
       <use x="97.314453" xlink:href="#DejaVuSans-57"/>
       <use x="160.9375" xlink:href="#DejaVuSans-47"/>
       <use x="194.628906" xlink:href="#DejaVuSans-50"/>
       <use x="258.251953" xlink:href="#DejaVuSans-48"/>
      </g>
     </g>
    </g>
    <g id="xtick_80">
     <g id="line2d_80">
      <g>
       <use style="stroke:#000000;stroke-width:0.8;" x="297.634748" xlink:href="#md5b2f812e3" y="256.32"/>
      </g>
     </g>
    </g>
    <g id="xtick_81">
     <g id="line2d_81">
      <g>
       <use style="stroke:#000000;stroke-width:0.8;" x="300.511531" xlink:href="#md5b2f812e3" y="256.32"/>
      </g>
     </g>
    </g>
    <g id="xtick_82">
     <g id="line2d_82">
      <g>
       <use style="stroke:#000000;stroke-width:0.8;" x="303.388314" xlink:href="#md5b2f812e3" y="256.32"/>
      </g>
     </g>
     <g id="text_28">
      <!-- 4/12/20 -->
      <g transform="translate(305.043939 286.45)rotate(-90)scale(0.06 -0.06)">
       <use xlink:href="#DejaVuSans-52"/>
       <use x="63.623047" xlink:href="#DejaVuSans-47"/>
       <use x="97.314453" xlink:href="#DejaVuSans-49"/>
       <use x="160.9375" xlink:href="#DejaVuSans-50"/>
       <use x="224.560547" xlink:href="#DejaVuSans-47"/>
       <use x="258.251953" xlink:href="#DejaVuSans-50"/>
       <use x="321.875" xlink:href="#DejaVuSans-48"/>
      </g>
     </g>
    </g>
    <g id="xtick_83">
     <g id="line2d_83">
      <g>
       <use style="stroke:#000000;stroke-width:0.8;" x="306.265097" xlink:href="#md5b2f812e3" y="256.32"/>
      </g>
     </g>
    </g>
    <g id="xtick_84">
     <g id="line2d_84">
      <g>
       <use style="stroke:#000000;stroke-width:0.8;" x="309.14188" xlink:href="#md5b2f812e3" y="256.32"/>
      </g>
     </g>
    </g>
    <g id="xtick_85">
     <g id="line2d_85">
      <g>
       <use style="stroke:#000000;stroke-width:0.8;" x="312.018663" xlink:href="#md5b2f812e3" y="256.32"/>
      </g>
     </g>
     <g id="text_29">
      <!-- 4/15/20 -->
      <g transform="translate(313.674288 286.45)rotate(-90)scale(0.06 -0.06)">
       <use xlink:href="#DejaVuSans-52"/>
       <use x="63.623047" xlink:href="#DejaVuSans-47"/>
       <use x="97.314453" xlink:href="#DejaVuSans-49"/>
       <use x="160.9375" xlink:href="#DejaVuSans-53"/>
       <use x="224.560547" xlink:href="#DejaVuSans-47"/>
       <use x="258.251953" xlink:href="#DejaVuSans-50"/>
       <use x="321.875" xlink:href="#DejaVuSans-48"/>
      </g>
     </g>
    </g>
    <g id="xtick_86">
     <g id="line2d_86">
      <g>
       <use style="stroke:#000000;stroke-width:0.8;" x="314.895446" xlink:href="#md5b2f812e3" y="256.32"/>
      </g>
     </g>
    </g>
    <g id="xtick_87">
     <g id="line2d_87">
      <g>
       <use style="stroke:#000000;stroke-width:0.8;" x="317.772229" xlink:href="#md5b2f812e3" y="256.32"/>
      </g>
     </g>
    </g>
    <g id="xtick_88">
     <g id="line2d_88">
      <g>
       <use style="stroke:#000000;stroke-width:0.8;" x="320.649012" xlink:href="#md5b2f812e3" y="256.32"/>
      </g>
     </g>
     <g id="text_30">
      <!-- 4/18/20 -->
      <g transform="translate(322.304637 286.45)rotate(-90)scale(0.06 -0.06)">
       <use xlink:href="#DejaVuSans-52"/>
       <use x="63.623047" xlink:href="#DejaVuSans-47"/>
       <use x="97.314453" xlink:href="#DejaVuSans-49"/>
       <use x="160.9375" xlink:href="#DejaVuSans-56"/>
       <use x="224.560547" xlink:href="#DejaVuSans-47"/>
       <use x="258.251953" xlink:href="#DejaVuSans-50"/>
       <use x="321.875" xlink:href="#DejaVuSans-48"/>
      </g>
     </g>
    </g>
    <g id="xtick_89">
     <g id="line2d_89">
      <g>
       <use style="stroke:#000000;stroke-width:0.8;" x="323.525795" xlink:href="#md5b2f812e3" y="256.32"/>
      </g>
     </g>
    </g>
    <g id="xtick_90">
     <g id="line2d_90">
      <g>
       <use style="stroke:#000000;stroke-width:0.8;" x="326.402578" xlink:href="#md5b2f812e3" y="256.32"/>
      </g>
     </g>
    </g>
    <g id="xtick_91">
     <g id="line2d_91">
      <g>
       <use style="stroke:#000000;stroke-width:0.8;" x="329.279361" xlink:href="#md5b2f812e3" y="256.32"/>
      </g>
     </g>
     <g id="text_31">
      <!-- 4/21/20 -->
      <g transform="translate(330.934986 286.45)rotate(-90)scale(0.06 -0.06)">
       <use xlink:href="#DejaVuSans-52"/>
       <use x="63.623047" xlink:href="#DejaVuSans-47"/>
       <use x="97.314453" xlink:href="#DejaVuSans-50"/>
       <use x="160.9375" xlink:href="#DejaVuSans-49"/>
       <use x="224.560547" xlink:href="#DejaVuSans-47"/>
       <use x="258.251953" xlink:href="#DejaVuSans-50"/>
       <use x="321.875" xlink:href="#DejaVuSans-48"/>
      </g>
     </g>
    </g>
    <g id="xtick_92">
     <g id="line2d_92">
      <g>
       <use style="stroke:#000000;stroke-width:0.8;" x="332.156144" xlink:href="#md5b2f812e3" y="256.32"/>
      </g>
     </g>
    </g>
    <g id="xtick_93">
     <g id="line2d_93">
      <g>
       <use style="stroke:#000000;stroke-width:0.8;" x="335.032927" xlink:href="#md5b2f812e3" y="256.32"/>
      </g>
     </g>
    </g>
    <g id="xtick_94">
     <g id="line2d_94">
      <g>
       <use style="stroke:#000000;stroke-width:0.8;" x="337.90971" xlink:href="#md5b2f812e3" y="256.32"/>
      </g>
     </g>
     <g id="text_32">
      <!-- 4/24/20 -->
      <g transform="translate(339.565335 286.45)rotate(-90)scale(0.06 -0.06)">
       <use xlink:href="#DejaVuSans-52"/>
       <use x="63.623047" xlink:href="#DejaVuSans-47"/>
       <use x="97.314453" xlink:href="#DejaVuSans-50"/>
       <use x="160.9375" xlink:href="#DejaVuSans-52"/>
       <use x="224.560547" xlink:href="#DejaVuSans-47"/>
       <use x="258.251953" xlink:href="#DejaVuSans-50"/>
       <use x="321.875" xlink:href="#DejaVuSans-48"/>
      </g>
     </g>
    </g>
    <g id="xtick_95">
     <g id="line2d_95">
      <g>
       <use style="stroke:#000000;stroke-width:0.8;" x="340.786493" xlink:href="#md5b2f812e3" y="256.32"/>
      </g>
     </g>
    </g>
    <g id="xtick_96">
     <g id="line2d_96">
      <g>
       <use style="stroke:#000000;stroke-width:0.8;" x="343.663275" xlink:href="#md5b2f812e3" y="256.32"/>
      </g>
     </g>
    </g>
    <g id="xtick_97">
     <g id="line2d_97">
      <g>
       <use style="stroke:#000000;stroke-width:0.8;" x="346.540058" xlink:href="#md5b2f812e3" y="256.32"/>
      </g>
     </g>
     <g id="text_33">
      <!-- 4/27/20 -->
      <g transform="translate(348.195683 286.45)rotate(-90)scale(0.06 -0.06)">
       <use xlink:href="#DejaVuSans-52"/>
       <use x="63.623047" xlink:href="#DejaVuSans-47"/>
       <use x="97.314453" xlink:href="#DejaVuSans-50"/>
       <use x="160.9375" xlink:href="#DejaVuSans-55"/>
       <use x="224.560547" xlink:href="#DejaVuSans-47"/>
       <use x="258.251953" xlink:href="#DejaVuSans-50"/>
       <use x="321.875" xlink:href="#DejaVuSans-48"/>
      </g>
     </g>
    </g>
    <g id="xtick_98">
     <g id="line2d_98">
      <g>
       <use style="stroke:#000000;stroke-width:0.8;" x="349.416841" xlink:href="#md5b2f812e3" y="256.32"/>
      </g>
     </g>
    </g>
    <g id="xtick_99">
     <g id="line2d_99">
      <g>
       <use style="stroke:#000000;stroke-width:0.8;" x="352.293624" xlink:href="#md5b2f812e3" y="256.32"/>
      </g>
     </g>
    </g>
    <g id="xtick_100">
     <g id="line2d_100">
      <g>
       <use style="stroke:#000000;stroke-width:0.8;" x="355.170407" xlink:href="#md5b2f812e3" y="256.32"/>
      </g>
     </g>
     <g id="text_34">
      <!-- 4/30/20 -->
      <g transform="translate(356.826032 286.45)rotate(-90)scale(0.06 -0.06)">
       <use xlink:href="#DejaVuSans-52"/>
       <use x="63.623047" xlink:href="#DejaVuSans-47"/>
       <use x="97.314453" xlink:href="#DejaVuSans-51"/>
       <use x="160.9375" xlink:href="#DejaVuSans-48"/>
       <use x="224.560547" xlink:href="#DejaVuSans-47"/>
       <use x="258.251953" xlink:href="#DejaVuSans-50"/>
       <use x="321.875" xlink:href="#DejaVuSans-48"/>
      </g>
     </g>
    </g>
    <g id="xtick_101">
     <g id="line2d_101">
      <g>
       <use style="stroke:#000000;stroke-width:0.8;" x="358.04719" xlink:href="#md5b2f812e3" y="256.32"/>
      </g>
     </g>
    </g>
    <g id="xtick_102">
     <g id="line2d_102">
      <g>
       <use style="stroke:#000000;stroke-width:0.8;" x="360.923973" xlink:href="#md5b2f812e3" y="256.32"/>
      </g>
     </g>
    </g>
    <g id="xtick_103">
     <g id="line2d_103">
      <g>
       <use style="stroke:#000000;stroke-width:0.8;" x="363.800756" xlink:href="#md5b2f812e3" y="256.32"/>
      </g>
     </g>
     <g id="text_35">
      <!-- 5/3/20 -->
      <g transform="translate(365.456381 282.6325)rotate(-90)scale(0.06 -0.06)">
       <use xlink:href="#DejaVuSans-53"/>
       <use x="63.623047" xlink:href="#DejaVuSans-47"/>
       <use x="97.314453" xlink:href="#DejaVuSans-51"/>
       <use x="160.9375" xlink:href="#DejaVuSans-47"/>
       <use x="194.628906" xlink:href="#DejaVuSans-50"/>
       <use x="258.251953" xlink:href="#DejaVuSans-48"/>
      </g>
     </g>
    </g>
    <g id="xtick_104">
     <g id="line2d_104">
      <g>
       <use style="stroke:#000000;stroke-width:0.8;" x="366.677539" xlink:href="#md5b2f812e3" y="256.32"/>
      </g>
     </g>
    </g>
    <g id="xtick_105">
     <g id="line2d_105">
      <g>
       <use style="stroke:#000000;stroke-width:0.8;" x="369.554322" xlink:href="#md5b2f812e3" y="256.32"/>
      </g>
     </g>
    </g>
    <g id="xtick_106">
     <g id="line2d_106">
      <g>
       <use style="stroke:#000000;stroke-width:0.8;" x="372.431105" xlink:href="#md5b2f812e3" y="256.32"/>
      </g>
     </g>
     <g id="text_36">
      <!-- 5/6/20 -->
      <g transform="translate(374.08673 282.6325)rotate(-90)scale(0.06 -0.06)">
       <use xlink:href="#DejaVuSans-53"/>
       <use x="63.623047" xlink:href="#DejaVuSans-47"/>
       <use x="97.314453" xlink:href="#DejaVuSans-54"/>
       <use x="160.9375" xlink:href="#DejaVuSans-47"/>
       <use x="194.628906" xlink:href="#DejaVuSans-50"/>
       <use x="258.251953" xlink:href="#DejaVuSans-48"/>
      </g>
     </g>
    </g>
   </g>
   <g id="matplotlib.axis_2">
    <g id="ytick_1">
     <g id="line2d_107">
      <defs>
       <path d="M 0 0 
L -3.5 0 
" id="m1ab8b58b67" style="stroke:#000000;stroke-width:0.8;"/>
      </defs>
      <g>
       <use style="stroke:#000000;stroke-width:0.8;" x="54" xlink:href="#m1ab8b58b67" y="244.8"/>
      </g>
     </g>
     <g id="text_37">
      <!-- 0 -->
      <g transform="translate(40.6375 248.599219)scale(0.1 -0.1)">
       <use xlink:href="#DejaVuSans-48"/>
      </g>
     </g>
    </g>
    <g id="ytick_2">
     <g id="line2d_108">
      <g>
       <use style="stroke:#000000;stroke-width:0.8;" x="54" xlink:href="#m1ab8b58b67" y="216"/>
      </g>
     </g>
     <g id="text_38">
      <!-- 20 -->
      <g transform="translate(34.275 219.799219)scale(0.1 -0.1)">
       <use xlink:href="#DejaVuSans-50"/>
       <use x="63.623047" xlink:href="#DejaVuSans-48"/>
      </g>
     </g>
    </g>
    <g id="ytick_3">
     <g id="line2d_109">
      <g>
       <use style="stroke:#000000;stroke-width:0.8;" x="54" xlink:href="#m1ab8b58b67" y="187.2"/>
      </g>
     </g>
     <g id="text_39">
      <!-- 40 -->
      <g transform="translate(34.275 190.999219)scale(0.1 -0.1)">
       <use xlink:href="#DejaVuSans-52"/>
       <use x="63.623047" xlink:href="#DejaVuSans-48"/>
      </g>
     </g>
    </g>
    <g id="ytick_4">
     <g id="line2d_110">
      <g>
       <use style="stroke:#000000;stroke-width:0.8;" x="54" xlink:href="#m1ab8b58b67" y="158.4"/>
      </g>
     </g>
     <g id="text_40">
      <!-- 60 -->
      <g transform="translate(34.275 162.199219)scale(0.1 -0.1)">
       <use xlink:href="#DejaVuSans-54"/>
       <use x="63.623047" xlink:href="#DejaVuSans-48"/>
      </g>
     </g>
    </g>
    <g id="ytick_5">
     <g id="line2d_111">
      <g>
       <use style="stroke:#000000;stroke-width:0.8;" x="54" xlink:href="#m1ab8b58b67" y="129.6"/>
      </g>
     </g>
     <g id="text_41">
      <!-- 80 -->
      <g transform="translate(34.275 133.399219)scale(0.1 -0.1)">
       <use xlink:href="#DejaVuSans-56"/>
       <use x="63.623047" xlink:href="#DejaVuSans-48"/>
      </g>
     </g>
    </g>
    <g id="ytick_6">
     <g id="line2d_112">
      <g>
       <use style="stroke:#000000;stroke-width:0.8;" x="54" xlink:href="#m1ab8b58b67" y="100.8"/>
      </g>
     </g>
     <g id="text_42">
      <!-- 100 -->
      <g transform="translate(27.9125 104.599219)scale(0.1 -0.1)">
       <use xlink:href="#DejaVuSans-49"/>
       <use x="63.623047" xlink:href="#DejaVuSans-48"/>
       <use x="127.246094" xlink:href="#DejaVuSans-48"/>
      </g>
     </g>
    </g>
    <g id="ytick_7">
     <g id="line2d_113">
      <g>
       <use style="stroke:#000000;stroke-width:0.8;" x="54" xlink:href="#m1ab8b58b67" y="72"/>
      </g>
     </g>
     <g id="text_43">
      <!-- 120 -->
      <g transform="translate(27.9125 75.799219)scale(0.1 -0.1)">
       <use xlink:href="#DejaVuSans-49"/>
       <use x="63.623047" xlink:href="#DejaVuSans-50"/>
       <use x="127.246094" xlink:href="#DejaVuSans-48"/>
      </g>
     </g>
    </g>
    <g id="ytick_8">
     <g id="line2d_114">
      <g>
       <use style="stroke:#000000;stroke-width:0.8;" x="54" xlink:href="#m1ab8b58b67" y="43.2"/>
      </g>
     </g>
     <g id="text_44">
      <!-- 140 -->
      <g transform="translate(27.9125 46.999219)scale(0.1 -0.1)">
       <use xlink:href="#DejaVuSans-49"/>
       <use x="63.623047" xlink:href="#DejaVuSans-52"/>
       <use x="127.246094" xlink:href="#DejaVuSans-48"/>
      </g>
     </g>
    </g>
   </g>
   <g id="line2d_115">
    <path clip-path="url(#p3e98ccf3be)" d="M 70.368895 244.8 
L 73.245678 244.8 
L 76.122461 244.8 
L 78.999244 244.8 
L 81.876027 244.8 
L 84.75281 244.8 
L 87.629593 244.8 
L 90.506376 244.8 
L 93.383159 244.8 
L 96.259942 244.8 
L 99.136725 244.8 
L 102.013507 244.8 
L 104.89029 244.8 
L 107.767073 244.8 
L 110.643856 244.8 
L 113.520639 244.8 
L 116.397422 244.8 
L 119.274205 244.8 
L 122.150988 244.8 
L 125.027771 244.8 
L 127.904554 244.8 
L 130.781337 244.8 
L 133.65812 244.8 
L 136.534903 244.8 
L 139.411686 244.8 
L 142.288469 244.8 
L 145.165252 244.8 
L 148.042035 244.8 
L 150.918818 244.8 
L 153.795601 244.8 
L 156.672384 244.8 
L 159.549167 244.8 
L 162.425949 244.8 
L 165.302732 244.8 
L 168.179515 244.8 
L 171.056298 244.8 
L 173.933081 244.8 
L 176.809864 244.8 
L 179.686647 244.8 
L 182.56343 244.594286 
L 185.440213 244.594286 
L 188.316996 244.594286 
L 191.193779 244.594286 
L 194.070562 244.594286 
L 196.947345 244.594286 
L 199.824128 244.388571 
L 202.700911 244.182857 
L 205.577694 244.182857 
L 208.454477 244.182857 
L 211.33126 244.388571 
L 214.208043 243.977143 
L 217.084826 243.565714 
L 219.961609 242.742857 
L 222.838391 242.331429 
L 225.715174 241.92 
L 228.591957 240.685714 
L 231.46874 240.274286 
L 234.345523 239.657143 
L 237.222306 238.217143 
L 240.099089 236.982857 
L 242.975872 234.72 
L 245.852655 231.84 
L 248.729438 230.4 
L 251.606221 227.314286 
L 254.483004 225.462857 
L 257.359787 222.788571 
L 260.23657 219.497143 
L 263.113353 217.234286 
L 265.990136 212.502857 
L 268.866919 209.622857 
L 271.743702 207.977143 
L 274.620485 198.72 
L 277.497268 196.662857 
L 280.374051 191.52 
L 283.250833 183.908571 
L 286.127616 181.851429 
L 289.004399 179.382857 
L 291.881182 180 
L 294.757965 184.731429 
L 297.634748 176.091429 
L 300.511531 175.885714 
L 303.388314 169.714286 
L 306.265097 160.045714 
L 309.14188 151.405714 
L 312.018663 134.537143 
L 314.895446 134.331429 
L 317.772229 139.68 
L 320.649012 138.857143 
L 323.525795 129.394286 
L 326.402578 126.102857 
L 329.279361 124.662857 
L 332.156144 131.862857 
L 335.032927 132.068571 
L 337.90971 130.834286 
L 340.786493 125.074286 
L 343.663275 136.8 
L 346.540058 142.354286 
L 349.416841 140.914286 
L 352.293624 143.794286 
L 355.170407 143.794286 
L 358.04719 142.148571 
L 360.923973 138.445714 
L 363.800756 138.24 
" style="fill:none;stroke:#1f77b4;stroke-linecap:square;stroke-width:1.5;"/>
   </g>
   <g id="patch_109">
    <path d="M 54 256.32 
L 54 34.56 
" style="fill:none;stroke:#000000;stroke-linecap:square;stroke-linejoin:miter;stroke-width:0.8;"/>
   </g>
   <g id="patch_110">
    <path d="M 388.8 256.32 
L 388.8 34.56 
" style="fill:none;stroke:#000000;stroke-linecap:square;stroke-linejoin:miter;stroke-width:0.8;"/>
   </g>
   <g id="patch_111">
    <path d="M 54 256.32 
L 388.8 256.32 
" style="fill:none;stroke:#000000;stroke-linecap:square;stroke-linejoin:miter;stroke-width:0.8;"/>
   </g>
   <g id="patch_112">
    <path d="M 54 34.56 
L 388.8 34.56 
" style="fill:none;stroke:#000000;stroke-linecap:square;stroke-linejoin:miter;stroke-width:0.8;"/>
   </g>
   <g id="text_45">
    <!-- Deaths - - ca -->
    <defs>
     <path d="M 19.671875 64.796875 
L 19.671875 8.109375 
L 31.59375 8.109375 
Q 46.6875 8.109375 53.6875 14.9375 
Q 60.6875 21.78125 60.6875 36.53125 
Q 60.6875 51.171875 53.6875 57.984375 
Q 46.6875 64.796875 31.59375 64.796875 
z
M 9.8125 72.90625 
L 30.078125 72.90625 
Q 51.265625 72.90625 61.171875 64.09375 
Q 71.09375 55.28125 71.09375 36.53125 
Q 71.09375 17.671875 61.125 8.828125 
Q 51.171875 0 30.078125 0 
L 9.8125 0 
z
" id="DejaVuSans-68"/>
     <path d="M 56.203125 29.59375 
L 56.203125 25.203125 
L 14.890625 25.203125 
Q 15.484375 15.921875 20.484375 11.0625 
Q 25.484375 6.203125 34.421875 6.203125 
Q 39.59375 6.203125 44.453125 7.46875 
Q 49.3125 8.734375 54.109375 11.28125 
L 54.109375 2.78125 
Q 49.265625 0.734375 44.1875 -0.34375 
Q 39.109375 -1.421875 33.890625 -1.421875 
Q 20.796875 -1.421875 13.15625 6.1875 
Q 5.515625 13.8125 5.515625 26.8125 
Q 5.515625 40.234375 12.765625 48.109375 
Q 20.015625 56 32.328125 56 
Q 43.359375 56 49.78125 48.890625 
Q 56.203125 41.796875 56.203125 29.59375 
z
M 47.21875 32.234375 
Q 47.125 39.59375 43.09375 43.984375 
Q 39.0625 48.390625 32.421875 48.390625 
Q 24.90625 48.390625 20.390625 44.140625 
Q 15.875 39.890625 15.1875 32.171875 
z
" id="DejaVuSans-101"/>
     <path d="M 34.28125 27.484375 
Q 23.390625 27.484375 19.1875 25 
Q 14.984375 22.515625 14.984375 16.5 
Q 14.984375 11.71875 18.140625 8.90625 
Q 21.296875 6.109375 26.703125 6.109375 
Q 34.1875 6.109375 38.703125 11.40625 
Q 43.21875 16.703125 43.21875 25.484375 
L 43.21875 27.484375 
z
M 52.203125 31.203125 
L 52.203125 0 
L 43.21875 0 
L 43.21875 8.296875 
Q 40.140625 3.328125 35.546875 0.953125 
Q 30.953125 -1.421875 24.3125 -1.421875 
Q 15.921875 -1.421875 10.953125 3.296875 
Q 6 8.015625 6 15.921875 
Q 6 25.140625 12.171875 29.828125 
Q 18.359375 34.515625 30.609375 34.515625 
L 43.21875 34.515625 
L 43.21875 35.40625 
Q 43.21875 41.609375 39.140625 45 
Q 35.0625 48.390625 27.6875 48.390625 
Q 23 48.390625 18.546875 47.265625 
Q 14.109375 46.140625 10.015625 43.890625 
L 10.015625 52.203125 
Q 14.9375 54.109375 19.578125 55.046875 
Q 24.21875 56 28.609375 56 
Q 40.484375 56 46.34375 49.84375 
Q 52.203125 43.703125 52.203125 31.203125 
z
" id="DejaVuSans-97"/>
     <path d="M 18.3125 70.21875 
L 18.3125 54.6875 
L 36.8125 54.6875 
L 36.8125 47.703125 
L 18.3125 47.703125 
L 18.3125 18.015625 
Q 18.3125 11.328125 20.140625 9.421875 
Q 21.96875 7.515625 27.59375 7.515625 
L 36.8125 7.515625 
L 36.8125 0 
L 27.59375 0 
Q 17.1875 0 13.234375 3.875 
Q 9.28125 7.765625 9.28125 18.015625 
L 9.28125 47.703125 
L 2.6875 47.703125 
L 2.6875 54.6875 
L 9.28125 54.6875 
L 9.28125 70.21875 
z
" id="DejaVuSans-116"/>
     <path d="M 54.890625 33.015625 
L 54.890625 0 
L 45.90625 0 
L 45.90625 32.71875 
Q 45.90625 40.484375 42.875 44.328125 
Q 39.84375 48.1875 33.796875 48.1875 
Q 26.515625 48.1875 22.3125 43.546875 
Q 18.109375 38.921875 18.109375 30.90625 
L 18.109375 0 
L 9.078125 0 
L 9.078125 75.984375 
L 18.109375 75.984375 
L 18.109375 46.1875 
Q 21.34375 51.125 25.703125 53.5625 
Q 30.078125 56 35.796875 56 
Q 45.21875 56 50.046875 50.171875 
Q 54.890625 44.34375 54.890625 33.015625 
z
" id="DejaVuSans-104"/>
     <path d="M 44.28125 53.078125 
L 44.28125 44.578125 
Q 40.484375 46.53125 36.375 47.5 
Q 32.28125 48.484375 27.875 48.484375 
Q 21.1875 48.484375 17.84375 46.4375 
Q 14.5 44.390625 14.5 40.28125 
Q 14.5 37.15625 16.890625 35.375 
Q 19.28125 33.59375 26.515625 31.984375 
L 29.59375 31.296875 
Q 39.15625 29.25 43.1875 25.515625 
Q 47.21875 21.78125 47.21875 15.09375 
Q 47.21875 7.46875 41.1875 3.015625 
Q 35.15625 -1.421875 24.609375 -1.421875 
Q 20.21875 -1.421875 15.453125 -0.5625 
Q 10.6875 0.296875 5.421875 2 
L 5.421875 11.28125 
Q 10.40625 8.6875 15.234375 7.390625 
Q 20.0625 6.109375 24.8125 6.109375 
Q 31.15625 6.109375 34.5625 8.28125 
Q 37.984375 10.453125 37.984375 14.40625 
Q 37.984375 18.0625 35.515625 20.015625 
Q 33.0625 21.96875 24.703125 23.78125 
L 21.578125 24.515625 
Q 13.234375 26.265625 9.515625 29.90625 
Q 5.8125 33.546875 5.8125 39.890625 
Q 5.8125 47.609375 11.28125 51.796875 
Q 16.75 56 26.8125 56 
Q 31.78125 56 36.171875 55.265625 
Q 40.578125 54.546875 44.28125 53.078125 
z
" id="DejaVuSans-115"/>
     <path id="DejaVuSans-32"/>
     <path d="M 4.890625 31.390625 
L 31.203125 31.390625 
L 31.203125 23.390625 
L 4.890625 23.390625 
z
" id="DejaVuSans-45"/>
     <path d="M 48.78125 52.59375 
L 48.78125 44.1875 
Q 44.96875 46.296875 41.140625 47.34375 
Q 37.3125 48.390625 33.40625 48.390625 
Q 24.65625 48.390625 19.8125 42.84375 
Q 14.984375 37.3125 14.984375 27.296875 
Q 14.984375 17.28125 19.8125 11.734375 
Q 24.65625 6.203125 33.40625 6.203125 
Q 37.3125 6.203125 41.140625 7.25 
Q 44.96875 8.296875 48.78125 10.40625 
L 48.78125 2.09375 
Q 45.015625 0.34375 40.984375 -0.53125 
Q 36.96875 -1.421875 32.421875 -1.421875 
Q 20.0625 -1.421875 12.78125 6.34375 
Q 5.515625 14.109375 5.515625 27.296875 
Q 5.515625 40.671875 12.859375 48.328125 
Q 20.21875 56 33.015625 56 
Q 37.15625 56 41.109375 55.140625 
Q 45.0625 54.296875 48.78125 52.59375 
z
" id="DejaVuSans-99"/>
    </defs>
    <g transform="translate(185.011875 28.56)scale(0.12 -0.12)">
     <use xlink:href="#DejaVuSans-68"/>
     <use x="77.001953" xlink:href="#DejaVuSans-101"/>
     <use x="138.525391" xlink:href="#DejaVuSans-97"/>
     <use x="199.804688" xlink:href="#DejaVuSans-116"/>
     <use x="239.013672" xlink:href="#DejaVuSans-104"/>
     <use x="302.392578" xlink:href="#DejaVuSans-115"/>
     <use x="354.492188" xlink:href="#DejaVuSans-32"/>
     <use x="386.279297" xlink:href="#DejaVuSans-45"/>
     <use x="422.363281" xlink:href="#DejaVuSans-45"/>
     <use x="458.447266" xlink:href="#DejaVuSans-32"/>
     <use x="490.234375" xlink:href="#DejaVuSans-99"/>
     <use x="545.214844" xlink:href="#DejaVuSans-97"/>
    </g>
   </g>
   <g id="legend_1">
    <g id="patch_113">
     <path d="M 61 71.91625 
L 177.784375 71.91625 
Q 179.784375 71.91625 179.784375 69.91625 
L 179.784375 41.56 
Q 179.784375 39.56 177.784375 39.56 
L 61 39.56 
Q 59 39.56 59 41.56 
L 59 69.91625 
Q 59 71.91625 61 71.91625 
z
" style="fill:#ffffff;opacity:0.8;stroke:#cccccc;stroke-linejoin:miter;"/>
    </g>
    <g id="patch_114">
     <path d="M 63 51.158437 
L 83 51.158437 
L 83 44.158437 
L 63 44.158437 
z
" style="fill:#ffa500;"/>
    </g>
    <g id="text_46">
     <!-- (est.) daily count -->
     <defs>
      <path d="M 31 75.875 
Q 24.46875 64.65625 21.28125 53.65625 
Q 18.109375 42.671875 18.109375 31.390625 
Q 18.109375 20.125 21.3125 9.0625 
Q 24.515625 -2 31 -13.1875 
L 23.1875 -13.1875 
Q 15.875 -1.703125 12.234375 9.375 
Q 8.59375 20.453125 8.59375 31.390625 
Q 8.59375 42.28125 12.203125 53.3125 
Q 15.828125 64.359375 23.1875 75.875 
z
" id="DejaVuSans-40"/>
      <path d="M 10.6875 12.40625 
L 21 12.40625 
L 21 0 
L 10.6875 0 
z
" id="DejaVuSans-46"/>
      <path d="M 8.015625 75.875 
L 15.828125 75.875 
Q 23.140625 64.359375 26.78125 53.3125 
Q 30.421875 42.28125 30.421875 31.390625 
Q 30.421875 20.453125 26.78125 9.375 
Q 23.140625 -1.703125 15.828125 -13.1875 
L 8.015625 -13.1875 
Q 14.5 -2 17.703125 9.0625 
Q 20.90625 20.125 20.90625 31.390625 
Q 20.90625 42.671875 17.703125 53.65625 
Q 14.5 64.65625 8.015625 75.875 
z
" id="DejaVuSans-41"/>
      <path d="M 45.40625 46.390625 
L 45.40625 75.984375 
L 54.390625 75.984375 
L 54.390625 0 
L 45.40625 0 
L 45.40625 8.203125 
Q 42.578125 3.328125 38.25 0.953125 
Q 33.9375 -1.421875 27.875 -1.421875 
Q 17.96875 -1.421875 11.734375 6.484375 
Q 5.515625 14.40625 5.515625 27.296875 
Q 5.515625 40.1875 11.734375 48.09375 
Q 17.96875 56 27.875 56 
Q 33.9375 56 38.25 53.625 
Q 42.578125 51.265625 45.40625 46.390625 
z
M 14.796875 27.296875 
Q 14.796875 17.390625 18.875 11.75 
Q 22.953125 6.109375 30.078125 6.109375 
Q 37.203125 6.109375 41.296875 11.75 
Q 45.40625 17.390625 45.40625 27.296875 
Q 45.40625 37.203125 41.296875 42.84375 
Q 37.203125 48.484375 30.078125 48.484375 
Q 22.953125 48.484375 18.875 42.84375 
Q 14.796875 37.203125 14.796875 27.296875 
z
" id="DejaVuSans-100"/>
      <path d="M 9.421875 54.6875 
L 18.40625 54.6875 
L 18.40625 0 
L 9.421875 0 
z
M 9.421875 75.984375 
L 18.40625 75.984375 
L 18.40625 64.59375 
L 9.421875 64.59375 
z
" id="DejaVuSans-105"/>
      <path d="M 9.421875 75.984375 
L 18.40625 75.984375 
L 18.40625 0 
L 9.421875 0 
z
" id="DejaVuSans-108"/>
      <path d="M 32.171875 -5.078125 
Q 28.375 -14.84375 24.75 -17.8125 
Q 21.140625 -20.796875 15.09375 -20.796875 
L 7.90625 -20.796875 
L 7.90625 -13.28125 
L 13.1875 -13.28125 
Q 16.890625 -13.28125 18.9375 -11.515625 
Q 21 -9.765625 23.484375 -3.21875 
L 25.09375 0.875 
L 2.984375 54.6875 
L 12.5 54.6875 
L 29.59375 11.921875 
L 46.6875 54.6875 
L 56.203125 54.6875 
z
" id="DejaVuSans-121"/>
      <path d="M 30.609375 48.390625 
Q 23.390625 48.390625 19.1875 42.75 
Q 14.984375 37.109375 14.984375 27.296875 
Q 14.984375 17.484375 19.15625 11.84375 
Q 23.34375 6.203125 30.609375 6.203125 
Q 37.796875 6.203125 41.984375 11.859375 
Q 46.1875 17.53125 46.1875 27.296875 
Q 46.1875 37.015625 41.984375 42.703125 
Q 37.796875 48.390625 30.609375 48.390625 
z
M 30.609375 56 
Q 42.328125 56 49.015625 48.375 
Q 55.71875 40.765625 55.71875 27.296875 
Q 55.71875 13.875 49.015625 6.21875 
Q 42.328125 -1.421875 30.609375 -1.421875 
Q 18.84375 -1.421875 12.171875 6.21875 
Q 5.515625 13.875 5.515625 27.296875 
Q 5.515625 40.765625 12.171875 48.375 
Q 18.84375 56 30.609375 56 
z
" id="DejaVuSans-111"/>
      <path d="M 8.5 21.578125 
L 8.5 54.6875 
L 17.484375 54.6875 
L 17.484375 21.921875 
Q 17.484375 14.15625 20.5 10.265625 
Q 23.53125 6.390625 29.59375 6.390625 
Q 36.859375 6.390625 41.078125 11.03125 
Q 45.3125 15.671875 45.3125 23.6875 
L 45.3125 54.6875 
L 54.296875 54.6875 
L 54.296875 0 
L 45.3125 0 
L 45.3125 8.40625 
Q 42.046875 3.421875 37.71875 1 
Q 33.40625 -1.421875 27.6875 -1.421875 
Q 18.265625 -1.421875 13.375 4.4375 
Q 8.5 10.296875 8.5 21.578125 
z
M 31.109375 56 
z
" id="DejaVuSans-117"/>
      <path d="M 54.890625 33.015625 
L 54.890625 0 
L 45.90625 0 
L 45.90625 32.71875 
Q 45.90625 40.484375 42.875 44.328125 
Q 39.84375 48.1875 33.796875 48.1875 
Q 26.515625 48.1875 22.3125 43.546875 
Q 18.109375 38.921875 18.109375 30.90625 
L 18.109375 0 
L 9.078125 0 
L 9.078125 54.6875 
L 18.109375 54.6875 
L 18.109375 46.1875 
Q 21.34375 51.125 25.703125 53.5625 
Q 30.078125 56 35.796875 56 
Q 45.21875 56 50.046875 50.171875 
Q 54.890625 44.34375 54.890625 33.015625 
z
" id="DejaVuSans-110"/>
     </defs>
     <g transform="translate(91 51.158437)scale(0.1 -0.1)">
      <use xlink:href="#DejaVuSans-40"/>
      <use x="39.013672" xlink:href="#DejaVuSans-101"/>
      <use x="100.537109" xlink:href="#DejaVuSans-115"/>
      <use x="152.636719" xlink:href="#DejaVuSans-116"/>
      <use x="191.845703" xlink:href="#DejaVuSans-46"/>
      <use x="223.632812" xlink:href="#DejaVuSans-41"/>
      <use x="262.646484" xlink:href="#DejaVuSans-32"/>
      <use x="294.433594" xlink:href="#DejaVuSans-100"/>
      <use x="357.910156" xlink:href="#DejaVuSans-97"/>
      <use x="419.189453" xlink:href="#DejaVuSans-105"/>
      <use x="446.972656" xlink:href="#DejaVuSans-108"/>
      <use x="474.755859" xlink:href="#DejaVuSans-121"/>
      <use x="533.935547" xlink:href="#DejaVuSans-32"/>
      <use x="565.722656" xlink:href="#DejaVuSans-99"/>
      <use x="620.703125" xlink:href="#DejaVuSans-111"/>
      <use x="681.884766" xlink:href="#DejaVuSans-117"/>
      <use x="745.263672" xlink:href="#DejaVuSans-110"/>
      <use x="808.642578" xlink:href="#DejaVuSans-116"/>
     </g>
    </g>
    <g id="line2d_116">
     <path d="M 63 62.336562 
L 83 62.336562 
" style="fill:none;stroke:#1f77b4;stroke-linecap:square;stroke-width:1.5;"/>
    </g>
    <g id="line2d_117"/>
    <g id="text_47">
     <!-- 7 day average -->
     <defs>
      <path d="M 2.984375 54.6875 
L 12.5 54.6875 
L 29.59375 8.796875 
L 46.6875 54.6875 
L 56.203125 54.6875 
L 35.6875 0 
L 23.484375 0 
z
" id="DejaVuSans-118"/>
      <path d="M 41.109375 46.296875 
Q 39.59375 47.171875 37.8125 47.578125 
Q 36.03125 48 33.890625 48 
Q 26.265625 48 22.1875 43.046875 
Q 18.109375 38.09375 18.109375 28.8125 
L 18.109375 0 
L 9.078125 0 
L 9.078125 54.6875 
L 18.109375 54.6875 
L 18.109375 46.1875 
Q 20.953125 51.171875 25.484375 53.578125 
Q 30.03125 56 36.53125 56 
Q 37.453125 56 38.578125 55.875 
Q 39.703125 55.765625 41.0625 55.515625 
z
" id="DejaVuSans-114"/>
      <path d="M 45.40625 27.984375 
Q 45.40625 37.75 41.375 43.109375 
Q 37.359375 48.484375 30.078125 48.484375 
Q 22.859375 48.484375 18.828125 43.109375 
Q 14.796875 37.75 14.796875 27.984375 
Q 14.796875 18.265625 18.828125 12.890625 
Q 22.859375 7.515625 30.078125 7.515625 
Q 37.359375 7.515625 41.375 12.890625 
Q 45.40625 18.265625 45.40625 27.984375 
z
M 54.390625 6.78125 
Q 54.390625 -7.171875 48.1875 -13.984375 
Q 42 -20.796875 29.203125 -20.796875 
Q 24.46875 -20.796875 20.265625 -20.09375 
Q 16.0625 -19.390625 12.109375 -17.921875 
L 12.109375 -9.1875 
Q 16.0625 -11.328125 19.921875 -12.34375 
Q 23.78125 -13.375 27.78125 -13.375 
Q 36.625 -13.375 41.015625 -8.765625 
Q 45.40625 -4.15625 45.40625 5.171875 
L 45.40625 9.625 
Q 42.625 4.78125 38.28125 2.390625 
Q 33.9375 0 27.875 0 
Q 17.828125 0 11.671875 7.65625 
Q 5.515625 15.328125 5.515625 27.984375 
Q 5.515625 40.671875 11.671875 48.328125 
Q 17.828125 56 27.875 56 
Q 33.9375 56 38.28125 53.609375 
Q 42.625 51.21875 45.40625 46.390625 
L 45.40625 54.6875 
L 54.390625 54.6875 
z
" id="DejaVuSans-103"/>
     </defs>
     <g transform="translate(91 65.836562)scale(0.1 -0.1)">
      <use xlink:href="#DejaVuSans-55"/>
      <use x="63.623047" xlink:href="#DejaVuSans-32"/>
      <use x="95.410156" xlink:href="#DejaVuSans-100"/>
      <use x="158.886719" xlink:href="#DejaVuSans-97"/>
      <use x="220.166016" xlink:href="#DejaVuSans-121"/>
      <use x="279.345703" xlink:href="#DejaVuSans-32"/>
      <use x="311.132812" xlink:href="#DejaVuSans-97"/>
      <use x="372.412109" xlink:href="#DejaVuSans-118"/>
      <use x="431.591797" xlink:href="#DejaVuSans-101"/>
      <use x="493.115234" xlink:href="#DejaVuSans-114"/>
      <use x="534.228516" xlink:href="#DejaVuSans-97"/>
      <use x="595.507812" xlink:href="#DejaVuSans-103"/>
      <use x="658.984375" xlink:href="#DejaVuSans-101"/>
     </g>
    </g>
   </g>
  </g>
 </g>
 <defs>
  <clipPath id="p3e98ccf3be">
   <rect height="221.76" width="334.8" x="54" y="34.56"/>
  </clipPath>
 </defs>
</svg>
