<?xml version="1.0" encoding="utf-8" standalone="no"?>
<!DOCTYPE svg PUBLIC "-//W3C//DTD SVG 1.1//EN"
  "http://www.w3.org/Graphics/SVG/1.1/DTD/svg11.dtd">
<!-- Created with matplotlib (https://matplotlib.org/) -->
<svg height="288pt" version="1.1" viewBox="0 0 432 288" width="432pt" xmlns="http://www.w3.org/2000/svg" xmlns:xlink="http://www.w3.org/1999/xlink">
 <defs>
  <style type="text/css">
*{stroke-linecap:butt;stroke-linejoin:round;}
  </style>
 </defs>
 <g id="figure_1">
  <g id="patch_1">
   <path d="M 0 288 
L 432 288 
L 432 0 
L 0 0 
z
" style="fill:#ffffff;"/>
  </g>
  <g id="axes_1">
   <g id="patch_2">
    <path d="M 54 256.32 
L 388.8 256.32 
L 388.8 34.56 
L 54 34.56 
z
" style="fill:#ffffff;"/>
   </g>
   <g id="patch_3">
    <path clip-path="url(#pf3c7644f65)" d="M 69.218182 226.314419 
L 71.707864 226.314419 
L 71.707864 226.314419 
L 69.218182 226.314419 
z
" style="fill:#ffa500;"/>
   </g>
   <g id="patch_4">
    <path clip-path="url(#pf3c7644f65)" d="M 72.330284 226.314419 
L 74.819967 226.314419 
L 74.819967 226.314419 
L 72.330284 226.314419 
z
" style="fill:#ffa500;"/>
   </g>
   <g id="patch_5">
    <path clip-path="url(#pf3c7644f65)" d="M 75.442387 226.314419 
L 77.932069 226.314419 
L 77.932069 226.314419 
L 75.442387 226.314419 
z
" style="fill:#ffa500;"/>
   </g>
   <g id="patch_6">
    <path clip-path="url(#pf3c7644f65)" d="M 78.55449 226.314419 
L 81.044172 226.314419 
L 81.044172 226.314419 
L 78.55449 226.314419 
z
" style="fill:#ffa500;"/>
   </g>
   <g id="patch_7">
    <path clip-path="url(#pf3c7644f65)" d="M 81.666592 226.314419 
L 84.156274 226.314419 
L 84.156274 226.314419 
L 81.666592 226.314419 
z
" style="fill:#ffa500;"/>
   </g>
   <g id="patch_8">
    <path clip-path="url(#pf3c7644f65)" d="M 84.778695 226.314419 
L 87.268377 226.314419 
L 87.268377 226.314419 
L 84.778695 226.314419 
z
" style="fill:#ffa500;"/>
   </g>
   <g id="patch_9">
    <path clip-path="url(#pf3c7644f65)" d="M 87.890798 226.314419 
L 90.38048 226.314419 
L 90.38048 226.314419 
L 87.890798 226.314419 
z
" style="fill:#ffa500;"/>
   </g>
   <g id="patch_10">
    <path clip-path="url(#pf3c7644f65)" d="M 91.0029 226.314419 
L 93.492582 226.314419 
L 93.492582 226.314419 
L 91.0029 226.314419 
z
" style="fill:#ffa500;"/>
   </g>
   <g id="patch_11">
    <path clip-path="url(#pf3c7644f65)" d="M 94.115003 226.314419 
L 96.604685 226.314419 
L 96.604685 226.314419 
L 94.115003 226.314419 
z
" style="fill:#ffa500;"/>
   </g>
   <g id="patch_12">
    <path clip-path="url(#pf3c7644f65)" d="M 97.227105 226.314419 
L 99.716788 226.314419 
L 99.716788 226.314419 
L 97.227105 226.314419 
z
" style="fill:#ffa500;"/>
   </g>
   <g id="patch_13">
    <path clip-path="url(#pf3c7644f65)" d="M 100.339208 226.314419 
L 102.82889 226.314419 
L 102.82889 226.314419 
L 100.339208 226.314419 
z
" style="fill:#ffa500;"/>
   </g>
   <g id="patch_14">
    <path clip-path="url(#pf3c7644f65)" d="M 103.451311 226.314419 
L 105.940993 226.314419 
L 105.940993 226.314419 
L 103.451311 226.314419 
z
" style="fill:#ffa500;"/>
   </g>
   <g id="patch_15">
    <path clip-path="url(#pf3c7644f65)" d="M 106.563413 226.314419 
L 109.053095 226.314419 
L 109.053095 226.314419 
L 106.563413 226.314419 
z
" style="fill:#ffa500;"/>
   </g>
   <g id="patch_16">
    <path clip-path="url(#pf3c7644f65)" d="M 109.675516 226.314419 
L 112.165198 226.314419 
L 112.165198 226.314419 
L 109.675516 226.314419 
z
" style="fill:#ffa500;"/>
   </g>
   <g id="patch_17">
    <path clip-path="url(#pf3c7644f65)" d="M 112.787619 226.314419 
L 115.277301 226.314419 
L 115.277301 226.314419 
L 112.787619 226.314419 
z
" style="fill:#ffa500;"/>
   </g>
   <g id="patch_18">
    <path clip-path="url(#pf3c7644f65)" d="M 115.899721 226.314419 
L 118.389403 226.314419 
L 118.389403 226.314419 
L 115.899721 226.314419 
z
" style="fill:#ffa500;"/>
   </g>
   <g id="patch_19">
    <path clip-path="url(#pf3c7644f65)" d="M 119.011824 226.314419 
L 121.501506 226.314419 
L 121.501506 226.314419 
L 119.011824 226.314419 
z
" style="fill:#ffa500;"/>
   </g>
   <g id="patch_20">
    <path clip-path="url(#pf3c7644f65)" d="M 122.123926 226.314419 
L 124.613608 226.314419 
L 124.613608 226.314419 
L 122.123926 226.314419 
z
" style="fill:#ffa500;"/>
   </g>
   <g id="patch_21">
    <path clip-path="url(#pf3c7644f65)" d="M 125.236029 226.314419 
L 127.725711 226.314419 
L 127.725711 226.314419 
L 125.236029 226.314419 
z
" style="fill:#ffa500;"/>
   </g>
   <g id="patch_22">
    <path clip-path="url(#pf3c7644f65)" d="M 128.348132 226.314419 
L 130.837814 226.314419 
L 130.837814 226.314419 
L 128.348132 226.314419 
z
" style="fill:#ffa500;"/>
   </g>
   <g id="patch_23">
    <path clip-path="url(#pf3c7644f65)" d="M 131.460234 226.314419 
L 133.949916 226.314419 
L 133.949916 226.314419 
L 131.460234 226.314419 
z
" style="fill:#ffa500;"/>
   </g>
   <g id="patch_24">
    <path clip-path="url(#pf3c7644f65)" d="M 134.572337 226.314419 
L 137.062019 226.314419 
L 137.062019 226.314419 
L 134.572337 226.314419 
z
" style="fill:#ffa500;"/>
   </g>
   <g id="patch_25">
    <path clip-path="url(#pf3c7644f65)" d="M 137.684439 226.314419 
L 140.174122 226.314419 
L 140.174122 226.314419 
L 137.684439 226.314419 
z
" style="fill:#ffa500;"/>
   </g>
   <g id="patch_26">
    <path clip-path="url(#pf3c7644f65)" d="M 140.796542 226.314419 
L 143.286224 226.314419 
L 143.286224 226.314419 
L 140.796542 226.314419 
z
" style="fill:#ffa500;"/>
   </g>
   <g id="patch_27">
    <path clip-path="url(#pf3c7644f65)" d="M 143.908645 226.314419 
L 146.398327 226.314419 
L 146.398327 226.314419 
L 143.908645 226.314419 
z
" style="fill:#ffa500;"/>
   </g>
   <g id="patch_28">
    <path clip-path="url(#pf3c7644f65)" d="M 147.020747 226.314419 
L 149.510429 226.314419 
L 149.510429 226.314419 
L 147.020747 226.314419 
z
" style="fill:#ffa500;"/>
   </g>
   <g id="patch_29">
    <path clip-path="url(#pf3c7644f65)" d="M 150.13285 226.314419 
L 152.622532 226.314419 
L 152.622532 226.314419 
L 150.13285 226.314419 
z
" style="fill:#ffa500;"/>
   </g>
   <g id="patch_30">
    <path clip-path="url(#pf3c7644f65)" d="M 153.244953 226.314419 
L 155.734635 226.314419 
L 155.734635 226.314419 
L 153.244953 226.314419 
z
" style="fill:#ffa500;"/>
   </g>
   <g id="patch_31">
    <path clip-path="url(#pf3c7644f65)" d="M 156.357055 226.314419 
L 158.846737 226.314419 
L 158.846737 226.314419 
L 156.357055 226.314419 
z
" style="fill:#ffa500;"/>
   </g>
   <g id="patch_32">
    <path clip-path="url(#pf3c7644f65)" d="M 159.469158 226.314419 
L 161.95884 226.314419 
L 161.95884 226.314419 
L 159.469158 226.314419 
z
" style="fill:#ffa500;"/>
   </g>
   <g id="patch_33">
    <path clip-path="url(#pf3c7644f65)" d="M 162.58126 226.314419 
L 165.070943 226.314419 
L 165.070943 226.314419 
L 162.58126 226.314419 
z
" style="fill:#ffa500;"/>
   </g>
   <g id="patch_34">
    <path clip-path="url(#pf3c7644f65)" d="M 165.693363 226.314419 
L 168.183045 226.314419 
L 168.183045 226.314419 
L 165.693363 226.314419 
z
" style="fill:#ffa500;"/>
   </g>
   <g id="patch_35">
    <path clip-path="url(#pf3c7644f65)" d="M 168.805466 226.314419 
L 171.295148 226.314419 
L 171.295148 226.314419 
L 168.805466 226.314419 
z
" style="fill:#ffa500;"/>
   </g>
   <g id="patch_36">
    <path clip-path="url(#pf3c7644f65)" d="M 171.917568 226.314419 
L 174.40725 226.314419 
L 174.40725 226.314419 
L 171.917568 226.314419 
z
" style="fill:#ffa500;"/>
   </g>
   <g id="patch_37">
    <path clip-path="url(#pf3c7644f65)" d="M 175.029671 226.314419 
L 177.519353 226.314419 
L 177.519353 226.314419 
L 175.029671 226.314419 
z
" style="fill:#ffa500;"/>
   </g>
   <g id="patch_38">
    <path clip-path="url(#pf3c7644f65)" d="M 178.141774 226.314419 
L 180.631456 226.314419 
L 180.631456 226.314419 
L 178.141774 226.314419 
z
" style="fill:#ffa500;"/>
   </g>
   <g id="patch_39">
    <path clip-path="url(#pf3c7644f65)" d="M 181.253876 226.314419 
L 183.743558 226.314419 
L 183.743558 226.314419 
L 181.253876 226.314419 
z
" style="fill:#ffa500;"/>
   </g>
   <g id="patch_40">
    <path clip-path="url(#pf3c7644f65)" d="M 184.365979 226.314419 
L 186.855661 226.314419 
L 186.855661 226.314419 
L 184.365979 226.314419 
z
" style="fill:#ffa500;"/>
   </g>
   <g id="patch_41">
    <path clip-path="url(#pf3c7644f65)" d="M 187.478081 226.314419 
L 189.967764 226.314419 
L 189.967764 226.314419 
L 187.478081 226.314419 
z
" style="fill:#ffa500;"/>
   </g>
   <g id="patch_42">
    <path clip-path="url(#pf3c7644f65)" d="M 190.590184 226.314419 
L 193.079866 226.314419 
L 193.079866 226.314419 
L 190.590184 226.314419 
z
" style="fill:#ffa500;"/>
   </g>
   <g id="patch_43">
    <path clip-path="url(#pf3c7644f65)" d="M 193.702287 226.314419 
L 196.191969 226.314419 
L 196.191969 226.314419 
L 193.702287 226.314419 
z
" style="fill:#ffa500;"/>
   </g>
   <g id="patch_44">
    <path clip-path="url(#pf3c7644f65)" d="M 196.814389 226.314419 
L 199.304071 226.314419 
L 199.304071 226.314419 
L 196.814389 226.314419 
z
" style="fill:#ffa500;"/>
   </g>
   <g id="patch_45">
    <path clip-path="url(#pf3c7644f65)" d="M 199.926492 226.314419 
L 202.416174 226.314419 
L 202.416174 225.728372 
L 199.926492 225.728372 
z
" style="fill:#ffa500;"/>
   </g>
   <g id="patch_46">
    <path clip-path="url(#pf3c7644f65)" d="M 203.038595 226.314419 
L 205.528277 226.314419 
L 205.528277 225.728372 
L 203.038595 225.728372 
z
" style="fill:#ffa500;"/>
   </g>
   <g id="patch_47">
    <path clip-path="url(#pf3c7644f65)" d="M 206.150697 226.314419 
L 208.640379 226.314419 
L 208.640379 226.314419 
L 206.150697 226.314419 
z
" style="fill:#ffa500;"/>
   </g>
   <g id="patch_48">
    <path clip-path="url(#pf3c7644f65)" d="M 209.2628 226.314419 
L 211.752482 226.314419 
L 211.752482 225.142326 
L 209.2628 225.142326 
z
" style="fill:#ffa500;"/>
   </g>
   <g id="patch_49">
    <path clip-path="url(#pf3c7644f65)" d="M 212.374902 226.314419 
L 214.864584 226.314419 
L 214.864584 226.314419 
L 212.374902 226.314419 
z
" style="fill:#ffa500;"/>
   </g>
   <g id="patch_50">
    <path clip-path="url(#pf3c7644f65)" d="M 215.487005 226.314419 
L 217.976687 226.314419 
L 217.976687 226.314419 
L 215.487005 226.314419 
z
" style="fill:#ffa500;"/>
   </g>
   <g id="patch_51">
    <path clip-path="url(#pf3c7644f65)" d="M 218.599108 226.314419 
L 221.08879 226.314419 
L 221.08879 224.556279 
L 218.599108 224.556279 
z
" style="fill:#ffa500;"/>
   </g>
   <g id="patch_52">
    <path clip-path="url(#pf3c7644f65)" d="M 221.71121 226.314419 
L 224.200892 226.314419 
L 224.200892 224.556279 
L 221.71121 224.556279 
z
" style="fill:#ffa500;"/>
   </g>
   <g id="patch_53">
    <path clip-path="url(#pf3c7644f65)" d="M 224.823313 226.314419 
L 227.312995 226.314419 
L 227.312995 221.626047 
L 224.823313 221.626047 
z
" style="fill:#ffa500;"/>
   </g>
   <g id="patch_54">
    <path clip-path="url(#pf3c7644f65)" d="M 227.935416 226.314419 
L 230.425098 226.314419 
L 230.425098 225.142326 
L 227.935416 225.142326 
z
" style="fill:#ffa500;"/>
   </g>
   <g id="patch_55">
    <path clip-path="url(#pf3c7644f65)" d="M 231.047518 226.314419 
L 233.5372 226.314419 
L 233.5372 226.314419 
L 231.047518 226.314419 
z
" style="fill:#ffa500;"/>
   </g>
   <g id="patch_56">
    <path clip-path="url(#pf3c7644f65)" d="M 234.159621 226.314419 
L 236.649303 226.314419 
L 236.649303 211.663256 
L 234.159621 211.663256 
z
" style="fill:#ffa500;"/>
   </g>
   <g id="patch_57">
    <path clip-path="url(#pf3c7644f65)" d="M 237.271723 226.314419 
L 239.761405 226.314419 
L 239.761405 220.453953 
L 237.271723 220.453953 
z
" style="fill:#ffa500;"/>
   </g>
   <g id="patch_58">
    <path clip-path="url(#pf3c7644f65)" d="M 240.383826 226.314419 
L 242.873508 226.314419 
L 242.873508 226.314419 
L 240.383826 226.314419 
z
" style="fill:#ffa500;"/>
   </g>
   <g id="patch_59">
    <path clip-path="url(#pf3c7644f65)" d="M 243.495929 226.314419 
L 245.985611 226.314419 
L 245.985611 202.872558 
L 243.495929 202.872558 
z
" style="fill:#ffa500;"/>
   </g>
   <g id="patch_60">
    <path clip-path="url(#pf3c7644f65)" d="M 246.608031 226.314419 
L 249.097713 226.314419 
L 249.097713 187.635349 
L 246.608031 187.635349 
z
" style="fill:#ffa500;"/>
   </g>
   <g id="patch_61">
    <path clip-path="url(#pf3c7644f65)" d="M 249.720134 226.314419 
L 252.209816 226.314419 
L 252.209816 226.314419 
L 249.720134 226.314419 
z
" style="fill:#ffa500;"/>
   </g>
   <g id="patch_62">
    <path clip-path="url(#pf3c7644f65)" d="M 252.832236 226.314419 
L 255.321919 226.314419 
L 255.321919 209.31907 
L 252.832236 209.31907 
z
" style="fill:#ffa500;"/>
   </g>
   <g id="patch_63">
    <path clip-path="url(#pf3c7644f65)" d="M 255.944339 226.314419 
L 258.434021 226.314419 
L 258.434021 194.08186 
L 255.944339 194.08186 
z
" style="fill:#ffa500;"/>
   </g>
   <g id="patch_64">
    <path clip-path="url(#pf3c7644f65)" d="M 259.056442 226.314419 
L 261.546124 226.314419 
L 261.546124 206.974884 
L 259.056442 206.974884 
z
" style="fill:#ffa500;"/>
   </g>
   <g id="patch_65">
    <path clip-path="url(#pf3c7644f65)" d="M 262.168544 226.314419 
L 264.658226 226.314419 
L 264.658226 199.942326 
L 262.168544 199.942326 
z
" style="fill:#ffa500;"/>
   </g>
   <g id="patch_66">
    <path clip-path="url(#pf3c7644f65)" d="M 265.280647 226.314419 
L 267.770329 226.314419 
L 267.770329 169.467907 
L 265.280647 169.467907 
z
" style="fill:#ffa500;"/>
   </g>
   <g id="patch_67">
    <path clip-path="url(#pf3c7644f65)" d="M 268.39275 226.314419 
L 270.882432 226.314419 
L 270.882432 158.333023 
L 268.39275 158.333023 
z
" style="fill:#ffa500;"/>
   </g>
   <g id="patch_68">
    <path clip-path="url(#pf3c7644f65)" d="M 271.504852 226.314419 
L 273.994534 226.314419 
L 273.994534 173.570233 
L 271.504852 173.570233 
z
" style="fill:#ffa500;"/>
   </g>
   <g id="patch_69">
    <path clip-path="url(#pf3c7644f65)" d="M 274.616955 226.314419 
L 277.106637 226.314419 
L 277.106637 54.016744 
L 274.616955 54.016744 
z
" style="fill:#ffa500;"/>
   </g>
   <g id="patch_70">
    <path clip-path="url(#pf3c7644f65)" d="M 277.729057 226.314419 
L 280.21874 226.314419 
L 280.21874 172.39814 
L 277.729057 172.39814 
z
" style="fill:#ffa500;"/>
   </g>
   <g id="patch_71">
    <path clip-path="url(#pf3c7644f65)" d="M 280.84116 226.314419 
L 283.330842 226.314419 
L 283.330842 166.537674 
L 280.84116 166.537674 
z
" style="fill:#ffa500;"/>
   </g>
   <g id="patch_72">
    <path clip-path="url(#pf3c7644f65)" d="M 283.953263 226.314419 
L 286.442945 226.314419 
L 286.442945 129.616744 
L 283.953263 129.616744 
z
" style="fill:#ffa500;"/>
   </g>
   <g id="patch_73">
    <path clip-path="url(#pf3c7644f65)" d="M 287.065365 226.314419 
L 289.555047 226.314419 
L 289.555047 118.48186 
L 287.065365 118.48186 
z
" style="fill:#ffa500;"/>
   </g>
   <g id="patch_74">
    <path clip-path="url(#pf3c7644f65)" d="M 290.177468 226.314419 
L 292.66715 226.314419 
L 292.66715 196.426047 
L 290.177468 196.426047 
z
" style="fill:#ffa500;"/>
   </g>
   <g id="patch_75">
    <path clip-path="url(#pf3c7644f65)" d="M 293.289571 226.314419 
L 295.779253 226.314419 
L 295.779253 92.695814 
L 293.289571 92.695814 
z
" style="fill:#ffa500;"/>
   </g>
   <g id="patch_76">
    <path clip-path="url(#pf3c7644f65)" d="M 296.401673 226.314419 
L 298.891355 226.314419 
L 298.891355 160.091163 
L 296.401673 160.091163 
z
" style="fill:#ffa500;"/>
   </g>
   <g id="patch_77">
    <path clip-path="url(#pf3c7644f65)" d="M 299.513776 226.314419 
L 302.003458 226.314419 
L 302.003458 168.88186 
L 299.513776 168.88186 
z
" style="fill:#ffa500;"/>
   </g>
   <g id="patch_78">
    <path clip-path="url(#pf3c7644f65)" d="M 302.625878 226.314419 
L 305.115561 226.314419 
L 305.115561 126.100465 
L 302.625878 126.100465 
z
" style="fill:#ffa500;"/>
   </g>
   <g id="patch_79">
    <path clip-path="url(#pf3c7644f65)" d="M 305.737981 226.314419 
L 308.227663 226.314419 
L 308.227663 147.19814 
L 305.737981 147.19814 
z
" style="fill:#ffa500;"/>
   </g>
   <g id="patch_80">
    <path clip-path="url(#pf3c7644f65)" d="M 308.850084 226.314419 
L 311.339766 226.314419 
L 311.339766 110.863256 
L 308.850084 110.863256 
z
" style="fill:#ffa500;"/>
   </g>
   <g id="patch_81">
    <path clip-path="url(#pf3c7644f65)" d="M 311.962186 226.314419 
L 314.451868 226.314419 
L 314.451868 70.426047 
L 311.962186 70.426047 
z
" style="fill:#ffa500;"/>
   </g>
   <g id="patch_82">
    <path clip-path="url(#pf3c7644f65)" d="M 315.074289 226.314419 
L 317.563971 226.314419 
L 317.563971 238.035349 
L 315.074289 238.035349 
z
" style="fill:#ffa500;"/>
   </g>
   <g id="patch_83">
    <path clip-path="url(#pf3c7644f65)" d="M 318.186392 226.314419 
L 320.676074 226.314419 
L 320.676074 147.784186 
L 318.186392 147.784186 
z
" style="fill:#ffa500;"/>
   </g>
   <g id="patch_84">
    <path clip-path="url(#pf3c7644f65)" d="M 321.298494 226.314419 
L 323.788176 226.314419 
L 323.788176 136.063256 
L 321.298494 136.063256 
z
" style="fill:#ffa500;"/>
   </g>
   <g id="patch_85">
    <path clip-path="url(#pf3c7644f65)" d="M 324.410597 226.314419 
L 326.900279 226.314419 
L 326.900279 141.923721 
L 324.410597 141.923721 
z
" style="fill:#ffa500;"/>
   </g>
   <g id="patch_86">
    <path clip-path="url(#pf3c7644f65)" d="M 327.522699 226.314419 
L 330.012381 226.314419 
L 330.012381 181.188837 
L 327.522699 181.188837 
z
" style="fill:#ffa500;"/>
   </g>
   <g id="patch_87">
    <path clip-path="url(#pf3c7644f65)" d="M 330.634802 226.314419 
L 333.124484 226.314419 
L 333.124484 224.556279 
L 330.634802 224.556279 
z
" style="fill:#ffa500;"/>
   </g>
   <g id="patch_88">
    <path clip-path="url(#pf3c7644f65)" d="M 333.746905 226.314419 
L 336.236587 226.314419 
L 336.236587 44.64 
L 333.746905 44.64 
z
" style="fill:#ffa500;"/>
   </g>
   <g id="patch_89">
    <path clip-path="url(#pf3c7644f65)" d="M 336.859007 226.314419 
L 339.348689 226.314419 
L 339.348689 166.537674 
L 336.859007 166.537674 
z
" style="fill:#ffa500;"/>
   </g>
   <g id="patch_90">
    <path clip-path="url(#pf3c7644f65)" d="M 339.97111 226.314419 
L 342.460792 226.314419 
L 342.460792 166.537674 
L 339.97111 166.537674 
z
" style="fill:#ffa500;"/>
   </g>
   <g id="patch_91">
    <path clip-path="url(#pf3c7644f65)" d="M 343.083212 226.314419 
L 345.572895 226.314419 
L 345.572895 166.537674 
L 343.083212 166.537674 
z
" style="fill:#ffa500;"/>
   </g>
   <g id="patch_92">
    <path clip-path="url(#pf3c7644f65)" d="M 346.195315 226.314419 
L 348.684997 226.314419 
L 348.684997 163.607442 
L 346.195315 163.607442 
z
" style="fill:#ffa500;"/>
   </g>
   <g id="patch_93">
    <path clip-path="url(#pf3c7644f65)" d="M 349.307418 226.314419 
L 351.7971 226.314419 
L 351.7971 141.923721 
L 349.307418 141.923721 
z
" style="fill:#ffa500;"/>
   </g>
   <g id="patch_94">
    <path clip-path="url(#pf3c7644f65)" d="M 352.41952 226.314419 
L 354.909202 226.314419 
L 354.909202 151.886512 
L 352.41952 151.886512 
z
" style="fill:#ffa500;"/>
   </g>
   <g id="patch_95">
    <path clip-path="url(#pf3c7644f65)" d="M 355.531623 226.314419 
L 358.021305 226.314419 
L 358.021305 114.965581 
L 355.531623 114.965581 
z
" style="fill:#ffa500;"/>
   </g>
   <g id="patch_96">
    <path clip-path="url(#pf3c7644f65)" d="M 358.643726 226.314419 
L 361.133408 226.314419 
L 361.133408 143.68186 
L 358.643726 143.68186 
z
" style="fill:#ffa500;"/>
   </g>
   <g id="patch_97">
    <path clip-path="url(#pf3c7644f65)" d="M 361.755828 226.314419 
L 364.24551 226.314419 
L 364.24551 112.035349 
L 361.755828 112.035349 
z
" style="fill:#ffa500;"/>
   </g>
   <g id="patch_98">
    <path clip-path="url(#pf3c7644f65)" d="M 364.867931 226.314419 
L 367.357613 226.314419 
L 367.357613 246.24 
L 364.867931 246.24 
z
" style="fill:#ffa500;"/>
   </g>
   <g id="patch_99">
    <path clip-path="url(#pf3c7644f65)" d="M 367.980033 226.314419 
L 370.469716 226.314419 
L 370.469716 155.402791 
L 367.980033 155.402791 
z
" style="fill:#ffa500;"/>
   </g>
   <g id="patch_100">
    <path clip-path="url(#pf3c7644f65)" d="M 371.092136 226.314419 
L 373.581818 226.314419 
L 373.581818 160.091163 
L 371.092136 160.091163 
z
" style="fill:#ffa500;"/>
   </g>
   <g id="matplotlib.axis_1">
    <g id="xtick_1">
     <g id="line2d_1">
      <defs>
       <path d="M 0 0 
L 0 3.5 
" id="m593ecabc7b" style="stroke:#000000;stroke-width:0.8;"/>
      </defs>
      <g>
       <use style="stroke:#000000;stroke-width:0.8;" x="70.463023" xlink:href="#m593ecabc7b" y="256.32"/>
      </g>
     </g>
     <g id="text_1">
      <!-- 1/23/20 -->
      <defs>
       <path d="M 12.40625 8.296875 
L 28.515625 8.296875 
L 28.515625 63.921875 
L 10.984375 60.40625 
L 10.984375 69.390625 
L 28.421875 72.90625 
L 38.28125 72.90625 
L 38.28125 8.296875 
L 54.390625 8.296875 
L 54.390625 0 
L 12.40625 0 
z
" id="DejaVuSans-49"/>
       <path d="M 25.390625 72.90625 
L 33.6875 72.90625 
L 8.296875 -9.28125 
L 0 -9.28125 
z
" id="DejaVuSans-47"/>
       <path d="M 19.1875 8.296875 
L 53.609375 8.296875 
L 53.609375 0 
L 7.328125 0 
L 7.328125 8.296875 
Q 12.9375 14.109375 22.625 23.890625 
Q 32.328125 33.6875 34.8125 36.53125 
Q 39.546875 41.84375 41.421875 45.53125 
Q 43.3125 49.21875 43.3125 52.78125 
Q 43.3125 58.59375 39.234375 62.25 
Q 35.15625 65.921875 28.609375 65.921875 
Q 23.96875 65.921875 18.8125 64.3125 
Q 13.671875 62.703125 7.8125 59.421875 
L 7.8125 69.390625 
Q 13.765625 71.78125 18.9375 73 
Q 24.125 74.21875 28.421875 74.21875 
Q 39.75 74.21875 46.484375 68.546875 
Q 53.21875 62.890625 53.21875 53.421875 
Q 53.21875 48.921875 51.53125 44.890625 
Q 49.859375 40.875 45.40625 35.40625 
Q 44.1875 33.984375 37.640625 27.21875 
Q 31.109375 20.453125 19.1875 8.296875 
z
" id="DejaVuSans-50"/>
       <path d="M 40.578125 39.3125 
Q 47.65625 37.796875 51.625 33 
Q 55.609375 28.21875 55.609375 21.1875 
Q 55.609375 10.40625 48.1875 4.484375 
Q 40.765625 -1.421875 27.09375 -1.421875 
Q 22.515625 -1.421875 17.65625 -0.515625 
Q 12.796875 0.390625 7.625 2.203125 
L 7.625 11.71875 
Q 11.71875 9.328125 16.59375 8.109375 
Q 21.484375 6.890625 26.8125 6.890625 
Q 36.078125 6.890625 40.9375 10.546875 
Q 45.796875 14.203125 45.796875 21.1875 
Q 45.796875 27.640625 41.28125 31.265625 
Q 36.765625 34.90625 28.71875 34.90625 
L 20.21875 34.90625 
L 20.21875 43.015625 
L 29.109375 43.015625 
Q 36.375 43.015625 40.234375 45.921875 
Q 44.09375 48.828125 44.09375 54.296875 
Q 44.09375 59.90625 40.109375 62.90625 
Q 36.140625 65.921875 28.71875 65.921875 
Q 24.65625 65.921875 20.015625 65.03125 
Q 15.375 64.15625 9.8125 62.3125 
L 9.8125 71.09375 
Q 15.4375 72.65625 20.34375 73.4375 
Q 25.25 74.21875 29.59375 74.21875 
Q 40.828125 74.21875 47.359375 69.109375 
Q 53.90625 64.015625 53.90625 55.328125 
Q 53.90625 49.265625 50.4375 45.09375 
Q 46.96875 40.921875 40.578125 39.3125 
z
" id="DejaVuSans-51"/>
       <path d="M 31.78125 66.40625 
Q 24.171875 66.40625 20.328125 58.90625 
Q 16.5 51.421875 16.5 36.375 
Q 16.5 21.390625 20.328125 13.890625 
Q 24.171875 6.390625 31.78125 6.390625 
Q 39.453125 6.390625 43.28125 13.890625 
Q 47.125 21.390625 47.125 36.375 
Q 47.125 51.421875 43.28125 58.90625 
Q 39.453125 66.40625 31.78125 66.40625 
z
M 31.78125 74.21875 
Q 44.046875 74.21875 50.515625 64.515625 
Q 56.984375 54.828125 56.984375 36.375 
Q 56.984375 17.96875 50.515625 8.265625 
Q 44.046875 -1.421875 31.78125 -1.421875 
Q 19.53125 -1.421875 13.0625 8.265625 
Q 6.59375 17.96875 6.59375 36.375 
Q 6.59375 54.828125 13.0625 64.515625 
Q 19.53125 74.21875 31.78125 74.21875 
z
" id="DejaVuSans-48"/>
      </defs>
      <g transform="translate(72.118648 286.45)rotate(-90)scale(0.06 -0.06)">
       <use xlink:href="#DejaVuSans-49"/>
       <use x="63.623047" xlink:href="#DejaVuSans-47"/>
       <use x="97.314453" xlink:href="#DejaVuSans-50"/>
       <use x="160.9375" xlink:href="#DejaVuSans-51"/>
       <use x="224.560547" xlink:href="#DejaVuSans-47"/>
       <use x="258.251953" xlink:href="#DejaVuSans-50"/>
       <use x="321.875" xlink:href="#DejaVuSans-48"/>
      </g>
     </g>
    </g>
    <g id="xtick_2">
     <g id="line2d_2">
      <g>
       <use style="stroke:#000000;stroke-width:0.8;" x="73.575125" xlink:href="#m593ecabc7b" y="256.32"/>
      </g>
     </g>
    </g>
    <g id="xtick_3">
     <g id="line2d_3">
      <g>
       <use style="stroke:#000000;stroke-width:0.8;" x="76.687228" xlink:href="#m593ecabc7b" y="256.32"/>
      </g>
     </g>
    </g>
    <g id="xtick_4">
     <g id="line2d_4">
      <g>
       <use style="stroke:#000000;stroke-width:0.8;" x="79.799331" xlink:href="#m593ecabc7b" y="256.32"/>
      </g>
     </g>
     <g id="text_2">
      <!-- 1/26/20 -->
      <defs>
       <path d="M 33.015625 40.375 
Q 26.375 40.375 22.484375 35.828125 
Q 18.609375 31.296875 18.609375 23.390625 
Q 18.609375 15.53125 22.484375 10.953125 
Q 26.375 6.390625 33.015625 6.390625 
Q 39.65625 6.390625 43.53125 10.953125 
Q 47.40625 15.53125 47.40625 23.390625 
Q 47.40625 31.296875 43.53125 35.828125 
Q 39.65625 40.375 33.015625 40.375 
z
M 52.59375 71.296875 
L 52.59375 62.3125 
Q 48.875 64.0625 45.09375 64.984375 
Q 41.3125 65.921875 37.59375 65.921875 
Q 27.828125 65.921875 22.671875 59.328125 
Q 17.53125 52.734375 16.796875 39.40625 
Q 19.671875 43.65625 24.015625 45.921875 
Q 28.375 48.1875 33.59375 48.1875 
Q 44.578125 48.1875 50.953125 41.515625 
Q 57.328125 34.859375 57.328125 23.390625 
Q 57.328125 12.15625 50.6875 5.359375 
Q 44.046875 -1.421875 33.015625 -1.421875 
Q 20.359375 -1.421875 13.671875 8.265625 
Q 6.984375 17.96875 6.984375 36.375 
Q 6.984375 53.65625 15.1875 63.9375 
Q 23.390625 74.21875 37.203125 74.21875 
Q 40.921875 74.21875 44.703125 73.484375 
Q 48.484375 72.75 52.59375 71.296875 
z
" id="DejaVuSans-54"/>
      </defs>
      <g transform="translate(81.454956 286.45)rotate(-90)scale(0.06 -0.06)">
       <use xlink:href="#DejaVuSans-49"/>
       <use x="63.623047" xlink:href="#DejaVuSans-47"/>
       <use x="97.314453" xlink:href="#DejaVuSans-50"/>
       <use x="160.9375" xlink:href="#DejaVuSans-54"/>
       <use x="224.560547" xlink:href="#DejaVuSans-47"/>
       <use x="258.251953" xlink:href="#DejaVuSans-50"/>
       <use x="321.875" xlink:href="#DejaVuSans-48"/>
      </g>
     </g>
    </g>
    <g id="xtick_5">
     <g id="line2d_5">
      <g>
       <use style="stroke:#000000;stroke-width:0.8;" x="82.911433" xlink:href="#m593ecabc7b" y="256.32"/>
      </g>
     </g>
    </g>
    <g id="xtick_6">
     <g id="line2d_6">
      <g>
       <use style="stroke:#000000;stroke-width:0.8;" x="86.023536" xlink:href="#m593ecabc7b" y="256.32"/>
      </g>
     </g>
    </g>
    <g id="xtick_7">
     <g id="line2d_7">
      <g>
       <use style="stroke:#000000;stroke-width:0.8;" x="89.135639" xlink:href="#m593ecabc7b" y="256.32"/>
      </g>
     </g>
     <g id="text_3">
      <!-- 1/29/20 -->
      <defs>
       <path d="M 10.984375 1.515625 
L 10.984375 10.5 
Q 14.703125 8.734375 18.5 7.8125 
Q 22.3125 6.890625 25.984375 6.890625 
Q 35.75 6.890625 40.890625 13.453125 
Q 46.046875 20.015625 46.78125 33.40625 
Q 43.953125 29.203125 39.59375 26.953125 
Q 35.25 24.703125 29.984375 24.703125 
Q 19.046875 24.703125 12.671875 31.3125 
Q 6.296875 37.9375 6.296875 49.421875 
Q 6.296875 60.640625 12.9375 67.421875 
Q 19.578125 74.21875 30.609375 74.21875 
Q 43.265625 74.21875 49.921875 64.515625 
Q 56.59375 54.828125 56.59375 36.375 
Q 56.59375 19.140625 48.40625 8.859375 
Q 40.234375 -1.421875 26.421875 -1.421875 
Q 22.703125 -1.421875 18.890625 -0.6875 
Q 15.09375 0.046875 10.984375 1.515625 
z
M 30.609375 32.421875 
Q 37.25 32.421875 41.125 36.953125 
Q 45.015625 41.5 45.015625 49.421875 
Q 45.015625 57.28125 41.125 61.84375 
Q 37.25 66.40625 30.609375 66.40625 
Q 23.96875 66.40625 20.09375 61.84375 
Q 16.21875 57.28125 16.21875 49.421875 
Q 16.21875 41.5 20.09375 36.953125 
Q 23.96875 32.421875 30.609375 32.421875 
z
" id="DejaVuSans-57"/>
      </defs>
      <g transform="translate(90.791264 286.45)rotate(-90)scale(0.06 -0.06)">
       <use xlink:href="#DejaVuSans-49"/>
       <use x="63.623047" xlink:href="#DejaVuSans-47"/>
       <use x="97.314453" xlink:href="#DejaVuSans-50"/>
       <use x="160.9375" xlink:href="#DejaVuSans-57"/>
       <use x="224.560547" xlink:href="#DejaVuSans-47"/>
       <use x="258.251953" xlink:href="#DejaVuSans-50"/>
       <use x="321.875" xlink:href="#DejaVuSans-48"/>
      </g>
     </g>
    </g>
    <g id="xtick_8">
     <g id="line2d_8">
      <g>
       <use style="stroke:#000000;stroke-width:0.8;" x="92.247741" xlink:href="#m593ecabc7b" y="256.32"/>
      </g>
     </g>
    </g>
    <g id="xtick_9">
     <g id="line2d_9">
      <g>
       <use style="stroke:#000000;stroke-width:0.8;" x="95.359844" xlink:href="#m593ecabc7b" y="256.32"/>
      </g>
     </g>
    </g>
    <g id="xtick_10">
     <g id="line2d_10">
      <g>
       <use style="stroke:#000000;stroke-width:0.8;" x="98.471946" xlink:href="#m593ecabc7b" y="256.32"/>
      </g>
     </g>
     <g id="text_4">
      <!-- 2/1/20 -->
      <g transform="translate(100.127571 282.6325)rotate(-90)scale(0.06 -0.06)">
       <use xlink:href="#DejaVuSans-50"/>
       <use x="63.623047" xlink:href="#DejaVuSans-47"/>
       <use x="97.314453" xlink:href="#DejaVuSans-49"/>
       <use x="160.9375" xlink:href="#DejaVuSans-47"/>
       <use x="194.628906" xlink:href="#DejaVuSans-50"/>
       <use x="258.251953" xlink:href="#DejaVuSans-48"/>
      </g>
     </g>
    </g>
    <g id="xtick_11">
     <g id="line2d_11">
      <g>
       <use style="stroke:#000000;stroke-width:0.8;" x="101.584049" xlink:href="#m593ecabc7b" y="256.32"/>
      </g>
     </g>
    </g>
    <g id="xtick_12">
     <g id="line2d_12">
      <g>
       <use style="stroke:#000000;stroke-width:0.8;" x="104.696152" xlink:href="#m593ecabc7b" y="256.32"/>
      </g>
     </g>
    </g>
    <g id="xtick_13">
     <g id="line2d_13">
      <g>
       <use style="stroke:#000000;stroke-width:0.8;" x="107.808254" xlink:href="#m593ecabc7b" y="256.32"/>
      </g>
     </g>
     <g id="text_5">
      <!-- 2/4/20 -->
      <defs>
       <path d="M 37.796875 64.3125 
L 12.890625 25.390625 
L 37.796875 25.390625 
z
M 35.203125 72.90625 
L 47.609375 72.90625 
L 47.609375 25.390625 
L 58.015625 25.390625 
L 58.015625 17.1875 
L 47.609375 17.1875 
L 47.609375 0 
L 37.796875 0 
L 37.796875 17.1875 
L 4.890625 17.1875 
L 4.890625 26.703125 
z
" id="DejaVuSans-52"/>
      </defs>
      <g transform="translate(109.463879 282.6325)rotate(-90)scale(0.06 -0.06)">
       <use xlink:href="#DejaVuSans-50"/>
       <use x="63.623047" xlink:href="#DejaVuSans-47"/>
       <use x="97.314453" xlink:href="#DejaVuSans-52"/>
       <use x="160.9375" xlink:href="#DejaVuSans-47"/>
       <use x="194.628906" xlink:href="#DejaVuSans-50"/>
       <use x="258.251953" xlink:href="#DejaVuSans-48"/>
      </g>
     </g>
    </g>
    <g id="xtick_14">
     <g id="line2d_14">
      <g>
       <use style="stroke:#000000;stroke-width:0.8;" x="110.920357" xlink:href="#m593ecabc7b" y="256.32"/>
      </g>
     </g>
    </g>
    <g id="xtick_15">
     <g id="line2d_15">
      <g>
       <use style="stroke:#000000;stroke-width:0.8;" x="114.03246" xlink:href="#m593ecabc7b" y="256.32"/>
      </g>
     </g>
    </g>
    <g id="xtick_16">
     <g id="line2d_16">
      <g>
       <use style="stroke:#000000;stroke-width:0.8;" x="117.144562" xlink:href="#m593ecabc7b" y="256.32"/>
      </g>
     </g>
     <g id="text_6">
      <!-- 2/7/20 -->
      <defs>
       <path d="M 8.203125 72.90625 
L 55.078125 72.90625 
L 55.078125 68.703125 
L 28.609375 0 
L 18.3125 0 
L 43.21875 64.59375 
L 8.203125 64.59375 
z
" id="DejaVuSans-55"/>
      </defs>
      <g transform="translate(118.800187 282.6325)rotate(-90)scale(0.06 -0.06)">
       <use xlink:href="#DejaVuSans-50"/>
       <use x="63.623047" xlink:href="#DejaVuSans-47"/>
       <use x="97.314453" xlink:href="#DejaVuSans-55"/>
       <use x="160.9375" xlink:href="#DejaVuSans-47"/>
       <use x="194.628906" xlink:href="#DejaVuSans-50"/>
       <use x="258.251953" xlink:href="#DejaVuSans-48"/>
      </g>
     </g>
    </g>
    <g id="xtick_17">
     <g id="line2d_17">
      <g>
       <use style="stroke:#000000;stroke-width:0.8;" x="120.256665" xlink:href="#m593ecabc7b" y="256.32"/>
      </g>
     </g>
    </g>
    <g id="xtick_18">
     <g id="line2d_18">
      <g>
       <use style="stroke:#000000;stroke-width:0.8;" x="123.368767" xlink:href="#m593ecabc7b" y="256.32"/>
      </g>
     </g>
    </g>
    <g id="xtick_19">
     <g id="line2d_19">
      <g>
       <use style="stroke:#000000;stroke-width:0.8;" x="126.48087" xlink:href="#m593ecabc7b" y="256.32"/>
      </g>
     </g>
     <g id="text_7">
      <!-- 2/10/20 -->
      <g transform="translate(128.136495 286.45)rotate(-90)scale(0.06 -0.06)">
       <use xlink:href="#DejaVuSans-50"/>
       <use x="63.623047" xlink:href="#DejaVuSans-47"/>
       <use x="97.314453" xlink:href="#DejaVuSans-49"/>
       <use x="160.9375" xlink:href="#DejaVuSans-48"/>
       <use x="224.560547" xlink:href="#DejaVuSans-47"/>
       <use x="258.251953" xlink:href="#DejaVuSans-50"/>
       <use x="321.875" xlink:href="#DejaVuSans-48"/>
      </g>
     </g>
    </g>
    <g id="xtick_20">
     <g id="line2d_20">
      <g>
       <use style="stroke:#000000;stroke-width:0.8;" x="129.592973" xlink:href="#m593ecabc7b" y="256.32"/>
      </g>
     </g>
    </g>
    <g id="xtick_21">
     <g id="line2d_21">
      <g>
       <use style="stroke:#000000;stroke-width:0.8;" x="132.705075" xlink:href="#m593ecabc7b" y="256.32"/>
      </g>
     </g>
    </g>
    <g id="xtick_22">
     <g id="line2d_22">
      <g>
       <use style="stroke:#000000;stroke-width:0.8;" x="135.817178" xlink:href="#m593ecabc7b" y="256.32"/>
      </g>
     </g>
     <g id="text_8">
      <!-- 2/13/20 -->
      <g transform="translate(137.472803 286.45)rotate(-90)scale(0.06 -0.06)">
       <use xlink:href="#DejaVuSans-50"/>
       <use x="63.623047" xlink:href="#DejaVuSans-47"/>
       <use x="97.314453" xlink:href="#DejaVuSans-49"/>
       <use x="160.9375" xlink:href="#DejaVuSans-51"/>
       <use x="224.560547" xlink:href="#DejaVuSans-47"/>
       <use x="258.251953" xlink:href="#DejaVuSans-50"/>
       <use x="321.875" xlink:href="#DejaVuSans-48"/>
      </g>
     </g>
    </g>
    <g id="xtick_23">
     <g id="line2d_23">
      <g>
       <use style="stroke:#000000;stroke-width:0.8;" x="138.929281" xlink:href="#m593ecabc7b" y="256.32"/>
      </g>
     </g>
    </g>
    <g id="xtick_24">
     <g id="line2d_24">
      <g>
       <use style="stroke:#000000;stroke-width:0.8;" x="142.041383" xlink:href="#m593ecabc7b" y="256.32"/>
      </g>
     </g>
    </g>
    <g id="xtick_25">
     <g id="line2d_25">
      <g>
       <use style="stroke:#000000;stroke-width:0.8;" x="145.153486" xlink:href="#m593ecabc7b" y="256.32"/>
      </g>
     </g>
     <g id="text_9">
      <!-- 2/16/20 -->
      <g transform="translate(146.809111 286.45)rotate(-90)scale(0.06 -0.06)">
       <use xlink:href="#DejaVuSans-50"/>
       <use x="63.623047" xlink:href="#DejaVuSans-47"/>
       <use x="97.314453" xlink:href="#DejaVuSans-49"/>
       <use x="160.9375" xlink:href="#DejaVuSans-54"/>
       <use x="224.560547" xlink:href="#DejaVuSans-47"/>
       <use x="258.251953" xlink:href="#DejaVuSans-50"/>
       <use x="321.875" xlink:href="#DejaVuSans-48"/>
      </g>
     </g>
    </g>
    <g id="xtick_26">
     <g id="line2d_26">
      <g>
       <use style="stroke:#000000;stroke-width:0.8;" x="148.265588" xlink:href="#m593ecabc7b" y="256.32"/>
      </g>
     </g>
    </g>
    <g id="xtick_27">
     <g id="line2d_27">
      <g>
       <use style="stroke:#000000;stroke-width:0.8;" x="151.377691" xlink:href="#m593ecabc7b" y="256.32"/>
      </g>
     </g>
    </g>
    <g id="xtick_28">
     <g id="line2d_28">
      <g>
       <use style="stroke:#000000;stroke-width:0.8;" x="154.489794" xlink:href="#m593ecabc7b" y="256.32"/>
      </g>
     </g>
     <g id="text_10">
      <!-- 2/19/20 -->
      <g transform="translate(156.145419 286.45)rotate(-90)scale(0.06 -0.06)">
       <use xlink:href="#DejaVuSans-50"/>
       <use x="63.623047" xlink:href="#DejaVuSans-47"/>
       <use x="97.314453" xlink:href="#DejaVuSans-49"/>
       <use x="160.9375" xlink:href="#DejaVuSans-57"/>
       <use x="224.560547" xlink:href="#DejaVuSans-47"/>
       <use x="258.251953" xlink:href="#DejaVuSans-50"/>
       <use x="321.875" xlink:href="#DejaVuSans-48"/>
      </g>
     </g>
    </g>
    <g id="xtick_29">
     <g id="line2d_29">
      <g>
       <use style="stroke:#000000;stroke-width:0.8;" x="157.601896" xlink:href="#m593ecabc7b" y="256.32"/>
      </g>
     </g>
    </g>
    <g id="xtick_30">
     <g id="line2d_30">
      <g>
       <use style="stroke:#000000;stroke-width:0.8;" x="160.713999" xlink:href="#m593ecabc7b" y="256.32"/>
      </g>
     </g>
    </g>
    <g id="xtick_31">
     <g id="line2d_31">
      <g>
       <use style="stroke:#000000;stroke-width:0.8;" x="163.826102" xlink:href="#m593ecabc7b" y="256.32"/>
      </g>
     </g>
     <g id="text_11">
      <!-- 2/22/20 -->
      <g transform="translate(165.481727 286.45)rotate(-90)scale(0.06 -0.06)">
       <use xlink:href="#DejaVuSans-50"/>
       <use x="63.623047" xlink:href="#DejaVuSans-47"/>
       <use x="97.314453" xlink:href="#DejaVuSans-50"/>
       <use x="160.9375" xlink:href="#DejaVuSans-50"/>
       <use x="224.560547" xlink:href="#DejaVuSans-47"/>
       <use x="258.251953" xlink:href="#DejaVuSans-50"/>
       <use x="321.875" xlink:href="#DejaVuSans-48"/>
      </g>
     </g>
    </g>
    <g id="xtick_32">
     <g id="line2d_32">
      <g>
       <use style="stroke:#000000;stroke-width:0.8;" x="166.938204" xlink:href="#m593ecabc7b" y="256.32"/>
      </g>
     </g>
    </g>
    <g id="xtick_33">
     <g id="line2d_33">
      <g>
       <use style="stroke:#000000;stroke-width:0.8;" x="170.050307" xlink:href="#m593ecabc7b" y="256.32"/>
      </g>
     </g>
    </g>
    <g id="xtick_34">
     <g id="line2d_34">
      <g>
       <use style="stroke:#000000;stroke-width:0.8;" x="173.162409" xlink:href="#m593ecabc7b" y="256.32"/>
      </g>
     </g>
     <g id="text_12">
      <!-- 2/25/20 -->
      <defs>
       <path d="M 10.796875 72.90625 
L 49.515625 72.90625 
L 49.515625 64.59375 
L 19.828125 64.59375 
L 19.828125 46.734375 
Q 21.96875 47.46875 24.109375 47.828125 
Q 26.265625 48.1875 28.421875 48.1875 
Q 40.625 48.1875 47.75 41.5 
Q 54.890625 34.8125 54.890625 23.390625 
Q 54.890625 11.625 47.5625 5.09375 
Q 40.234375 -1.421875 26.90625 -1.421875 
Q 22.3125 -1.421875 17.546875 -0.640625 
Q 12.796875 0.140625 7.71875 1.703125 
L 7.71875 11.625 
Q 12.109375 9.234375 16.796875 8.0625 
Q 21.484375 6.890625 26.703125 6.890625 
Q 35.15625 6.890625 40.078125 11.328125 
Q 45.015625 15.765625 45.015625 23.390625 
Q 45.015625 31 40.078125 35.4375 
Q 35.15625 39.890625 26.703125 39.890625 
Q 22.75 39.890625 18.8125 39.015625 
Q 14.890625 38.140625 10.796875 36.28125 
z
" id="DejaVuSans-53"/>
      </defs>
      <g transform="translate(174.818034 286.45)rotate(-90)scale(0.06 -0.06)">
       <use xlink:href="#DejaVuSans-50"/>
       <use x="63.623047" xlink:href="#DejaVuSans-47"/>
       <use x="97.314453" xlink:href="#DejaVuSans-50"/>
       <use x="160.9375" xlink:href="#DejaVuSans-53"/>
       <use x="224.560547" xlink:href="#DejaVuSans-47"/>
       <use x="258.251953" xlink:href="#DejaVuSans-50"/>
       <use x="321.875" xlink:href="#DejaVuSans-48"/>
      </g>
     </g>
    </g>
    <g id="xtick_35">
     <g id="line2d_35">
      <g>
       <use style="stroke:#000000;stroke-width:0.8;" x="176.274512" xlink:href="#m593ecabc7b" y="256.32"/>
      </g>
     </g>
    </g>
    <g id="xtick_36">
     <g id="line2d_36">
      <g>
       <use style="stroke:#000000;stroke-width:0.8;" x="179.386615" xlink:href="#m593ecabc7b" y="256.32"/>
      </g>
     </g>
    </g>
    <g id="xtick_37">
     <g id="line2d_37">
      <g>
       <use style="stroke:#000000;stroke-width:0.8;" x="182.498717" xlink:href="#m593ecabc7b" y="256.32"/>
      </g>
     </g>
     <g id="text_13">
      <!-- 2/28/20 -->
      <defs>
       <path d="M 31.78125 34.625 
Q 24.75 34.625 20.71875 30.859375 
Q 16.703125 27.09375 16.703125 20.515625 
Q 16.703125 13.921875 20.71875 10.15625 
Q 24.75 6.390625 31.78125 6.390625 
Q 38.8125 6.390625 42.859375 10.171875 
Q 46.921875 13.96875 46.921875 20.515625 
Q 46.921875 27.09375 42.890625 30.859375 
Q 38.875 34.625 31.78125 34.625 
z
M 21.921875 38.8125 
Q 15.578125 40.375 12.03125 44.71875 
Q 8.5 49.078125 8.5 55.328125 
Q 8.5 64.0625 14.71875 69.140625 
Q 20.953125 74.21875 31.78125 74.21875 
Q 42.671875 74.21875 48.875 69.140625 
Q 55.078125 64.0625 55.078125 55.328125 
Q 55.078125 49.078125 51.53125 44.71875 
Q 48 40.375 41.703125 38.8125 
Q 48.828125 37.15625 52.796875 32.3125 
Q 56.78125 27.484375 56.78125 20.515625 
Q 56.78125 9.90625 50.3125 4.234375 
Q 43.84375 -1.421875 31.78125 -1.421875 
Q 19.734375 -1.421875 13.25 4.234375 
Q 6.78125 9.90625 6.78125 20.515625 
Q 6.78125 27.484375 10.78125 32.3125 
Q 14.796875 37.15625 21.921875 38.8125 
z
M 18.3125 54.390625 
Q 18.3125 48.734375 21.84375 45.5625 
Q 25.390625 42.390625 31.78125 42.390625 
Q 38.140625 42.390625 41.71875 45.5625 
Q 45.3125 48.734375 45.3125 54.390625 
Q 45.3125 60.0625 41.71875 63.234375 
Q 38.140625 66.40625 31.78125 66.40625 
Q 25.390625 66.40625 21.84375 63.234375 
Q 18.3125 60.0625 18.3125 54.390625 
z
" id="DejaVuSans-56"/>
      </defs>
      <g transform="translate(184.154342 286.45)rotate(-90)scale(0.06 -0.06)">
       <use xlink:href="#DejaVuSans-50"/>
       <use x="63.623047" xlink:href="#DejaVuSans-47"/>
       <use x="97.314453" xlink:href="#DejaVuSans-50"/>
       <use x="160.9375" xlink:href="#DejaVuSans-56"/>
       <use x="224.560547" xlink:href="#DejaVuSans-47"/>
       <use x="258.251953" xlink:href="#DejaVuSans-50"/>
       <use x="321.875" xlink:href="#DejaVuSans-48"/>
      </g>
     </g>
    </g>
    <g id="xtick_38">
     <g id="line2d_38">
      <g>
       <use style="stroke:#000000;stroke-width:0.8;" x="185.61082" xlink:href="#m593ecabc7b" y="256.32"/>
      </g>
     </g>
    </g>
    <g id="xtick_39">
     <g id="line2d_39">
      <g>
       <use style="stroke:#000000;stroke-width:0.8;" x="188.722922" xlink:href="#m593ecabc7b" y="256.32"/>
      </g>
     </g>
    </g>
    <g id="xtick_40">
     <g id="line2d_40">
      <g>
       <use style="stroke:#000000;stroke-width:0.8;" x="191.835025" xlink:href="#m593ecabc7b" y="256.32"/>
      </g>
     </g>
     <g id="text_14">
      <!-- 3/2/20 -->
      <g transform="translate(193.49065 282.6325)rotate(-90)scale(0.06 -0.06)">
       <use xlink:href="#DejaVuSans-51"/>
       <use x="63.623047" xlink:href="#DejaVuSans-47"/>
       <use x="97.314453" xlink:href="#DejaVuSans-50"/>
       <use x="160.9375" xlink:href="#DejaVuSans-47"/>
       <use x="194.628906" xlink:href="#DejaVuSans-50"/>
       <use x="258.251953" xlink:href="#DejaVuSans-48"/>
      </g>
     </g>
    </g>
    <g id="xtick_41">
     <g id="line2d_41">
      <g>
       <use style="stroke:#000000;stroke-width:0.8;" x="194.947128" xlink:href="#m593ecabc7b" y="256.32"/>
      </g>
     </g>
    </g>
    <g id="xtick_42">
     <g id="line2d_42">
      <g>
       <use style="stroke:#000000;stroke-width:0.8;" x="198.05923" xlink:href="#m593ecabc7b" y="256.32"/>
      </g>
     </g>
    </g>
    <g id="xtick_43">
     <g id="line2d_43">
      <g>
       <use style="stroke:#000000;stroke-width:0.8;" x="201.171333" xlink:href="#m593ecabc7b" y="256.32"/>
      </g>
     </g>
     <g id="text_15">
      <!-- 3/5/20 -->
      <g transform="translate(202.826958 282.6325)rotate(-90)scale(0.06 -0.06)">
       <use xlink:href="#DejaVuSans-51"/>
       <use x="63.623047" xlink:href="#DejaVuSans-47"/>
       <use x="97.314453" xlink:href="#DejaVuSans-53"/>
       <use x="160.9375" xlink:href="#DejaVuSans-47"/>
       <use x="194.628906" xlink:href="#DejaVuSans-50"/>
       <use x="258.251953" xlink:href="#DejaVuSans-48"/>
      </g>
     </g>
    </g>
    <g id="xtick_44">
     <g id="line2d_44">
      <g>
       <use style="stroke:#000000;stroke-width:0.8;" x="204.283436" xlink:href="#m593ecabc7b" y="256.32"/>
      </g>
     </g>
    </g>
    <g id="xtick_45">
     <g id="line2d_45">
      <g>
       <use style="stroke:#000000;stroke-width:0.8;" x="207.395538" xlink:href="#m593ecabc7b" y="256.32"/>
      </g>
     </g>
    </g>
    <g id="xtick_46">
     <g id="line2d_46">
      <g>
       <use style="stroke:#000000;stroke-width:0.8;" x="210.507641" xlink:href="#m593ecabc7b" y="256.32"/>
      </g>
     </g>
     <g id="text_16">
      <!-- 3/8/20 -->
      <g transform="translate(212.163266 282.6325)rotate(-90)scale(0.06 -0.06)">
       <use xlink:href="#DejaVuSans-51"/>
       <use x="63.623047" xlink:href="#DejaVuSans-47"/>
       <use x="97.314453" xlink:href="#DejaVuSans-56"/>
       <use x="160.9375" xlink:href="#DejaVuSans-47"/>
       <use x="194.628906" xlink:href="#DejaVuSans-50"/>
       <use x="258.251953" xlink:href="#DejaVuSans-48"/>
      </g>
     </g>
    </g>
    <g id="xtick_47">
     <g id="line2d_47">
      <g>
       <use style="stroke:#000000;stroke-width:0.8;" x="213.619743" xlink:href="#m593ecabc7b" y="256.32"/>
      </g>
     </g>
    </g>
    <g id="xtick_48">
     <g id="line2d_48">
      <g>
       <use style="stroke:#000000;stroke-width:0.8;" x="216.731846" xlink:href="#m593ecabc7b" y="256.32"/>
      </g>
     </g>
    </g>
    <g id="xtick_49">
     <g id="line2d_49">
      <g>
       <use style="stroke:#000000;stroke-width:0.8;" x="219.843949" xlink:href="#m593ecabc7b" y="256.32"/>
      </g>
     </g>
     <g id="text_17">
      <!-- 3/11/20 -->
      <g transform="translate(221.499574 286.45)rotate(-90)scale(0.06 -0.06)">
       <use xlink:href="#DejaVuSans-51"/>
       <use x="63.623047" xlink:href="#DejaVuSans-47"/>
       <use x="97.314453" xlink:href="#DejaVuSans-49"/>
       <use x="160.9375" xlink:href="#DejaVuSans-49"/>
       <use x="224.560547" xlink:href="#DejaVuSans-47"/>
       <use x="258.251953" xlink:href="#DejaVuSans-50"/>
       <use x="321.875" xlink:href="#DejaVuSans-48"/>
      </g>
     </g>
    </g>
    <g id="xtick_50">
     <g id="line2d_50">
      <g>
       <use style="stroke:#000000;stroke-width:0.8;" x="222.956051" xlink:href="#m593ecabc7b" y="256.32"/>
      </g>
     </g>
    </g>
    <g id="xtick_51">
     <g id="line2d_51">
      <g>
       <use style="stroke:#000000;stroke-width:0.8;" x="226.068154" xlink:href="#m593ecabc7b" y="256.32"/>
      </g>
     </g>
    </g>
    <g id="xtick_52">
     <g id="line2d_52">
      <g>
       <use style="stroke:#000000;stroke-width:0.8;" x="229.180257" xlink:href="#m593ecabc7b" y="256.32"/>
      </g>
     </g>
     <g id="text_18">
      <!-- 3/14/20 -->
      <g transform="translate(230.835882 286.45)rotate(-90)scale(0.06 -0.06)">
       <use xlink:href="#DejaVuSans-51"/>
       <use x="63.623047" xlink:href="#DejaVuSans-47"/>
       <use x="97.314453" xlink:href="#DejaVuSans-49"/>
       <use x="160.9375" xlink:href="#DejaVuSans-52"/>
       <use x="224.560547" xlink:href="#DejaVuSans-47"/>
       <use x="258.251953" xlink:href="#DejaVuSans-50"/>
       <use x="321.875" xlink:href="#DejaVuSans-48"/>
      </g>
     </g>
    </g>
    <g id="xtick_53">
     <g id="line2d_53">
      <g>
       <use style="stroke:#000000;stroke-width:0.8;" x="232.292359" xlink:href="#m593ecabc7b" y="256.32"/>
      </g>
     </g>
    </g>
    <g id="xtick_54">
     <g id="line2d_54">
      <g>
       <use style="stroke:#000000;stroke-width:0.8;" x="235.404462" xlink:href="#m593ecabc7b" y="256.32"/>
      </g>
     </g>
    </g>
    <g id="xtick_55">
     <g id="line2d_55">
      <g>
       <use style="stroke:#000000;stroke-width:0.8;" x="238.516564" xlink:href="#m593ecabc7b" y="256.32"/>
      </g>
     </g>
     <g id="text_19">
      <!-- 3/17/20 -->
      <g transform="translate(240.172189 286.45)rotate(-90)scale(0.06 -0.06)">
       <use xlink:href="#DejaVuSans-51"/>
       <use x="63.623047" xlink:href="#DejaVuSans-47"/>
       <use x="97.314453" xlink:href="#DejaVuSans-49"/>
       <use x="160.9375" xlink:href="#DejaVuSans-55"/>
       <use x="224.560547" xlink:href="#DejaVuSans-47"/>
       <use x="258.251953" xlink:href="#DejaVuSans-50"/>
       <use x="321.875" xlink:href="#DejaVuSans-48"/>
      </g>
     </g>
    </g>
    <g id="xtick_56">
     <g id="line2d_56">
      <g>
       <use style="stroke:#000000;stroke-width:0.8;" x="241.628667" xlink:href="#m593ecabc7b" y="256.32"/>
      </g>
     </g>
    </g>
    <g id="xtick_57">
     <g id="line2d_57">
      <g>
       <use style="stroke:#000000;stroke-width:0.8;" x="244.74077" xlink:href="#m593ecabc7b" y="256.32"/>
      </g>
     </g>
    </g>
    <g id="xtick_58">
     <g id="line2d_58">
      <g>
       <use style="stroke:#000000;stroke-width:0.8;" x="247.852872" xlink:href="#m593ecabc7b" y="256.32"/>
      </g>
     </g>
     <g id="text_20">
      <!-- 3/20/20 -->
      <g transform="translate(249.508497 286.45)rotate(-90)scale(0.06 -0.06)">
       <use xlink:href="#DejaVuSans-51"/>
       <use x="63.623047" xlink:href="#DejaVuSans-47"/>
       <use x="97.314453" xlink:href="#DejaVuSans-50"/>
       <use x="160.9375" xlink:href="#DejaVuSans-48"/>
       <use x="224.560547" xlink:href="#DejaVuSans-47"/>
       <use x="258.251953" xlink:href="#DejaVuSans-50"/>
       <use x="321.875" xlink:href="#DejaVuSans-48"/>
      </g>
     </g>
    </g>
    <g id="xtick_59">
     <g id="line2d_59">
      <g>
       <use style="stroke:#000000;stroke-width:0.8;" x="250.964975" xlink:href="#m593ecabc7b" y="256.32"/>
      </g>
     </g>
    </g>
    <g id="xtick_60">
     <g id="line2d_60">
      <g>
       <use style="stroke:#000000;stroke-width:0.8;" x="254.077078" xlink:href="#m593ecabc7b" y="256.32"/>
      </g>
     </g>
    </g>
    <g id="xtick_61">
     <g id="line2d_61">
      <g>
       <use style="stroke:#000000;stroke-width:0.8;" x="257.18918" xlink:href="#m593ecabc7b" y="256.32"/>
      </g>
     </g>
     <g id="text_21">
      <!-- 3/23/20 -->
      <g transform="translate(258.844805 286.45)rotate(-90)scale(0.06 -0.06)">
       <use xlink:href="#DejaVuSans-51"/>
       <use x="63.623047" xlink:href="#DejaVuSans-47"/>
       <use x="97.314453" xlink:href="#DejaVuSans-50"/>
       <use x="160.9375" xlink:href="#DejaVuSans-51"/>
       <use x="224.560547" xlink:href="#DejaVuSans-47"/>
       <use x="258.251953" xlink:href="#DejaVuSans-50"/>
       <use x="321.875" xlink:href="#DejaVuSans-48"/>
      </g>
     </g>
    </g>
    <g id="xtick_62">
     <g id="line2d_62">
      <g>
       <use style="stroke:#000000;stroke-width:0.8;" x="260.301283" xlink:href="#m593ecabc7b" y="256.32"/>
      </g>
     </g>
    </g>
    <g id="xtick_63">
     <g id="line2d_63">
      <g>
       <use style="stroke:#000000;stroke-width:0.8;" x="263.413385" xlink:href="#m593ecabc7b" y="256.32"/>
      </g>
     </g>
    </g>
    <g id="xtick_64">
     <g id="line2d_64">
      <g>
       <use style="stroke:#000000;stroke-width:0.8;" x="266.525488" xlink:href="#m593ecabc7b" y="256.32"/>
      </g>
     </g>
     <g id="text_22">
      <!-- 3/26/20 -->
      <g transform="translate(268.181113 286.45)rotate(-90)scale(0.06 -0.06)">
       <use xlink:href="#DejaVuSans-51"/>
       <use x="63.623047" xlink:href="#DejaVuSans-47"/>
       <use x="97.314453" xlink:href="#DejaVuSans-50"/>
       <use x="160.9375" xlink:href="#DejaVuSans-54"/>
       <use x="224.560547" xlink:href="#DejaVuSans-47"/>
       <use x="258.251953" xlink:href="#DejaVuSans-50"/>
       <use x="321.875" xlink:href="#DejaVuSans-48"/>
      </g>
     </g>
    </g>
    <g id="xtick_65">
     <g id="line2d_65">
      <g>
       <use style="stroke:#000000;stroke-width:0.8;" x="269.637591" xlink:href="#m593ecabc7b" y="256.32"/>
      </g>
     </g>
    </g>
    <g id="xtick_66">
     <g id="line2d_66">
      <g>
       <use style="stroke:#000000;stroke-width:0.8;" x="272.749693" xlink:href="#m593ecabc7b" y="256.32"/>
      </g>
     </g>
    </g>
    <g id="xtick_67">
     <g id="line2d_67">
      <g>
       <use style="stroke:#000000;stroke-width:0.8;" x="275.861796" xlink:href="#m593ecabc7b" y="256.32"/>
      </g>
     </g>
     <g id="text_23">
      <!-- 3/29/20 -->
      <g transform="translate(277.517421 286.45)rotate(-90)scale(0.06 -0.06)">
       <use xlink:href="#DejaVuSans-51"/>
       <use x="63.623047" xlink:href="#DejaVuSans-47"/>
       <use x="97.314453" xlink:href="#DejaVuSans-50"/>
       <use x="160.9375" xlink:href="#DejaVuSans-57"/>
       <use x="224.560547" xlink:href="#DejaVuSans-47"/>
       <use x="258.251953" xlink:href="#DejaVuSans-50"/>
       <use x="321.875" xlink:href="#DejaVuSans-48"/>
      </g>
     </g>
    </g>
    <g id="xtick_68">
     <g id="line2d_68">
      <g>
       <use style="stroke:#000000;stroke-width:0.8;" x="278.973898" xlink:href="#m593ecabc7b" y="256.32"/>
      </g>
     </g>
    </g>
    <g id="xtick_69">
     <g id="line2d_69">
      <g>
       <use style="stroke:#000000;stroke-width:0.8;" x="282.086001" xlink:href="#m593ecabc7b" y="256.32"/>
      </g>
     </g>
    </g>
    <g id="xtick_70">
     <g id="line2d_70">
      <g>
       <use style="stroke:#000000;stroke-width:0.8;" x="285.198104" xlink:href="#m593ecabc7b" y="256.32"/>
      </g>
     </g>
     <g id="text_24">
      <!-- 4/1/20 -->
      <g transform="translate(286.853729 282.6325)rotate(-90)scale(0.06 -0.06)">
       <use xlink:href="#DejaVuSans-52"/>
       <use x="63.623047" xlink:href="#DejaVuSans-47"/>
       <use x="97.314453" xlink:href="#DejaVuSans-49"/>
       <use x="160.9375" xlink:href="#DejaVuSans-47"/>
       <use x="194.628906" xlink:href="#DejaVuSans-50"/>
       <use x="258.251953" xlink:href="#DejaVuSans-48"/>
      </g>
     </g>
    </g>
    <g id="xtick_71">
     <g id="line2d_71">
      <g>
       <use style="stroke:#000000;stroke-width:0.8;" x="288.310206" xlink:href="#m593ecabc7b" y="256.32"/>
      </g>
     </g>
    </g>
    <g id="xtick_72">
     <g id="line2d_72">
      <g>
       <use style="stroke:#000000;stroke-width:0.8;" x="291.422309" xlink:href="#m593ecabc7b" y="256.32"/>
      </g>
     </g>
    </g>
    <g id="xtick_73">
     <g id="line2d_73">
      <g>
       <use style="stroke:#000000;stroke-width:0.8;" x="294.534412" xlink:href="#m593ecabc7b" y="256.32"/>
      </g>
     </g>
     <g id="text_25">
      <!-- 4/4/20 -->
      <g transform="translate(296.190037 282.6325)rotate(-90)scale(0.06 -0.06)">
       <use xlink:href="#DejaVuSans-52"/>
       <use x="63.623047" xlink:href="#DejaVuSans-47"/>
       <use x="97.314453" xlink:href="#DejaVuSans-52"/>
       <use x="160.9375" xlink:href="#DejaVuSans-47"/>
       <use x="194.628906" xlink:href="#DejaVuSans-50"/>
       <use x="258.251953" xlink:href="#DejaVuSans-48"/>
      </g>
     </g>
    </g>
    <g id="xtick_74">
     <g id="line2d_74">
      <g>
       <use style="stroke:#000000;stroke-width:0.8;" x="297.646514" xlink:href="#m593ecabc7b" y="256.32"/>
      </g>
     </g>
    </g>
    <g id="xtick_75">
     <g id="line2d_75">
      <g>
       <use style="stroke:#000000;stroke-width:0.8;" x="300.758617" xlink:href="#m593ecabc7b" y="256.32"/>
      </g>
     </g>
    </g>
    <g id="xtick_76">
     <g id="line2d_76">
      <g>
       <use style="stroke:#000000;stroke-width:0.8;" x="303.870719" xlink:href="#m593ecabc7b" y="256.32"/>
      </g>
     </g>
     <g id="text_26">
      <!-- 4/7/20 -->
      <g transform="translate(305.526344 282.6325)rotate(-90)scale(0.06 -0.06)">
       <use xlink:href="#DejaVuSans-52"/>
       <use x="63.623047" xlink:href="#DejaVuSans-47"/>
       <use x="97.314453" xlink:href="#DejaVuSans-55"/>
       <use x="160.9375" xlink:href="#DejaVuSans-47"/>
       <use x="194.628906" xlink:href="#DejaVuSans-50"/>
       <use x="258.251953" xlink:href="#DejaVuSans-48"/>
      </g>
     </g>
    </g>
    <g id="xtick_77">
     <g id="line2d_77">
      <g>
       <use style="stroke:#000000;stroke-width:0.8;" x="306.982822" xlink:href="#m593ecabc7b" y="256.32"/>
      </g>
     </g>
    </g>
    <g id="xtick_78">
     <g id="line2d_78">
      <g>
       <use style="stroke:#000000;stroke-width:0.8;" x="310.094925" xlink:href="#m593ecabc7b" y="256.32"/>
      </g>
     </g>
    </g>
    <g id="xtick_79">
     <g id="line2d_79">
      <g>
       <use style="stroke:#000000;stroke-width:0.8;" x="313.207027" xlink:href="#m593ecabc7b" y="256.32"/>
      </g>
     </g>
     <g id="text_27">
      <!-- 4/10/20 -->
      <g transform="translate(314.862652 286.45)rotate(-90)scale(0.06 -0.06)">
       <use xlink:href="#DejaVuSans-52"/>
       <use x="63.623047" xlink:href="#DejaVuSans-47"/>
       <use x="97.314453" xlink:href="#DejaVuSans-49"/>
       <use x="160.9375" xlink:href="#DejaVuSans-48"/>
       <use x="224.560547" xlink:href="#DejaVuSans-47"/>
       <use x="258.251953" xlink:href="#DejaVuSans-50"/>
       <use x="321.875" xlink:href="#DejaVuSans-48"/>
      </g>
     </g>
    </g>
    <g id="xtick_80">
     <g id="line2d_80">
      <g>
       <use style="stroke:#000000;stroke-width:0.8;" x="316.31913" xlink:href="#m593ecabc7b" y="256.32"/>
      </g>
     </g>
    </g>
    <g id="xtick_81">
     <g id="line2d_81">
      <g>
       <use style="stroke:#000000;stroke-width:0.8;" x="319.431233" xlink:href="#m593ecabc7b" y="256.32"/>
      </g>
     </g>
    </g>
    <g id="xtick_82">
     <g id="line2d_82">
      <g>
       <use style="stroke:#000000;stroke-width:0.8;" x="322.543335" xlink:href="#m593ecabc7b" y="256.32"/>
      </g>
     </g>
     <g id="text_28">
      <!-- 4/13/20 -->
      <g transform="translate(324.19896 286.45)rotate(-90)scale(0.06 -0.06)">
       <use xlink:href="#DejaVuSans-52"/>
       <use x="63.623047" xlink:href="#DejaVuSans-47"/>
       <use x="97.314453" xlink:href="#DejaVuSans-49"/>
       <use x="160.9375" xlink:href="#DejaVuSans-51"/>
       <use x="224.560547" xlink:href="#DejaVuSans-47"/>
       <use x="258.251953" xlink:href="#DejaVuSans-50"/>
       <use x="321.875" xlink:href="#DejaVuSans-48"/>
      </g>
     </g>
    </g>
    <g id="xtick_83">
     <g id="line2d_83">
      <g>
       <use style="stroke:#000000;stroke-width:0.8;" x="325.655438" xlink:href="#m593ecabc7b" y="256.32"/>
      </g>
     </g>
    </g>
    <g id="xtick_84">
     <g id="line2d_84">
      <g>
       <use style="stroke:#000000;stroke-width:0.8;" x="328.76754" xlink:href="#m593ecabc7b" y="256.32"/>
      </g>
     </g>
    </g>
    <g id="xtick_85">
     <g id="line2d_85">
      <g>
       <use style="stroke:#000000;stroke-width:0.8;" x="331.879643" xlink:href="#m593ecabc7b" y="256.32"/>
      </g>
     </g>
     <g id="text_29">
      <!-- 4/16/20 -->
      <g transform="translate(333.535268 286.45)rotate(-90)scale(0.06 -0.06)">
       <use xlink:href="#DejaVuSans-52"/>
       <use x="63.623047" xlink:href="#DejaVuSans-47"/>
       <use x="97.314453" xlink:href="#DejaVuSans-49"/>
       <use x="160.9375" xlink:href="#DejaVuSans-54"/>
       <use x="224.560547" xlink:href="#DejaVuSans-47"/>
       <use x="258.251953" xlink:href="#DejaVuSans-50"/>
       <use x="321.875" xlink:href="#DejaVuSans-48"/>
      </g>
     </g>
    </g>
    <g id="xtick_86">
     <g id="line2d_86">
      <g>
       <use style="stroke:#000000;stroke-width:0.8;" x="334.991746" xlink:href="#m593ecabc7b" y="256.32"/>
      </g>
     </g>
    </g>
    <g id="xtick_87">
     <g id="line2d_87">
      <g>
       <use style="stroke:#000000;stroke-width:0.8;" x="338.103848" xlink:href="#m593ecabc7b" y="256.32"/>
      </g>
     </g>
    </g>
    <g id="xtick_88">
     <g id="line2d_88">
      <g>
       <use style="stroke:#000000;stroke-width:0.8;" x="341.215951" xlink:href="#m593ecabc7b" y="256.32"/>
      </g>
     </g>
     <g id="text_30">
      <!-- 4/19/20 -->
      <g transform="translate(342.871576 286.45)rotate(-90)scale(0.06 -0.06)">
       <use xlink:href="#DejaVuSans-52"/>
       <use x="63.623047" xlink:href="#DejaVuSans-47"/>
       <use x="97.314453" xlink:href="#DejaVuSans-49"/>
       <use x="160.9375" xlink:href="#DejaVuSans-57"/>
       <use x="224.560547" xlink:href="#DejaVuSans-47"/>
       <use x="258.251953" xlink:href="#DejaVuSans-50"/>
       <use x="321.875" xlink:href="#DejaVuSans-48"/>
      </g>
     </g>
    </g>
    <g id="xtick_89">
     <g id="line2d_89">
      <g>
       <use style="stroke:#000000;stroke-width:0.8;" x="344.328054" xlink:href="#m593ecabc7b" y="256.32"/>
      </g>
     </g>
    </g>
    <g id="xtick_90">
     <g id="line2d_90">
      <g>
       <use style="stroke:#000000;stroke-width:0.8;" x="347.440156" xlink:href="#m593ecabc7b" y="256.32"/>
      </g>
     </g>
    </g>
    <g id="xtick_91">
     <g id="line2d_91">
      <g>
       <use style="stroke:#000000;stroke-width:0.8;" x="350.552259" xlink:href="#m593ecabc7b" y="256.32"/>
      </g>
     </g>
     <g id="text_31">
      <!-- 4/22/20 -->
      <g transform="translate(352.207884 286.45)rotate(-90)scale(0.06 -0.06)">
       <use xlink:href="#DejaVuSans-52"/>
       <use x="63.623047" xlink:href="#DejaVuSans-47"/>
       <use x="97.314453" xlink:href="#DejaVuSans-50"/>
       <use x="160.9375" xlink:href="#DejaVuSans-50"/>
       <use x="224.560547" xlink:href="#DejaVuSans-47"/>
       <use x="258.251953" xlink:href="#DejaVuSans-50"/>
       <use x="321.875" xlink:href="#DejaVuSans-48"/>
      </g>
     </g>
    </g>
    <g id="xtick_92">
     <g id="line2d_92">
      <g>
       <use style="stroke:#000000;stroke-width:0.8;" x="353.664361" xlink:href="#m593ecabc7b" y="256.32"/>
      </g>
     </g>
    </g>
    <g id="xtick_93">
     <g id="line2d_93">
      <g>
       <use style="stroke:#000000;stroke-width:0.8;" x="356.776464" xlink:href="#m593ecabc7b" y="256.32"/>
      </g>
     </g>
    </g>
    <g id="xtick_94">
     <g id="line2d_94">
      <g>
       <use style="stroke:#000000;stroke-width:0.8;" x="359.888567" xlink:href="#m593ecabc7b" y="256.32"/>
      </g>
     </g>
     <g id="text_32">
      <!-- 4/25/20 -->
      <g transform="translate(361.544192 286.45)rotate(-90)scale(0.06 -0.06)">
       <use xlink:href="#DejaVuSans-52"/>
       <use x="63.623047" xlink:href="#DejaVuSans-47"/>
       <use x="97.314453" xlink:href="#DejaVuSans-50"/>
       <use x="160.9375" xlink:href="#DejaVuSans-53"/>
       <use x="224.560547" xlink:href="#DejaVuSans-47"/>
       <use x="258.251953" xlink:href="#DejaVuSans-50"/>
       <use x="321.875" xlink:href="#DejaVuSans-48"/>
      </g>
     </g>
    </g>
    <g id="xtick_95">
     <g id="line2d_95">
      <g>
       <use style="stroke:#000000;stroke-width:0.8;" x="363.000669" xlink:href="#m593ecabc7b" y="256.32"/>
      </g>
     </g>
    </g>
    <g id="xtick_96">
     <g id="line2d_96">
      <g>
       <use style="stroke:#000000;stroke-width:0.8;" x="366.112772" xlink:href="#m593ecabc7b" y="256.32"/>
      </g>
     </g>
    </g>
    <g id="xtick_97">
     <g id="line2d_97">
      <g>
       <use style="stroke:#000000;stroke-width:0.8;" x="369.224875" xlink:href="#m593ecabc7b" y="256.32"/>
      </g>
     </g>
     <g id="text_33">
      <!-- 4/28/20 -->
      <g transform="translate(370.8805 286.45)rotate(-90)scale(0.06 -0.06)">
       <use xlink:href="#DejaVuSans-52"/>
       <use x="63.623047" xlink:href="#DejaVuSans-47"/>
       <use x="97.314453" xlink:href="#DejaVuSans-50"/>
       <use x="160.9375" xlink:href="#DejaVuSans-56"/>
       <use x="224.560547" xlink:href="#DejaVuSans-47"/>
       <use x="258.251953" xlink:href="#DejaVuSans-50"/>
       <use x="321.875" xlink:href="#DejaVuSans-48"/>
      </g>
     </g>
    </g>
    <g id="xtick_98">
     <g id="line2d_98">
      <g>
       <use style="stroke:#000000;stroke-width:0.8;" x="372.336977" xlink:href="#m593ecabc7b" y="256.32"/>
      </g>
     </g>
    </g>
   </g>
   <g id="matplotlib.axis_2">
    <g id="ytick_1">
     <g id="line2d_99">
      <defs>
       <path d="M 0 0 
L -3.5 0 
" id="m912fa55fde" style="stroke:#000000;stroke-width:0.8;"/>
      </defs>
      <g>
       <use style="stroke:#000000;stroke-width:0.8;" x="54" xlink:href="#m912fa55fde" y="255.616744"/>
      </g>
     </g>
     <g id="text_34">
      <!-- 50 -->
      <defs>
       <path d="M 10.59375 35.5 
L 73.1875 35.5 
L 73.1875 27.203125 
L 10.59375 27.203125 
z
" id="DejaVuSans-8722"/>
      </defs>
      <g transform="translate(25.895312 259.415963)scale(0.1 -0.1)">
       <use xlink:href="#DejaVuSans-8722"/>
       <use x="83.789062" xlink:href="#DejaVuSans-53"/>
       <use x="147.412109" xlink:href="#DejaVuSans-48"/>
      </g>
     </g>
    </g>
    <g id="ytick_2">
     <g id="line2d_100">
      <g>
       <use style="stroke:#000000;stroke-width:0.8;" x="54" xlink:href="#m912fa55fde" y="226.314419"/>
      </g>
     </g>
     <g id="text_35">
      <!-- 0 -->
      <g transform="translate(40.6375 230.113637)scale(0.1 -0.1)">
       <use xlink:href="#DejaVuSans-48"/>
      </g>
     </g>
    </g>
    <g id="ytick_3">
     <g id="line2d_101">
      <g>
       <use style="stroke:#000000;stroke-width:0.8;" x="54" xlink:href="#m912fa55fde" y="197.012093"/>
      </g>
     </g>
     <g id="text_36">
      <!-- 50 -->
      <g transform="translate(34.275 200.811312)scale(0.1 -0.1)">
       <use xlink:href="#DejaVuSans-53"/>
       <use x="63.623047" xlink:href="#DejaVuSans-48"/>
      </g>
     </g>
    </g>
    <g id="ytick_4">
     <g id="line2d_102">
      <g>
       <use style="stroke:#000000;stroke-width:0.8;" x="54" xlink:href="#m912fa55fde" y="167.709767"/>
      </g>
     </g>
     <g id="text_37">
      <!-- 100 -->
      <g transform="translate(27.9125 171.508986)scale(0.1 -0.1)">
       <use xlink:href="#DejaVuSans-49"/>
       <use x="63.623047" xlink:href="#DejaVuSans-48"/>
       <use x="127.246094" xlink:href="#DejaVuSans-48"/>
      </g>
     </g>
    </g>
    <g id="ytick_5">
     <g id="line2d_103">
      <g>
       <use style="stroke:#000000;stroke-width:0.8;" x="54" xlink:href="#m912fa55fde" y="138.407442"/>
      </g>
     </g>
     <g id="text_38">
      <!-- 150 -->
      <g transform="translate(27.9125 142.206661)scale(0.1 -0.1)">
       <use xlink:href="#DejaVuSans-49"/>
       <use x="63.623047" xlink:href="#DejaVuSans-53"/>
       <use x="127.246094" xlink:href="#DejaVuSans-48"/>
      </g>
     </g>
    </g>
    <g id="ytick_6">
     <g id="line2d_104">
      <g>
       <use style="stroke:#000000;stroke-width:0.8;" x="54" xlink:href="#m912fa55fde" y="109.105116"/>
      </g>
     </g>
     <g id="text_39">
      <!-- 200 -->
      <g transform="translate(27.9125 112.904335)scale(0.1 -0.1)">
       <use xlink:href="#DejaVuSans-50"/>
       <use x="63.623047" xlink:href="#DejaVuSans-48"/>
       <use x="127.246094" xlink:href="#DejaVuSans-48"/>
      </g>
     </g>
    </g>
    <g id="ytick_7">
     <g id="line2d_105">
      <g>
       <use style="stroke:#000000;stroke-width:0.8;" x="54" xlink:href="#m912fa55fde" y="79.802791"/>
      </g>
     </g>
     <g id="text_40">
      <!-- 250 -->
      <g transform="translate(27.9125 83.602009)scale(0.1 -0.1)">
       <use xlink:href="#DejaVuSans-50"/>
       <use x="63.623047" xlink:href="#DejaVuSans-53"/>
       <use x="127.246094" xlink:href="#DejaVuSans-48"/>
      </g>
     </g>
    </g>
    <g id="ytick_8">
     <g id="line2d_106">
      <g>
       <use style="stroke:#000000;stroke-width:0.8;" x="54" xlink:href="#m912fa55fde" y="50.500465"/>
      </g>
     </g>
     <g id="text_41">
      <!-- 300 -->
      <g transform="translate(27.9125 54.299684)scale(0.1 -0.1)">
       <use xlink:href="#DejaVuSans-51"/>
       <use x="63.623047" xlink:href="#DejaVuSans-48"/>
       <use x="127.246094" xlink:href="#DejaVuSans-48"/>
      </g>
     </g>
    </g>
   </g>
   <g id="line2d_107">
    <path clip-path="url(#pf3c7644f65)" d="M 70.463023 226.314419 
L 73.575125 226.314419 
L 76.687228 226.314419 
L 79.799331 226.314419 
L 82.911433 226.314419 
L 86.023536 226.314419 
L 89.135639 226.314419 
L 92.247741 226.314419 
L 95.359844 226.314419 
L 98.471946 226.314419 
L 101.584049 226.314419 
L 104.696152 226.314419 
L 107.808254 226.314419 
L 110.920357 226.314419 
L 114.03246 226.314419 
L 117.144562 226.314419 
L 120.256665 226.314419 
L 123.368767 226.314419 
L 126.48087 226.314419 
L 129.592973 226.314419 
L 132.705075 226.314419 
L 135.817178 226.314419 
L 138.929281 226.314419 
L 142.041383 226.314419 
L 145.153486 226.314419 
L 148.265588 226.314419 
L 151.377691 226.314419 
L 154.489794 226.314419 
L 157.601896 226.314419 
L 160.713999 226.314419 
L 163.826102 226.314419 
L 166.938204 226.314419 
L 170.050307 226.314419 
L 173.162409 226.314419 
L 176.274512 226.314419 
L 179.386615 226.314419 
L 182.498717 226.314419 
L 185.61082 226.314419 
L 188.722922 226.314419 
L 191.835025 226.230698 
L 194.947128 226.146977 
L 198.05923 226.146977 
L 201.171333 225.979535 
L 204.283436 225.979535 
L 207.395538 225.979535 
L 210.507641 225.728372 
L 213.619743 225.56093 
L 216.731846 224.974884 
L 219.843949 224.807442 
L 222.956051 224.974884 
L 226.068154 222.88186 
L 229.180257 222.044651 
L 232.292359 222.295814 
L 235.404462 219.19814 
L 238.516564 214.342326 
L 241.628667 214.509767 
L 244.74077 212.08186 
L 247.852872 209.570233 
L 250.964975 207.644651 
L 254.077078 203.877209 
L 257.18918 199.105116 
L 260.301283 194.91907 
L 263.413385 187.384186 
L 266.525488 165.19814 
L 269.637591 162.100465 
L 272.749693 156.323721 
L 275.861796 146.277209 
L 278.973898 138.993488 
L 282.086001 144.435349 
L 285.198104 132.88186 
L 288.310206 148.035349 
L 291.422309 147.533023 
L 294.534412 141.756279 
L 297.646514 144.267907 
L 300.758617 143.179535 
L 303.870719 125.179535 
L 306.982822 145.942326 
L 310.094925 144.184186 
L 313.207027 139.495814 
L 316.31913 141.756279 
L 319.431233 146.612093 
L 322.543335 162.853953 
L 325.655438 159.170233 
L 328.76754 148.956279 
L 331.879643 151.635349 
L 334.991746 155.988837 
L 338.103848 159.086512 
L 341.215951 153.477209 
L 344.328054 143.095814 
L 347.440156 153.142326 
L 350.552259 149.877209 
L 353.664361 142.091163 
L 356.776464 153.477209 
L 359.888567 152.305116 
L 363.000669 154.900465 
" style="fill:none;stroke:#1f77b4;stroke-linecap:square;stroke-width:1.5;"/>
   </g>
   <g id="patch_101">
    <path d="M 54 256.32 
L 54 34.56 
" style="fill:none;stroke:#000000;stroke-linecap:square;stroke-linejoin:miter;stroke-width:0.8;"/>
   </g>
   <g id="patch_102">
    <path d="M 388.8 256.32 
L 388.8 34.56 
" style="fill:none;stroke:#000000;stroke-linecap:square;stroke-linejoin:miter;stroke-width:0.8;"/>
   </g>
   <g id="patch_103">
    <path d="M 54 256.32 
L 388.8 256.32 
" style="fill:none;stroke:#000000;stroke-linecap:square;stroke-linejoin:miter;stroke-width:0.8;"/>
   </g>
   <g id="patch_104">
    <path d="M 54 34.56 
L 388.8 34.56 
" style="fill:none;stroke:#000000;stroke-linecap:square;stroke-linejoin:miter;stroke-width:0.8;"/>
   </g>
   <g id="text_42">
    <!-- Confirmed Cases - - nv -->
    <defs>
     <path d="M 64.40625 67.28125 
L 64.40625 56.890625 
Q 59.421875 61.53125 53.78125 63.8125 
Q 48.140625 66.109375 41.796875 66.109375 
Q 29.296875 66.109375 22.65625 58.46875 
Q 16.015625 50.828125 16.015625 36.375 
Q 16.015625 21.96875 22.65625 14.328125 
Q 29.296875 6.6875 41.796875 6.6875 
Q 48.140625 6.6875 53.78125 8.984375 
Q 59.421875 11.28125 64.40625 15.921875 
L 64.40625 5.609375 
Q 59.234375 2.09375 53.4375 0.328125 
Q 47.65625 -1.421875 41.21875 -1.421875 
Q 24.65625 -1.421875 15.125 8.703125 
Q 5.609375 18.84375 5.609375 36.375 
Q 5.609375 53.953125 15.125 64.078125 
Q 24.65625 74.21875 41.21875 74.21875 
Q 47.75 74.21875 53.53125 72.484375 
Q 59.328125 70.75 64.40625 67.28125 
z
" id="DejaVuSans-67"/>
     <path d="M 30.609375 48.390625 
Q 23.390625 48.390625 19.1875 42.75 
Q 14.984375 37.109375 14.984375 27.296875 
Q 14.984375 17.484375 19.15625 11.84375 
Q 23.34375 6.203125 30.609375 6.203125 
Q 37.796875 6.203125 41.984375 11.859375 
Q 46.1875 17.53125 46.1875 27.296875 
Q 46.1875 37.015625 41.984375 42.703125 
Q 37.796875 48.390625 30.609375 48.390625 
z
M 30.609375 56 
Q 42.328125 56 49.015625 48.375 
Q 55.71875 40.765625 55.71875 27.296875 
Q 55.71875 13.875 49.015625 6.21875 
Q 42.328125 -1.421875 30.609375 -1.421875 
Q 18.84375 -1.421875 12.171875 6.21875 
Q 5.515625 13.875 5.515625 27.296875 
Q 5.515625 40.765625 12.171875 48.375 
Q 18.84375 56 30.609375 56 
z
" id="DejaVuSans-111"/>
     <path d="M 54.890625 33.015625 
L 54.890625 0 
L 45.90625 0 
L 45.90625 32.71875 
Q 45.90625 40.484375 42.875 44.328125 
Q 39.84375 48.1875 33.796875 48.1875 
Q 26.515625 48.1875 22.3125 43.546875 
Q 18.109375 38.921875 18.109375 30.90625 
L 18.109375 0 
L 9.078125 0 
L 9.078125 54.6875 
L 18.109375 54.6875 
L 18.109375 46.1875 
Q 21.34375 51.125 25.703125 53.5625 
Q 30.078125 56 35.796875 56 
Q 45.21875 56 50.046875 50.171875 
Q 54.890625 44.34375 54.890625 33.015625 
z
" id="DejaVuSans-110"/>
     <path d="M 37.109375 75.984375 
L 37.109375 68.5 
L 28.515625 68.5 
Q 23.6875 68.5 21.796875 66.546875 
Q 19.921875 64.59375 19.921875 59.515625 
L 19.921875 54.6875 
L 34.71875 54.6875 
L 34.71875 47.703125 
L 19.921875 47.703125 
L 19.921875 0 
L 10.890625 0 
L 10.890625 47.703125 
L 2.296875 47.703125 
L 2.296875 54.6875 
L 10.890625 54.6875 
L 10.890625 58.5 
Q 10.890625 67.625 15.140625 71.796875 
Q 19.390625 75.984375 28.609375 75.984375 
z
" id="DejaVuSans-102"/>
     <path d="M 9.421875 54.6875 
L 18.40625 54.6875 
L 18.40625 0 
L 9.421875 0 
z
M 9.421875 75.984375 
L 18.40625 75.984375 
L 18.40625 64.59375 
L 9.421875 64.59375 
z
" id="DejaVuSans-105"/>
     <path d="M 41.109375 46.296875 
Q 39.59375 47.171875 37.8125 47.578125 
Q 36.03125 48 33.890625 48 
Q 26.265625 48 22.1875 43.046875 
Q 18.109375 38.09375 18.109375 28.8125 
L 18.109375 0 
L 9.078125 0 
L 9.078125 54.6875 
L 18.109375 54.6875 
L 18.109375 46.1875 
Q 20.953125 51.171875 25.484375 53.578125 
Q 30.03125 56 36.53125 56 
Q 37.453125 56 38.578125 55.875 
Q 39.703125 55.765625 41.0625 55.515625 
z
" id="DejaVuSans-114"/>
     <path d="M 52 44.1875 
Q 55.375 50.25 60.0625 53.125 
Q 64.75 56 71.09375 56 
Q 79.640625 56 84.28125 50.015625 
Q 88.921875 44.046875 88.921875 33.015625 
L 88.921875 0 
L 79.890625 0 
L 79.890625 32.71875 
Q 79.890625 40.578125 77.09375 44.375 
Q 74.3125 48.1875 68.609375 48.1875 
Q 61.625 48.1875 57.5625 43.546875 
Q 53.515625 38.921875 53.515625 30.90625 
L 53.515625 0 
L 44.484375 0 
L 44.484375 32.71875 
Q 44.484375 40.625 41.703125 44.40625 
Q 38.921875 48.1875 33.109375 48.1875 
Q 26.21875 48.1875 22.15625 43.53125 
Q 18.109375 38.875 18.109375 30.90625 
L 18.109375 0 
L 9.078125 0 
L 9.078125 54.6875 
L 18.109375 54.6875 
L 18.109375 46.1875 
Q 21.1875 51.21875 25.484375 53.609375 
Q 29.78125 56 35.6875 56 
Q 41.65625 56 45.828125 52.96875 
Q 50 49.953125 52 44.1875 
z
" id="DejaVuSans-109"/>
     <path d="M 56.203125 29.59375 
L 56.203125 25.203125 
L 14.890625 25.203125 
Q 15.484375 15.921875 20.484375 11.0625 
Q 25.484375 6.203125 34.421875 6.203125 
Q 39.59375 6.203125 44.453125 7.46875 
Q 49.3125 8.734375 54.109375 11.28125 
L 54.109375 2.78125 
Q 49.265625 0.734375 44.1875 -0.34375 
Q 39.109375 -1.421875 33.890625 -1.421875 
Q 20.796875 -1.421875 13.15625 6.1875 
Q 5.515625 13.8125 5.515625 26.8125 
Q 5.515625 40.234375 12.765625 48.109375 
Q 20.015625 56 32.328125 56 
Q 43.359375 56 49.78125 48.890625 
Q 56.203125 41.796875 56.203125 29.59375 
z
M 47.21875 32.234375 
Q 47.125 39.59375 43.09375 43.984375 
Q 39.0625 48.390625 32.421875 48.390625 
Q 24.90625 48.390625 20.390625 44.140625 
Q 15.875 39.890625 15.1875 32.171875 
z
" id="DejaVuSans-101"/>
     <path d="M 45.40625 46.390625 
L 45.40625 75.984375 
L 54.390625 75.984375 
L 54.390625 0 
L 45.40625 0 
L 45.40625 8.203125 
Q 42.578125 3.328125 38.25 0.953125 
Q 33.9375 -1.421875 27.875 -1.421875 
Q 17.96875 -1.421875 11.734375 6.484375 
Q 5.515625 14.40625 5.515625 27.296875 
Q 5.515625 40.1875 11.734375 48.09375 
Q 17.96875 56 27.875 56 
Q 33.9375 56 38.25 53.625 
Q 42.578125 51.265625 45.40625 46.390625 
z
M 14.796875 27.296875 
Q 14.796875 17.390625 18.875 11.75 
Q 22.953125 6.109375 30.078125 6.109375 
Q 37.203125 6.109375 41.296875 11.75 
Q 45.40625 17.390625 45.40625 27.296875 
Q 45.40625 37.203125 41.296875 42.84375 
Q 37.203125 48.484375 30.078125 48.484375 
Q 22.953125 48.484375 18.875 42.84375 
Q 14.796875 37.203125 14.796875 27.296875 
z
" id="DejaVuSans-100"/>
     <path id="DejaVuSans-32"/>
     <path d="M 34.28125 27.484375 
Q 23.390625 27.484375 19.1875 25 
Q 14.984375 22.515625 14.984375 16.5 
Q 14.984375 11.71875 18.140625 8.90625 
Q 21.296875 6.109375 26.703125 6.109375 
Q 34.1875 6.109375 38.703125 11.40625 
Q 43.21875 16.703125 43.21875 25.484375 
L 43.21875 27.484375 
z
M 52.203125 31.203125 
L 52.203125 0 
L 43.21875 0 
L 43.21875 8.296875 
Q 40.140625 3.328125 35.546875 0.953125 
Q 30.953125 -1.421875 24.3125 -1.421875 
Q 15.921875 -1.421875 10.953125 3.296875 
Q 6 8.015625 6 15.921875 
Q 6 25.140625 12.171875 29.828125 
Q 18.359375 34.515625 30.609375 34.515625 
L 43.21875 34.515625 
L 43.21875 35.40625 
Q 43.21875 41.609375 39.140625 45 
Q 35.0625 48.390625 27.6875 48.390625 
Q 23 48.390625 18.546875 47.265625 
Q 14.109375 46.140625 10.015625 43.890625 
L 10.015625 52.203125 
Q 14.9375 54.109375 19.578125 55.046875 
Q 24.21875 56 28.609375 56 
Q 40.484375 56 46.34375 49.84375 
Q 52.203125 43.703125 52.203125 31.203125 
z
" id="DejaVuSans-97"/>
     <path d="M 44.28125 53.078125 
L 44.28125 44.578125 
Q 40.484375 46.53125 36.375 47.5 
Q 32.28125 48.484375 27.875 48.484375 
Q 21.1875 48.484375 17.84375 46.4375 
Q 14.5 44.390625 14.5 40.28125 
Q 14.5 37.15625 16.890625 35.375 
Q 19.28125 33.59375 26.515625 31.984375 
L 29.59375 31.296875 
Q 39.15625 29.25 43.1875 25.515625 
Q 47.21875 21.78125 47.21875 15.09375 
Q 47.21875 7.46875 41.1875 3.015625 
Q 35.15625 -1.421875 24.609375 -1.421875 
Q 20.21875 -1.421875 15.453125 -0.5625 
Q 10.6875 0.296875 5.421875 2 
L 5.421875 11.28125 
Q 10.40625 8.6875 15.234375 7.390625 
Q 20.0625 6.109375 24.8125 6.109375 
Q 31.15625 6.109375 34.5625 8.28125 
Q 37.984375 10.453125 37.984375 14.40625 
Q 37.984375 18.0625 35.515625 20.015625 
Q 33.0625 21.96875 24.703125 23.78125 
L 21.578125 24.515625 
Q 13.234375 26.265625 9.515625 29.90625 
Q 5.8125 33.546875 5.8125 39.890625 
Q 5.8125 47.609375 11.28125 51.796875 
Q 16.75 56 26.8125 56 
Q 31.78125 56 36.171875 55.265625 
Q 40.578125 54.546875 44.28125 53.078125 
z
" id="DejaVuSans-115"/>
     <path d="M 4.890625 31.390625 
L 31.203125 31.390625 
L 31.203125 23.390625 
L 4.890625 23.390625 
z
" id="DejaVuSans-45"/>
     <path d="M 2.984375 54.6875 
L 12.5 54.6875 
L 29.59375 8.796875 
L 46.6875 54.6875 
L 56.203125 54.6875 
L 35.6875 0 
L 23.484375 0 
z
" id="DejaVuSans-118"/>
    </defs>
    <g transform="translate(154.933125 28.56)scale(0.12 -0.12)">
     <use xlink:href="#DejaVuSans-67"/>
     <use x="69.824219" xlink:href="#DejaVuSans-111"/>
     <use x="131.005859" xlink:href="#DejaVuSans-110"/>
     <use x="194.384766" xlink:href="#DejaVuSans-102"/>
     <use x="229.589844" xlink:href="#DejaVuSans-105"/>
     <use x="257.373047" xlink:href="#DejaVuSans-114"/>
     <use x="298.470703" xlink:href="#DejaVuSans-109"/>
     <use x="395.882812" xlink:href="#DejaVuSans-101"/>
     <use x="457.40625" xlink:href="#DejaVuSans-100"/>
     <use x="520.882812" xlink:href="#DejaVuSans-32"/>
     <use x="552.669922" xlink:href="#DejaVuSans-67"/>
     <use x="622.494141" xlink:href="#DejaVuSans-97"/>
     <use x="683.773438" xlink:href="#DejaVuSans-115"/>
     <use x="735.873047" xlink:href="#DejaVuSans-101"/>
     <use x="797.396484" xlink:href="#DejaVuSans-115"/>
     <use x="849.496094" xlink:href="#DejaVuSans-32"/>
     <use x="881.283203" xlink:href="#DejaVuSans-45"/>
     <use x="917.367188" xlink:href="#DejaVuSans-45"/>
     <use x="953.451172" xlink:href="#DejaVuSans-32"/>
     <use x="985.238281" xlink:href="#DejaVuSans-110"/>
     <use x="1048.617188" xlink:href="#DejaVuSans-118"/>
    </g>
   </g>
   <g id="legend_1">
    <g id="patch_105">
     <path d="M 61 71.91625 
L 177.784375 71.91625 
Q 179.784375 71.91625 179.784375 69.91625 
L 179.784375 41.56 
Q 179.784375 39.56 177.784375 39.56 
L 61 39.56 
Q 59 39.56 59 41.56 
L 59 69.91625 
Q 59 71.91625 61 71.91625 
z
" style="fill:#ffffff;opacity:0.8;stroke:#cccccc;stroke-linejoin:miter;"/>
    </g>
    <g id="patch_106">
     <path d="M 63 51.158437 
L 83 51.158437 
L 83 44.158437 
L 63 44.158437 
z
" style="fill:#ffa500;"/>
    </g>
    <g id="text_43">
     <!-- (est.) daily count -->
     <defs>
      <path d="M 31 75.875 
Q 24.46875 64.65625 21.28125 53.65625 
Q 18.109375 42.671875 18.109375 31.390625 
Q 18.109375 20.125 21.3125 9.0625 
Q 24.515625 -2 31 -13.1875 
L 23.1875 -13.1875 
Q 15.875 -1.703125 12.234375 9.375 
Q 8.59375 20.453125 8.59375 31.390625 
Q 8.59375 42.28125 12.203125 53.3125 
Q 15.828125 64.359375 23.1875 75.875 
z
" id="DejaVuSans-40"/>
      <path d="M 18.3125 70.21875 
L 18.3125 54.6875 
L 36.8125 54.6875 
L 36.8125 47.703125 
L 18.3125 47.703125 
L 18.3125 18.015625 
Q 18.3125 11.328125 20.140625 9.421875 
Q 21.96875 7.515625 27.59375 7.515625 
L 36.8125 7.515625 
L 36.8125 0 
L 27.59375 0 
Q 17.1875 0 13.234375 3.875 
Q 9.28125 7.765625 9.28125 18.015625 
L 9.28125 47.703125 
L 2.6875 47.703125 
L 2.6875 54.6875 
L 9.28125 54.6875 
L 9.28125 70.21875 
z
" id="DejaVuSans-116"/>
      <path d="M 10.6875 12.40625 
L 21 12.40625 
L 21 0 
L 10.6875 0 
z
" id="DejaVuSans-46"/>
      <path d="M 8.015625 75.875 
L 15.828125 75.875 
Q 23.140625 64.359375 26.78125 53.3125 
Q 30.421875 42.28125 30.421875 31.390625 
Q 30.421875 20.453125 26.78125 9.375 
Q 23.140625 -1.703125 15.828125 -13.1875 
L 8.015625 -13.1875 
Q 14.5 -2 17.703125 9.0625 
Q 20.90625 20.125 20.90625 31.390625 
Q 20.90625 42.671875 17.703125 53.65625 
Q 14.5 64.65625 8.015625 75.875 
z
" id="DejaVuSans-41"/>
      <path d="M 9.421875 75.984375 
L 18.40625 75.984375 
L 18.40625 0 
L 9.421875 0 
z
" id="DejaVuSans-108"/>
      <path d="M 32.171875 -5.078125 
Q 28.375 -14.84375 24.75 -17.8125 
Q 21.140625 -20.796875 15.09375 -20.796875 
L 7.90625 -20.796875 
L 7.90625 -13.28125 
L 13.1875 -13.28125 
Q 16.890625 -13.28125 18.9375 -11.515625 
Q 21 -9.765625 23.484375 -3.21875 
L 25.09375 0.875 
L 2.984375 54.6875 
L 12.5 54.6875 
L 29.59375 11.921875 
L 46.6875 54.6875 
L 56.203125 54.6875 
z
" id="DejaVuSans-121"/>
      <path d="M 48.78125 52.59375 
L 48.78125 44.1875 
Q 44.96875 46.296875 41.140625 47.34375 
Q 37.3125 48.390625 33.40625 48.390625 
Q 24.65625 48.390625 19.8125 42.84375 
Q 14.984375 37.3125 14.984375 27.296875 
Q 14.984375 17.28125 19.8125 11.734375 
Q 24.65625 6.203125 33.40625 6.203125 
Q 37.3125 6.203125 41.140625 7.25 
Q 44.96875 8.296875 48.78125 10.40625 
L 48.78125 2.09375 
Q 45.015625 0.34375 40.984375 -0.53125 
Q 36.96875 -1.421875 32.421875 -1.421875 
Q 20.0625 -1.421875 12.78125 6.34375 
Q 5.515625 14.109375 5.515625 27.296875 
Q 5.515625 40.671875 12.859375 48.328125 
Q 20.21875 56 33.015625 56 
Q 37.15625 56 41.109375 55.140625 
Q 45.0625 54.296875 48.78125 52.59375 
z
" id="DejaVuSans-99"/>
      <path d="M 8.5 21.578125 
L 8.5 54.6875 
L 17.484375 54.6875 
L 17.484375 21.921875 
Q 17.484375 14.15625 20.5 10.265625 
Q 23.53125 6.390625 29.59375 6.390625 
Q 36.859375 6.390625 41.078125 11.03125 
Q 45.3125 15.671875 45.3125 23.6875 
L 45.3125 54.6875 
L 54.296875 54.6875 
L 54.296875 0 
L 45.3125 0 
L 45.3125 8.40625 
Q 42.046875 3.421875 37.71875 1 
Q 33.40625 -1.421875 27.6875 -1.421875 
Q 18.265625 -1.421875 13.375 4.4375 
Q 8.5 10.296875 8.5 21.578125 
z
M 31.109375 56 
z
" id="DejaVuSans-117"/>
     </defs>
     <g transform="translate(91 51.158437)scale(0.1 -0.1)">
      <use xlink:href="#DejaVuSans-40"/>
      <use x="39.013672" xlink:href="#DejaVuSans-101"/>
      <use x="100.537109" xlink:href="#DejaVuSans-115"/>
      <use x="152.636719" xlink:href="#DejaVuSans-116"/>
      <use x="191.845703" xlink:href="#DejaVuSans-46"/>
      <use x="223.632812" xlink:href="#DejaVuSans-41"/>
      <use x="262.646484" xlink:href="#DejaVuSans-32"/>
      <use x="294.433594" xlink:href="#DejaVuSans-100"/>
      <use x="357.910156" xlink:href="#DejaVuSans-97"/>
      <use x="419.189453" xlink:href="#DejaVuSans-105"/>
      <use x="446.972656" xlink:href="#DejaVuSans-108"/>
      <use x="474.755859" xlink:href="#DejaVuSans-121"/>
      <use x="533.935547" xlink:href="#DejaVuSans-32"/>
      <use x="565.722656" xlink:href="#DejaVuSans-99"/>
      <use x="620.703125" xlink:href="#DejaVuSans-111"/>
      <use x="681.884766" xlink:href="#DejaVuSans-117"/>
      <use x="745.263672" xlink:href="#DejaVuSans-110"/>
      <use x="808.642578" xlink:href="#DejaVuSans-116"/>
     </g>
    </g>
    <g id="line2d_108">
     <path d="M 63 62.336562 
L 83 62.336562 
" style="fill:none;stroke:#1f77b4;stroke-linecap:square;stroke-width:1.5;"/>
    </g>
    <g id="line2d_109"/>
    <g id="text_44">
     <!-- 7 day average -->
     <defs>
      <path d="M 45.40625 27.984375 
Q 45.40625 37.75 41.375 43.109375 
Q 37.359375 48.484375 30.078125 48.484375 
Q 22.859375 48.484375 18.828125 43.109375 
Q 14.796875 37.75 14.796875 27.984375 
Q 14.796875 18.265625 18.828125 12.890625 
Q 22.859375 7.515625 30.078125 7.515625 
Q 37.359375 7.515625 41.375 12.890625 
Q 45.40625 18.265625 45.40625 27.984375 
z
M 54.390625 6.78125 
Q 54.390625 -7.171875 48.1875 -13.984375 
Q 42 -20.796875 29.203125 -20.796875 
Q 24.46875 -20.796875 20.265625 -20.09375 
Q 16.0625 -19.390625 12.109375 -17.921875 
L 12.109375 -9.1875 
Q 16.0625 -11.328125 19.921875 -12.34375 
Q 23.78125 -13.375 27.78125 -13.375 
Q 36.625 -13.375 41.015625 -8.765625 
Q 45.40625 -4.15625 45.40625 5.171875 
L 45.40625 9.625 
Q 42.625 4.78125 38.28125 2.390625 
Q 33.9375 0 27.875 0 
Q 17.828125 0 11.671875 7.65625 
Q 5.515625 15.328125 5.515625 27.984375 
Q 5.515625 40.671875 11.671875 48.328125 
Q 17.828125 56 27.875 56 
Q 33.9375 56 38.28125 53.609375 
Q 42.625 51.21875 45.40625 46.390625 
L 45.40625 54.6875 
L 54.390625 54.6875 
z
" id="DejaVuSans-103"/>
     </defs>
     <g transform="translate(91 65.836562)scale(0.1 -0.1)">
      <use xlink:href="#DejaVuSans-55"/>
      <use x="63.623047" xlink:href="#DejaVuSans-32"/>
      <use x="95.410156" xlink:href="#DejaVuSans-100"/>
      <use x="158.886719" xlink:href="#DejaVuSans-97"/>
      <use x="220.166016" xlink:href="#DejaVuSans-121"/>
      <use x="279.345703" xlink:href="#DejaVuSans-32"/>
      <use x="311.132812" xlink:href="#DejaVuSans-97"/>
      <use x="372.412109" xlink:href="#DejaVuSans-118"/>
      <use x="431.591797" xlink:href="#DejaVuSans-101"/>
      <use x="493.115234" xlink:href="#DejaVuSans-114"/>
      <use x="534.228516" xlink:href="#DejaVuSans-97"/>
      <use x="595.507812" xlink:href="#DejaVuSans-103"/>
      <use x="658.984375" xlink:href="#DejaVuSans-101"/>
     </g>
    </g>
   </g>
  </g>
 </g>
 <defs>
  <clipPath id="pf3c7644f65">
   <rect height="221.76" width="334.8" x="54" y="34.56"/>
  </clipPath>
 </defs>
</svg>
