<?xml version="1.0" encoding="utf-8" standalone="no"?>
<!DOCTYPE svg PUBLIC "-//W3C//DTD SVG 1.1//EN"
  "http://www.w3.org/Graphics/SVG/1.1/DTD/svg11.dtd">
<!-- Created with matplotlib (https://matplotlib.org/) -->
<svg height="288pt" version="1.1" viewBox="0 0 432 288" width="432pt" xmlns="http://www.w3.org/2000/svg" xmlns:xlink="http://www.w3.org/1999/xlink">
 <defs>
  <style type="text/css">
*{stroke-linecap:butt;stroke-linejoin:round;}
  </style>
 </defs>
 <g id="figure_1">
  <g id="patch_1">
   <path d="M 0 288 
L 432 288 
L 432 0 
L 0 0 
z
" style="fill:#ffffff;"/>
  </g>
  <g id="axes_1">
   <g id="patch_2">
    <path d="M 54 256.32 
L 388.8 256.32 
L 388.8 34.56 
L 54 34.56 
z
" style="fill:#ffffff;"/>
   </g>
   <g id="patch_3">
    <path clip-path="url(#p5499e057f1)" d="M 69.218182 256.32 
L 71.682665 256.32 
L 71.682665 256.32 
L 69.218182 256.32 
z
" style="fill:#ffa500;"/>
   </g>
   <g id="patch_4">
    <path clip-path="url(#p5499e057f1)" d="M 72.298785 256.32 
L 74.763268 256.32 
L 74.763268 256.32 
L 72.298785 256.32 
z
" style="fill:#ffa500;"/>
   </g>
   <g id="patch_5">
    <path clip-path="url(#p5499e057f1)" d="M 75.379389 256.32 
L 77.843872 256.32 
L 77.843872 256.32 
L 75.379389 256.32 
z
" style="fill:#ffa500;"/>
   </g>
   <g id="patch_6">
    <path clip-path="url(#p5499e057f1)" d="M 78.459993 256.32 
L 80.924476 256.32 
L 80.924476 256.32 
L 78.459993 256.32 
z
" style="fill:#ffa500;"/>
   </g>
   <g id="patch_7">
    <path clip-path="url(#p5499e057f1)" d="M 81.540596 256.32 
L 84.005079 256.32 
L 84.005079 256.32 
L 81.540596 256.32 
z
" style="fill:#ffa500;"/>
   </g>
   <g id="patch_8">
    <path clip-path="url(#p5499e057f1)" d="M 84.6212 256.32 
L 87.085683 256.32 
L 87.085683 256.32 
L 84.6212 256.32 
z
" style="fill:#ffa500;"/>
   </g>
   <g id="patch_9">
    <path clip-path="url(#p5499e057f1)" d="M 87.701803 256.32 
L 90.166286 256.32 
L 90.166286 256.32 
L 87.701803 256.32 
z
" style="fill:#ffa500;"/>
   </g>
   <g id="patch_10">
    <path clip-path="url(#p5499e057f1)" d="M 90.782407 256.32 
L 93.24689 256.32 
L 93.24689 256.32 
L 90.782407 256.32 
z
" style="fill:#ffa500;"/>
   </g>
   <g id="patch_11">
    <path clip-path="url(#p5499e057f1)" d="M 93.863011 256.32 
L 96.327494 256.32 
L 96.327494 256.32 
L 93.863011 256.32 
z
" style="fill:#ffa500;"/>
   </g>
   <g id="patch_12">
    <path clip-path="url(#p5499e057f1)" d="M 96.943614 256.32 
L 99.408097 256.32 
L 99.408097 256.32 
L 96.943614 256.32 
z
" style="fill:#ffa500;"/>
   </g>
   <g id="patch_13">
    <path clip-path="url(#p5499e057f1)" d="M 100.024218 256.32 
L 102.488701 256.32 
L 102.488701 256.32 
L 100.024218 256.32 
z
" style="fill:#ffa500;"/>
   </g>
   <g id="patch_14">
    <path clip-path="url(#p5499e057f1)" d="M 103.104821 256.32 
L 105.569304 256.32 
L 105.569304 256.32 
L 103.104821 256.32 
z
" style="fill:#ffa500;"/>
   </g>
   <g id="patch_15">
    <path clip-path="url(#p5499e057f1)" d="M 106.185425 256.32 
L 108.649908 256.32 
L 108.649908 256.32 
L 106.185425 256.32 
z
" style="fill:#ffa500;"/>
   </g>
   <g id="patch_16">
    <path clip-path="url(#p5499e057f1)" d="M 109.266029 256.32 
L 111.730512 256.32 
L 111.730512 256.32 
L 109.266029 256.32 
z
" style="fill:#ffa500;"/>
   </g>
   <g id="patch_17">
    <path clip-path="url(#p5499e057f1)" d="M 112.346632 256.32 
L 114.811115 256.32 
L 114.811115 256.32 
L 112.346632 256.32 
z
" style="fill:#ffa500;"/>
   </g>
   <g id="patch_18">
    <path clip-path="url(#p5499e057f1)" d="M 115.427236 256.32 
L 117.891719 256.32 
L 117.891719 256.32 
L 115.427236 256.32 
z
" style="fill:#ffa500;"/>
   </g>
   <g id="patch_19">
    <path clip-path="url(#p5499e057f1)" d="M 118.50784 256.32 
L 120.972322 256.32 
L 120.972322 256.32 
L 118.50784 256.32 
z
" style="fill:#ffa500;"/>
   </g>
   <g id="patch_20">
    <path clip-path="url(#p5499e057f1)" d="M 121.588443 256.32 
L 124.052926 256.32 
L 124.052926 256.32 
L 121.588443 256.32 
z
" style="fill:#ffa500;"/>
   </g>
   <g id="patch_21">
    <path clip-path="url(#p5499e057f1)" d="M 124.669047 256.32 
L 127.13353 256.32 
L 127.13353 256.32 
L 124.669047 256.32 
z
" style="fill:#ffa500;"/>
   </g>
   <g id="patch_22">
    <path clip-path="url(#p5499e057f1)" d="M 127.74965 256.32 
L 130.214133 256.32 
L 130.214133 256.32 
L 127.74965 256.32 
z
" style="fill:#ffa500;"/>
   </g>
   <g id="patch_23">
    <path clip-path="url(#p5499e057f1)" d="M 130.830254 256.32 
L 133.294737 256.32 
L 133.294737 256.32 
L 130.830254 256.32 
z
" style="fill:#ffa500;"/>
   </g>
   <g id="patch_24">
    <path clip-path="url(#p5499e057f1)" d="M 133.910858 256.32 
L 136.37534 256.32 
L 136.37534 256.32 
L 133.910858 256.32 
z
" style="fill:#ffa500;"/>
   </g>
   <g id="patch_25">
    <path clip-path="url(#p5499e057f1)" d="M 136.991461 256.32 
L 139.455944 256.32 
L 139.455944 256.32 
L 136.991461 256.32 
z
" style="fill:#ffa500;"/>
   </g>
   <g id="patch_26">
    <path clip-path="url(#p5499e057f1)" d="M 140.072065 256.32 
L 142.536548 256.32 
L 142.536548 256.32 
L 140.072065 256.32 
z
" style="fill:#ffa500;"/>
   </g>
   <g id="patch_27">
    <path clip-path="url(#p5499e057f1)" d="M 143.152668 256.32 
L 145.617151 256.32 
L 145.617151 256.32 
L 143.152668 256.32 
z
" style="fill:#ffa500;"/>
   </g>
   <g id="patch_28">
    <path clip-path="url(#p5499e057f1)" d="M 146.233272 256.32 
L 148.697755 256.32 
L 148.697755 256.32 
L 146.233272 256.32 
z
" style="fill:#ffa500;"/>
   </g>
   <g id="patch_29">
    <path clip-path="url(#p5499e057f1)" d="M 149.313876 256.32 
L 151.778358 256.32 
L 151.778358 256.32 
L 149.313876 256.32 
z
" style="fill:#ffa500;"/>
   </g>
   <g id="patch_30">
    <path clip-path="url(#p5499e057f1)" d="M 152.394479 256.32 
L 154.858962 256.32 
L 154.858962 256.32 
L 152.394479 256.32 
z
" style="fill:#ffa500;"/>
   </g>
   <g id="patch_31">
    <path clip-path="url(#p5499e057f1)" d="M 155.475083 256.32 
L 157.939566 256.32 
L 157.939566 256.32 
L 155.475083 256.32 
z
" style="fill:#ffa500;"/>
   </g>
   <g id="patch_32">
    <path clip-path="url(#p5499e057f1)" d="M 158.555686 256.32 
L 161.020169 256.32 
L 161.020169 256.32 
L 158.555686 256.32 
z
" style="fill:#ffa500;"/>
   </g>
   <g id="patch_33">
    <path clip-path="url(#p5499e057f1)" d="M 161.63629 256.32 
L 164.100773 256.32 
L 164.100773 256.32 
L 161.63629 256.32 
z
" style="fill:#ffa500;"/>
   </g>
   <g id="patch_34">
    <path clip-path="url(#p5499e057f1)" d="M 164.716894 256.32 
L 167.181377 256.32 
L 167.181377 256.32 
L 164.716894 256.32 
z
" style="fill:#ffa500;"/>
   </g>
   <g id="patch_35">
    <path clip-path="url(#p5499e057f1)" d="M 167.797497 256.32 
L 170.26198 256.32 
L 170.26198 256.32 
L 167.797497 256.32 
z
" style="fill:#ffa500;"/>
   </g>
   <g id="patch_36">
    <path clip-path="url(#p5499e057f1)" d="M 170.878101 256.32 
L 173.342584 256.32 
L 173.342584 256.32 
L 170.878101 256.32 
z
" style="fill:#ffa500;"/>
   </g>
   <g id="patch_37">
    <path clip-path="url(#p5499e057f1)" d="M 173.958704 256.32 
L 176.423187 256.32 
L 176.423187 256.32 
L 173.958704 256.32 
z
" style="fill:#ffa500;"/>
   </g>
   <g id="patch_38">
    <path clip-path="url(#p5499e057f1)" d="M 177.039308 256.32 
L 179.503791 256.32 
L 179.503791 256.32 
L 177.039308 256.32 
z
" style="fill:#ffa500;"/>
   </g>
   <g id="patch_39">
    <path clip-path="url(#p5499e057f1)" d="M 180.119912 256.32 
L 182.584395 256.32 
L 182.584395 256.32 
L 180.119912 256.32 
z
" style="fill:#ffa500;"/>
   </g>
   <g id="patch_40">
    <path clip-path="url(#p5499e057f1)" d="M 183.200515 256.32 
L 185.664998 256.32 
L 185.664998 256.32 
L 183.200515 256.32 
z
" style="fill:#ffa500;"/>
   </g>
   <g id="patch_41">
    <path clip-path="url(#p5499e057f1)" d="M 186.281119 256.32 
L 188.745602 256.32 
L 188.745602 256.32 
L 186.281119 256.32 
z
" style="fill:#ffa500;"/>
   </g>
   <g id="patch_42">
    <path clip-path="url(#p5499e057f1)" d="M 189.361722 256.32 
L 191.826205 256.32 
L 191.826205 256.32 
L 189.361722 256.32 
z
" style="fill:#ffa500;"/>
   </g>
   <g id="patch_43">
    <path clip-path="url(#p5499e057f1)" d="M 192.442326 256.32 
L 194.906809 256.32 
L 194.906809 256.32 
L 192.442326 256.32 
z
" style="fill:#ffa500;"/>
   </g>
   <g id="patch_44">
    <path clip-path="url(#p5499e057f1)" d="M 195.52293 256.32 
L 197.987413 256.32 
L 197.987413 256.32 
L 195.52293 256.32 
z
" style="fill:#ffa500;"/>
   </g>
   <g id="patch_45">
    <path clip-path="url(#p5499e057f1)" d="M 198.603533 256.32 
L 201.068016 256.32 
L 201.068016 256.32 
L 198.603533 256.32 
z
" style="fill:#ffa500;"/>
   </g>
   <g id="patch_46">
    <path clip-path="url(#p5499e057f1)" d="M 201.684137 256.32 
L 204.14862 256.32 
L 204.14862 256.32 
L 201.684137 256.32 
z
" style="fill:#ffa500;"/>
   </g>
   <g id="patch_47">
    <path clip-path="url(#p5499e057f1)" d="M 204.764741 256.32 
L 207.229223 256.32 
L 207.229223 256.32 
L 204.764741 256.32 
z
" style="fill:#ffa500;"/>
   </g>
   <g id="patch_48">
    <path clip-path="url(#p5499e057f1)" d="M 207.845344 256.32 
L 210.309827 256.32 
L 210.309827 256.32 
L 207.845344 256.32 
z
" style="fill:#ffa500;"/>
   </g>
   <g id="patch_49">
    <path clip-path="url(#p5499e057f1)" d="M 210.925948 256.32 
L 213.390431 256.32 
L 213.390431 256.32 
L 210.925948 256.32 
z
" style="fill:#ffa500;"/>
   </g>
   <g id="patch_50">
    <path clip-path="url(#p5499e057f1)" d="M 214.006551 256.32 
L 216.471034 256.32 
L 216.471034 256.32 
L 214.006551 256.32 
z
" style="fill:#ffa500;"/>
   </g>
   <g id="patch_51">
    <path clip-path="url(#p5499e057f1)" d="M 217.087155 256.32 
L 219.551638 256.32 
L 219.551638 256.32 
L 217.087155 256.32 
z
" style="fill:#ffa500;"/>
   </g>
   <g id="patch_52">
    <path clip-path="url(#p5499e057f1)" d="M 220.167759 256.32 
L 222.632241 256.32 
L 222.632241 256.32 
L 220.167759 256.32 
z
" style="fill:#ffa500;"/>
   </g>
   <g id="patch_53">
    <path clip-path="url(#p5499e057f1)" d="M 223.248362 256.32 
L 225.712845 256.32 
L 225.712845 256.32 
L 223.248362 256.32 
z
" style="fill:#ffa500;"/>
   </g>
   <g id="patch_54">
    <path clip-path="url(#p5499e057f1)" d="M 226.328966 256.32 
L 228.793449 256.32 
L 228.793449 256.32 
L 226.328966 256.32 
z
" style="fill:#ffa500;"/>
   </g>
   <g id="patch_55">
    <path clip-path="url(#p5499e057f1)" d="M 229.409569 256.32 
L 231.874052 256.32 
L 231.874052 256.32 
L 229.409569 256.32 
z
" style="fill:#ffa500;"/>
   </g>
   <g id="patch_56">
    <path clip-path="url(#p5499e057f1)" d="M 232.490173 256.32 
L 234.954656 256.32 
L 234.954656 237.12 
L 232.490173 237.12 
z
" style="fill:#ffa500;"/>
   </g>
   <g id="patch_57">
    <path clip-path="url(#p5499e057f1)" d="M 235.570777 256.32 
L 238.035259 256.32 
L 238.035259 256.32 
L 235.570777 256.32 
z
" style="fill:#ffa500;"/>
   </g>
   <g id="patch_58">
    <path clip-path="url(#p5499e057f1)" d="M 238.65138 256.32 
L 241.115863 256.32 
L 241.115863 256.32 
L 238.65138 256.32 
z
" style="fill:#ffa500;"/>
   </g>
   <g id="patch_59">
    <path clip-path="url(#p5499e057f1)" d="M 241.731984 256.32 
L 244.196467 256.32 
L 244.196467 217.92 
L 241.731984 217.92 
z
" style="fill:#ffa500;"/>
   </g>
   <g id="patch_60">
    <path clip-path="url(#p5499e057f1)" d="M 244.812587 256.32 
L 247.27707 256.32 
L 247.27707 256.32 
L 244.812587 256.32 
z
" style="fill:#ffa500;"/>
   </g>
   <g id="patch_61">
    <path clip-path="url(#p5499e057f1)" d="M 247.893191 256.32 
L 250.357674 256.32 
L 250.357674 256.32 
L 247.893191 256.32 
z
" style="fill:#ffa500;"/>
   </g>
   <g id="patch_62">
    <path clip-path="url(#p5499e057f1)" d="M 250.973795 256.32 
L 253.438278 256.32 
L 253.438278 237.12 
L 250.973795 237.12 
z
" style="fill:#ffa500;"/>
   </g>
   <g id="patch_63">
    <path clip-path="url(#p5499e057f1)" d="M 254.054398 256.32 
L 256.518881 256.32 
L 256.518881 237.12 
L 254.054398 237.12 
z
" style="fill:#ffa500;"/>
   </g>
   <g id="patch_64">
    <path clip-path="url(#p5499e057f1)" d="M 257.135002 256.32 
L 259.599485 256.32 
L 259.599485 256.32 
L 257.135002 256.32 
z
" style="fill:#ffa500;"/>
   </g>
   <g id="patch_65">
    <path clip-path="url(#p5499e057f1)" d="M 260.215605 256.32 
L 262.680088 256.32 
L 262.680088 198.72 
L 260.215605 198.72 
z
" style="fill:#ffa500;"/>
   </g>
   <g id="patch_66">
    <path clip-path="url(#p5499e057f1)" d="M 263.296209 256.32 
L 265.760692 256.32 
L 265.760692 217.92 
L 263.296209 217.92 
z
" style="fill:#ffa500;"/>
   </g>
   <g id="patch_67">
    <path clip-path="url(#p5499e057f1)" d="M 266.376813 256.32 
L 268.841296 256.32 
L 268.841296 237.12 
L 266.376813 237.12 
z
" style="fill:#ffa500;"/>
   </g>
   <g id="patch_68">
    <path clip-path="url(#p5499e057f1)" d="M 269.457416 256.32 
L 271.921899 256.32 
L 271.921899 237.12 
L 269.457416 237.12 
z
" style="fill:#ffa500;"/>
   </g>
   <g id="patch_69">
    <path clip-path="url(#p5499e057f1)" d="M 272.53802 256.32 
L 275.002503 256.32 
L 275.002503 237.12 
L 272.53802 237.12 
z
" style="fill:#ffa500;"/>
   </g>
   <g id="patch_70">
    <path clip-path="url(#p5499e057f1)" d="M 275.618623 256.32 
L 278.083106 256.32 
L 278.083106 256.32 
L 275.618623 256.32 
z
" style="fill:#ffa500;"/>
   </g>
   <g id="patch_71">
    <path clip-path="url(#p5499e057f1)" d="M 278.699227 256.32 
L 281.16371 256.32 
L 281.16371 198.72 
L 278.699227 198.72 
z
" style="fill:#ffa500;"/>
   </g>
   <g id="patch_72">
    <path clip-path="url(#p5499e057f1)" d="M 281.779831 256.32 
L 284.244314 256.32 
L 284.244314 217.92 
L 281.779831 217.92 
z
" style="fill:#ffa500;"/>
   </g>
   <g id="patch_73">
    <path clip-path="url(#p5499e057f1)" d="M 284.860434 256.32 
L 287.324917 256.32 
L 287.324917 237.12 
L 284.860434 237.12 
z
" style="fill:#ffa500;"/>
   </g>
   <g id="patch_74">
    <path clip-path="url(#p5499e057f1)" d="M 287.941038 256.32 
L 290.405521 256.32 
L 290.405521 217.92 
L 287.941038 217.92 
z
" style="fill:#ffa500;"/>
   </g>
   <g id="patch_75">
    <path clip-path="url(#p5499e057f1)" d="M 291.021642 256.32 
L 293.486124 256.32 
L 293.486124 237.12 
L 291.021642 237.12 
z
" style="fill:#ffa500;"/>
   </g>
   <g id="patch_76">
    <path clip-path="url(#p5499e057f1)" d="M 294.102245 256.32 
L 296.566728 256.32 
L 296.566728 256.32 
L 294.102245 256.32 
z
" style="fill:#ffa500;"/>
   </g>
   <g id="patch_77">
    <path clip-path="url(#p5499e057f1)" d="M 297.182849 256.32 
L 299.647332 256.32 
L 299.647332 160.32 
L 297.182849 160.32 
z
" style="fill:#ffa500;"/>
   </g>
   <g id="patch_78">
    <path clip-path="url(#p5499e057f1)" d="M 300.263452 256.32 
L 302.727935 256.32 
L 302.727935 256.32 
L 300.263452 256.32 
z
" style="fill:#ffa500;"/>
   </g>
   <g id="patch_79">
    <path clip-path="url(#p5499e057f1)" d="M 303.344056 256.32 
L 305.808539 256.32 
L 305.808539 217.92 
L 303.344056 217.92 
z
" style="fill:#ffa500;"/>
   </g>
   <g id="patch_80">
    <path clip-path="url(#p5499e057f1)" d="M 306.42466 256.32 
L 308.889142 256.32 
L 308.889142 179.52 
L 306.42466 179.52 
z
" style="fill:#ffa500;"/>
   </g>
   <g id="patch_81">
    <path clip-path="url(#p5499e057f1)" d="M 309.505263 256.32 
L 311.969746 256.32 
L 311.969746 45.12 
L 309.505263 45.12 
z
" style="fill:#ffa500;"/>
   </g>
   <g id="patch_82">
    <path clip-path="url(#p5499e057f1)" d="M 312.585867 256.32 
L 315.05035 256.32 
L 315.05035 256.32 
L 312.585867 256.32 
z
" style="fill:#ffa500;"/>
   </g>
   <g id="patch_83">
    <path clip-path="url(#p5499e057f1)" d="M 315.66647 256.32 
L 318.130953 256.32 
L 318.130953 179.52 
L 315.66647 179.52 
z
" style="fill:#ffa500;"/>
   </g>
   <g id="patch_84">
    <path clip-path="url(#p5499e057f1)" d="M 318.747074 256.32 
L 321.211557 256.32 
L 321.211557 179.52 
L 318.747074 179.52 
z
" style="fill:#ffa500;"/>
   </g>
   <g id="patch_85">
    <path clip-path="url(#p5499e057f1)" d="M 321.827678 256.32 
L 324.29216 256.32 
L 324.29216 237.12 
L 321.827678 237.12 
z
" style="fill:#ffa500;"/>
   </g>
   <g id="patch_86">
    <path clip-path="url(#p5499e057f1)" d="M 324.908281 256.32 
L 327.372764 256.32 
L 327.372764 217.92 
L 324.908281 217.92 
z
" style="fill:#ffa500;"/>
   </g>
   <g id="patch_87">
    <path clip-path="url(#p5499e057f1)" d="M 327.988885 256.32 
L 330.453368 256.32 
L 330.453368 198.72 
L 327.988885 198.72 
z
" style="fill:#ffa500;"/>
   </g>
   <g id="patch_88">
    <path clip-path="url(#p5499e057f1)" d="M 331.069488 256.32 
L 333.533971 256.32 
L 333.533971 141.12 
L 331.069488 141.12 
z
" style="fill:#ffa500;"/>
   </g>
   <g id="patch_89">
    <path clip-path="url(#p5499e057f1)" d="M 334.150092 256.32 
L 336.614575 256.32 
L 336.614575 141.12 
L 334.150092 141.12 
z
" style="fill:#ffa500;"/>
   </g>
   <g id="patch_90">
    <path clip-path="url(#p5499e057f1)" d="M 337.230696 256.32 
L 339.695179 256.32 
L 339.695179 217.92 
L 337.230696 217.92 
z
" style="fill:#ffa500;"/>
   </g>
   <g id="patch_91">
    <path clip-path="url(#p5499e057f1)" d="M 340.311299 256.32 
L 342.775782 256.32 
L 342.775782 217.92 
L 340.311299 217.92 
z
" style="fill:#ffa500;"/>
   </g>
   <g id="patch_92">
    <path clip-path="url(#p5499e057f1)" d="M 343.391903 256.32 
L 345.856386 256.32 
L 345.856386 237.12 
L 343.391903 237.12 
z
" style="fill:#ffa500;"/>
   </g>
   <g id="patch_93">
    <path clip-path="url(#p5499e057f1)" d="M 346.472506 256.32 
L 348.936989 256.32 
L 348.936989 198.72 
L 346.472506 198.72 
z
" style="fill:#ffa500;"/>
   </g>
   <g id="patch_94">
    <path clip-path="url(#p5499e057f1)" d="M 349.55311 256.32 
L 352.017593 256.32 
L 352.017593 256.32 
L 349.55311 256.32 
z
" style="fill:#ffa500;"/>
   </g>
   <g id="patch_95">
    <path clip-path="url(#p5499e057f1)" d="M 352.633714 256.32 
L 355.098197 256.32 
L 355.098197 160.32 
L 352.633714 160.32 
z
" style="fill:#ffa500;"/>
   </g>
   <g id="patch_96">
    <path clip-path="url(#p5499e057f1)" d="M 355.714317 256.32 
L 358.1788 256.32 
L 358.1788 198.72 
L 355.714317 198.72 
z
" style="fill:#ffa500;"/>
   </g>
   <g id="patch_97">
    <path clip-path="url(#p5499e057f1)" d="M 358.794921 256.32 
L 361.259404 256.32 
L 361.259404 237.12 
L 358.794921 237.12 
z
" style="fill:#ffa500;"/>
   </g>
   <g id="patch_98">
    <path clip-path="url(#p5499e057f1)" d="M 361.875524 256.32 
L 364.340007 256.32 
L 364.340007 160.32 
L 361.875524 160.32 
z
" style="fill:#ffa500;"/>
   </g>
   <g id="patch_99">
    <path clip-path="url(#p5499e057f1)" d="M 364.956128 256.32 
L 367.420611 256.32 
L 367.420611 256.32 
L 364.956128 256.32 
z
" style="fill:#ffa500;"/>
   </g>
   <g id="patch_100">
    <path clip-path="url(#p5499e057f1)" d="M 368.036732 256.32 
L 370.501215 256.32 
L 370.501215 121.92 
L 368.036732 121.92 
z
" style="fill:#ffa500;"/>
   </g>
   <g id="patch_101">
    <path clip-path="url(#p5499e057f1)" d="M 371.117335 256.32 
L 373.581818 256.32 
L 373.581818 217.92 
L 371.117335 217.92 
z
" style="fill:#ffa500;"/>
   </g>
   <g id="matplotlib.axis_1">
    <g id="xtick_1">
     <g id="line2d_1">
      <defs>
       <path d="M 0 0 
L 0 3.5 
" id="m221e854433" style="stroke:#000000;stroke-width:0.8;"/>
      </defs>
      <g>
       <use style="stroke:#000000;stroke-width:0.8;" x="70.450423" xlink:href="#m221e854433" y="256.32"/>
      </g>
     </g>
     <g id="text_1">
      <!-- 1/22/20 -->
      <defs>
       <path d="M 12.40625 8.296875 
L 28.515625 8.296875 
L 28.515625 63.921875 
L 10.984375 60.40625 
L 10.984375 69.390625 
L 28.421875 72.90625 
L 38.28125 72.90625 
L 38.28125 8.296875 
L 54.390625 8.296875 
L 54.390625 0 
L 12.40625 0 
z
" id="DejaVuSans-49"/>
       <path d="M 25.390625 72.90625 
L 33.6875 72.90625 
L 8.296875 -9.28125 
L 0 -9.28125 
z
" id="DejaVuSans-47"/>
       <path d="M 19.1875 8.296875 
L 53.609375 8.296875 
L 53.609375 0 
L 7.328125 0 
L 7.328125 8.296875 
Q 12.9375 14.109375 22.625 23.890625 
Q 32.328125 33.6875 34.8125 36.53125 
Q 39.546875 41.84375 41.421875 45.53125 
Q 43.3125 49.21875 43.3125 52.78125 
Q 43.3125 58.59375 39.234375 62.25 
Q 35.15625 65.921875 28.609375 65.921875 
Q 23.96875 65.921875 18.8125 64.3125 
Q 13.671875 62.703125 7.8125 59.421875 
L 7.8125 69.390625 
Q 13.765625 71.78125 18.9375 73 
Q 24.125 74.21875 28.421875 74.21875 
Q 39.75 74.21875 46.484375 68.546875 
Q 53.21875 62.890625 53.21875 53.421875 
Q 53.21875 48.921875 51.53125 44.890625 
Q 49.859375 40.875 45.40625 35.40625 
Q 44.1875 33.984375 37.640625 27.21875 
Q 31.109375 20.453125 19.1875 8.296875 
z
" id="DejaVuSans-50"/>
       <path d="M 31.78125 66.40625 
Q 24.171875 66.40625 20.328125 58.90625 
Q 16.5 51.421875 16.5 36.375 
Q 16.5 21.390625 20.328125 13.890625 
Q 24.171875 6.390625 31.78125 6.390625 
Q 39.453125 6.390625 43.28125 13.890625 
Q 47.125 21.390625 47.125 36.375 
Q 47.125 51.421875 43.28125 58.90625 
Q 39.453125 66.40625 31.78125 66.40625 
z
M 31.78125 74.21875 
Q 44.046875 74.21875 50.515625 64.515625 
Q 56.984375 54.828125 56.984375 36.375 
Q 56.984375 17.96875 50.515625 8.265625 
Q 44.046875 -1.421875 31.78125 -1.421875 
Q 19.53125 -1.421875 13.0625 8.265625 
Q 6.59375 17.96875 6.59375 36.375 
Q 6.59375 54.828125 13.0625 64.515625 
Q 19.53125 74.21875 31.78125 74.21875 
z
" id="DejaVuSans-48"/>
      </defs>
      <g transform="translate(72.106048 286.45)rotate(-90)scale(0.06 -0.06)">
       <use xlink:href="#DejaVuSans-49"/>
       <use x="63.623047" xlink:href="#DejaVuSans-47"/>
       <use x="97.314453" xlink:href="#DejaVuSans-50"/>
       <use x="160.9375" xlink:href="#DejaVuSans-50"/>
       <use x="224.560547" xlink:href="#DejaVuSans-47"/>
       <use x="258.251953" xlink:href="#DejaVuSans-50"/>
       <use x="321.875" xlink:href="#DejaVuSans-48"/>
      </g>
     </g>
    </g>
    <g id="xtick_2">
     <g id="line2d_2">
      <g>
       <use style="stroke:#000000;stroke-width:0.8;" x="73.531027" xlink:href="#m221e854433" y="256.32"/>
      </g>
     </g>
    </g>
    <g id="xtick_3">
     <g id="line2d_3">
      <g>
       <use style="stroke:#000000;stroke-width:0.8;" x="76.61163" xlink:href="#m221e854433" y="256.32"/>
      </g>
     </g>
    </g>
    <g id="xtick_4">
     <g id="line2d_4">
      <g>
       <use style="stroke:#000000;stroke-width:0.8;" x="79.692234" xlink:href="#m221e854433" y="256.32"/>
      </g>
     </g>
     <g id="text_2">
      <!-- 1/25/20 -->
      <defs>
       <path d="M 10.796875 72.90625 
L 49.515625 72.90625 
L 49.515625 64.59375 
L 19.828125 64.59375 
L 19.828125 46.734375 
Q 21.96875 47.46875 24.109375 47.828125 
Q 26.265625 48.1875 28.421875 48.1875 
Q 40.625 48.1875 47.75 41.5 
Q 54.890625 34.8125 54.890625 23.390625 
Q 54.890625 11.625 47.5625 5.09375 
Q 40.234375 -1.421875 26.90625 -1.421875 
Q 22.3125 -1.421875 17.546875 -0.640625 
Q 12.796875 0.140625 7.71875 1.703125 
L 7.71875 11.625 
Q 12.109375 9.234375 16.796875 8.0625 
Q 21.484375 6.890625 26.703125 6.890625 
Q 35.15625 6.890625 40.078125 11.328125 
Q 45.015625 15.765625 45.015625 23.390625 
Q 45.015625 31 40.078125 35.4375 
Q 35.15625 39.890625 26.703125 39.890625 
Q 22.75 39.890625 18.8125 39.015625 
Q 14.890625 38.140625 10.796875 36.28125 
z
" id="DejaVuSans-53"/>
      </defs>
      <g transform="translate(81.347859 286.45)rotate(-90)scale(0.06 -0.06)">
       <use xlink:href="#DejaVuSans-49"/>
       <use x="63.623047" xlink:href="#DejaVuSans-47"/>
       <use x="97.314453" xlink:href="#DejaVuSans-50"/>
       <use x="160.9375" xlink:href="#DejaVuSans-53"/>
       <use x="224.560547" xlink:href="#DejaVuSans-47"/>
       <use x="258.251953" xlink:href="#DejaVuSans-50"/>
       <use x="321.875" xlink:href="#DejaVuSans-48"/>
      </g>
     </g>
    </g>
    <g id="xtick_5">
     <g id="line2d_5">
      <g>
       <use style="stroke:#000000;stroke-width:0.8;" x="82.772838" xlink:href="#m221e854433" y="256.32"/>
      </g>
     </g>
    </g>
    <g id="xtick_6">
     <g id="line2d_6">
      <g>
       <use style="stroke:#000000;stroke-width:0.8;" x="85.853441" xlink:href="#m221e854433" y="256.32"/>
      </g>
     </g>
    </g>
    <g id="xtick_7">
     <g id="line2d_7">
      <g>
       <use style="stroke:#000000;stroke-width:0.8;" x="88.934045" xlink:href="#m221e854433" y="256.32"/>
      </g>
     </g>
     <g id="text_3">
      <!-- 1/28/20 -->
      <defs>
       <path d="M 31.78125 34.625 
Q 24.75 34.625 20.71875 30.859375 
Q 16.703125 27.09375 16.703125 20.515625 
Q 16.703125 13.921875 20.71875 10.15625 
Q 24.75 6.390625 31.78125 6.390625 
Q 38.8125 6.390625 42.859375 10.171875 
Q 46.921875 13.96875 46.921875 20.515625 
Q 46.921875 27.09375 42.890625 30.859375 
Q 38.875 34.625 31.78125 34.625 
z
M 21.921875 38.8125 
Q 15.578125 40.375 12.03125 44.71875 
Q 8.5 49.078125 8.5 55.328125 
Q 8.5 64.0625 14.71875 69.140625 
Q 20.953125 74.21875 31.78125 74.21875 
Q 42.671875 74.21875 48.875 69.140625 
Q 55.078125 64.0625 55.078125 55.328125 
Q 55.078125 49.078125 51.53125 44.71875 
Q 48 40.375 41.703125 38.8125 
Q 48.828125 37.15625 52.796875 32.3125 
Q 56.78125 27.484375 56.78125 20.515625 
Q 56.78125 9.90625 50.3125 4.234375 
Q 43.84375 -1.421875 31.78125 -1.421875 
Q 19.734375 -1.421875 13.25 4.234375 
Q 6.78125 9.90625 6.78125 20.515625 
Q 6.78125 27.484375 10.78125 32.3125 
Q 14.796875 37.15625 21.921875 38.8125 
z
M 18.3125 54.390625 
Q 18.3125 48.734375 21.84375 45.5625 
Q 25.390625 42.390625 31.78125 42.390625 
Q 38.140625 42.390625 41.71875 45.5625 
Q 45.3125 48.734375 45.3125 54.390625 
Q 45.3125 60.0625 41.71875 63.234375 
Q 38.140625 66.40625 31.78125 66.40625 
Q 25.390625 66.40625 21.84375 63.234375 
Q 18.3125 60.0625 18.3125 54.390625 
z
" id="DejaVuSans-56"/>
      </defs>
      <g transform="translate(90.58967 286.45)rotate(-90)scale(0.06 -0.06)">
       <use xlink:href="#DejaVuSans-49"/>
       <use x="63.623047" xlink:href="#DejaVuSans-47"/>
       <use x="97.314453" xlink:href="#DejaVuSans-50"/>
       <use x="160.9375" xlink:href="#DejaVuSans-56"/>
       <use x="224.560547" xlink:href="#DejaVuSans-47"/>
       <use x="258.251953" xlink:href="#DejaVuSans-50"/>
       <use x="321.875" xlink:href="#DejaVuSans-48"/>
      </g>
     </g>
    </g>
    <g id="xtick_8">
     <g id="line2d_8">
      <g>
       <use style="stroke:#000000;stroke-width:0.8;" x="92.014649" xlink:href="#m221e854433" y="256.32"/>
      </g>
     </g>
    </g>
    <g id="xtick_9">
     <g id="line2d_9">
      <g>
       <use style="stroke:#000000;stroke-width:0.8;" x="95.095252" xlink:href="#m221e854433" y="256.32"/>
      </g>
     </g>
    </g>
    <g id="xtick_10">
     <g id="line2d_10">
      <g>
       <use style="stroke:#000000;stroke-width:0.8;" x="98.175856" xlink:href="#m221e854433" y="256.32"/>
      </g>
     </g>
     <g id="text_4">
      <!-- 1/31/20 -->
      <defs>
       <path d="M 40.578125 39.3125 
Q 47.65625 37.796875 51.625 33 
Q 55.609375 28.21875 55.609375 21.1875 
Q 55.609375 10.40625 48.1875 4.484375 
Q 40.765625 -1.421875 27.09375 -1.421875 
Q 22.515625 -1.421875 17.65625 -0.515625 
Q 12.796875 0.390625 7.625 2.203125 
L 7.625 11.71875 
Q 11.71875 9.328125 16.59375 8.109375 
Q 21.484375 6.890625 26.8125 6.890625 
Q 36.078125 6.890625 40.9375 10.546875 
Q 45.796875 14.203125 45.796875 21.1875 
Q 45.796875 27.640625 41.28125 31.265625 
Q 36.765625 34.90625 28.71875 34.90625 
L 20.21875 34.90625 
L 20.21875 43.015625 
L 29.109375 43.015625 
Q 36.375 43.015625 40.234375 45.921875 
Q 44.09375 48.828125 44.09375 54.296875 
Q 44.09375 59.90625 40.109375 62.90625 
Q 36.140625 65.921875 28.71875 65.921875 
Q 24.65625 65.921875 20.015625 65.03125 
Q 15.375 64.15625 9.8125 62.3125 
L 9.8125 71.09375 
Q 15.4375 72.65625 20.34375 73.4375 
Q 25.25 74.21875 29.59375 74.21875 
Q 40.828125 74.21875 47.359375 69.109375 
Q 53.90625 64.015625 53.90625 55.328125 
Q 53.90625 49.265625 50.4375 45.09375 
Q 46.96875 40.921875 40.578125 39.3125 
z
" id="DejaVuSans-51"/>
      </defs>
      <g transform="translate(99.831481 286.45)rotate(-90)scale(0.06 -0.06)">
       <use xlink:href="#DejaVuSans-49"/>
       <use x="63.623047" xlink:href="#DejaVuSans-47"/>
       <use x="97.314453" xlink:href="#DejaVuSans-51"/>
       <use x="160.9375" xlink:href="#DejaVuSans-49"/>
       <use x="224.560547" xlink:href="#DejaVuSans-47"/>
       <use x="258.251953" xlink:href="#DejaVuSans-50"/>
       <use x="321.875" xlink:href="#DejaVuSans-48"/>
      </g>
     </g>
    </g>
    <g id="xtick_11">
     <g id="line2d_11">
      <g>
       <use style="stroke:#000000;stroke-width:0.8;" x="101.256459" xlink:href="#m221e854433" y="256.32"/>
      </g>
     </g>
    </g>
    <g id="xtick_12">
     <g id="line2d_12">
      <g>
       <use style="stroke:#000000;stroke-width:0.8;" x="104.337063" xlink:href="#m221e854433" y="256.32"/>
      </g>
     </g>
    </g>
    <g id="xtick_13">
     <g id="line2d_13">
      <g>
       <use style="stroke:#000000;stroke-width:0.8;" x="107.417667" xlink:href="#m221e854433" y="256.32"/>
      </g>
     </g>
     <g id="text_5">
      <!-- 2/3/20 -->
      <g transform="translate(109.073292 282.6325)rotate(-90)scale(0.06 -0.06)">
       <use xlink:href="#DejaVuSans-50"/>
       <use x="63.623047" xlink:href="#DejaVuSans-47"/>
       <use x="97.314453" xlink:href="#DejaVuSans-51"/>
       <use x="160.9375" xlink:href="#DejaVuSans-47"/>
       <use x="194.628906" xlink:href="#DejaVuSans-50"/>
       <use x="258.251953" xlink:href="#DejaVuSans-48"/>
      </g>
     </g>
    </g>
    <g id="xtick_14">
     <g id="line2d_14">
      <g>
       <use style="stroke:#000000;stroke-width:0.8;" x="110.49827" xlink:href="#m221e854433" y="256.32"/>
      </g>
     </g>
    </g>
    <g id="xtick_15">
     <g id="line2d_15">
      <g>
       <use style="stroke:#000000;stroke-width:0.8;" x="113.578874" xlink:href="#m221e854433" y="256.32"/>
      </g>
     </g>
    </g>
    <g id="xtick_16">
     <g id="line2d_16">
      <g>
       <use style="stroke:#000000;stroke-width:0.8;" x="116.659477" xlink:href="#m221e854433" y="256.32"/>
      </g>
     </g>
     <g id="text_6">
      <!-- 2/6/20 -->
      <defs>
       <path d="M 33.015625 40.375 
Q 26.375 40.375 22.484375 35.828125 
Q 18.609375 31.296875 18.609375 23.390625 
Q 18.609375 15.53125 22.484375 10.953125 
Q 26.375 6.390625 33.015625 6.390625 
Q 39.65625 6.390625 43.53125 10.953125 
Q 47.40625 15.53125 47.40625 23.390625 
Q 47.40625 31.296875 43.53125 35.828125 
Q 39.65625 40.375 33.015625 40.375 
z
M 52.59375 71.296875 
L 52.59375 62.3125 
Q 48.875 64.0625 45.09375 64.984375 
Q 41.3125 65.921875 37.59375 65.921875 
Q 27.828125 65.921875 22.671875 59.328125 
Q 17.53125 52.734375 16.796875 39.40625 
Q 19.671875 43.65625 24.015625 45.921875 
Q 28.375 48.1875 33.59375 48.1875 
Q 44.578125 48.1875 50.953125 41.515625 
Q 57.328125 34.859375 57.328125 23.390625 
Q 57.328125 12.15625 50.6875 5.359375 
Q 44.046875 -1.421875 33.015625 -1.421875 
Q 20.359375 -1.421875 13.671875 8.265625 
Q 6.984375 17.96875 6.984375 36.375 
Q 6.984375 53.65625 15.1875 63.9375 
Q 23.390625 74.21875 37.203125 74.21875 
Q 40.921875 74.21875 44.703125 73.484375 
Q 48.484375 72.75 52.59375 71.296875 
z
" id="DejaVuSans-54"/>
      </defs>
      <g transform="translate(118.315102 282.6325)rotate(-90)scale(0.06 -0.06)">
       <use xlink:href="#DejaVuSans-50"/>
       <use x="63.623047" xlink:href="#DejaVuSans-47"/>
       <use x="97.314453" xlink:href="#DejaVuSans-54"/>
       <use x="160.9375" xlink:href="#DejaVuSans-47"/>
       <use x="194.628906" xlink:href="#DejaVuSans-50"/>
       <use x="258.251953" xlink:href="#DejaVuSans-48"/>
      </g>
     </g>
    </g>
    <g id="xtick_17">
     <g id="line2d_17">
      <g>
       <use style="stroke:#000000;stroke-width:0.8;" x="119.740081" xlink:href="#m221e854433" y="256.32"/>
      </g>
     </g>
    </g>
    <g id="xtick_18">
     <g id="line2d_18">
      <g>
       <use style="stroke:#000000;stroke-width:0.8;" x="122.820685" xlink:href="#m221e854433" y="256.32"/>
      </g>
     </g>
    </g>
    <g id="xtick_19">
     <g id="line2d_19">
      <g>
       <use style="stroke:#000000;stroke-width:0.8;" x="125.901288" xlink:href="#m221e854433" y="256.32"/>
      </g>
     </g>
     <g id="text_7">
      <!-- 2/9/20 -->
      <defs>
       <path d="M 10.984375 1.515625 
L 10.984375 10.5 
Q 14.703125 8.734375 18.5 7.8125 
Q 22.3125 6.890625 25.984375 6.890625 
Q 35.75 6.890625 40.890625 13.453125 
Q 46.046875 20.015625 46.78125 33.40625 
Q 43.953125 29.203125 39.59375 26.953125 
Q 35.25 24.703125 29.984375 24.703125 
Q 19.046875 24.703125 12.671875 31.3125 
Q 6.296875 37.9375 6.296875 49.421875 
Q 6.296875 60.640625 12.9375 67.421875 
Q 19.578125 74.21875 30.609375 74.21875 
Q 43.265625 74.21875 49.921875 64.515625 
Q 56.59375 54.828125 56.59375 36.375 
Q 56.59375 19.140625 48.40625 8.859375 
Q 40.234375 -1.421875 26.421875 -1.421875 
Q 22.703125 -1.421875 18.890625 -0.6875 
Q 15.09375 0.046875 10.984375 1.515625 
z
M 30.609375 32.421875 
Q 37.25 32.421875 41.125 36.953125 
Q 45.015625 41.5 45.015625 49.421875 
Q 45.015625 57.28125 41.125 61.84375 
Q 37.25 66.40625 30.609375 66.40625 
Q 23.96875 66.40625 20.09375 61.84375 
Q 16.21875 57.28125 16.21875 49.421875 
Q 16.21875 41.5 20.09375 36.953125 
Q 23.96875 32.421875 30.609375 32.421875 
z
" id="DejaVuSans-57"/>
      </defs>
      <g transform="translate(127.556913 282.6325)rotate(-90)scale(0.06 -0.06)">
       <use xlink:href="#DejaVuSans-50"/>
       <use x="63.623047" xlink:href="#DejaVuSans-47"/>
       <use x="97.314453" xlink:href="#DejaVuSans-57"/>
       <use x="160.9375" xlink:href="#DejaVuSans-47"/>
       <use x="194.628906" xlink:href="#DejaVuSans-50"/>
       <use x="258.251953" xlink:href="#DejaVuSans-48"/>
      </g>
     </g>
    </g>
    <g id="xtick_20">
     <g id="line2d_20">
      <g>
       <use style="stroke:#000000;stroke-width:0.8;" x="128.981892" xlink:href="#m221e854433" y="256.32"/>
      </g>
     </g>
    </g>
    <g id="xtick_21">
     <g id="line2d_21">
      <g>
       <use style="stroke:#000000;stroke-width:0.8;" x="132.062495" xlink:href="#m221e854433" y="256.32"/>
      </g>
     </g>
    </g>
    <g id="xtick_22">
     <g id="line2d_22">
      <g>
       <use style="stroke:#000000;stroke-width:0.8;" x="135.143099" xlink:href="#m221e854433" y="256.32"/>
      </g>
     </g>
     <g id="text_8">
      <!-- 2/12/20 -->
      <g transform="translate(136.798724 286.45)rotate(-90)scale(0.06 -0.06)">
       <use xlink:href="#DejaVuSans-50"/>
       <use x="63.623047" xlink:href="#DejaVuSans-47"/>
       <use x="97.314453" xlink:href="#DejaVuSans-49"/>
       <use x="160.9375" xlink:href="#DejaVuSans-50"/>
       <use x="224.560547" xlink:href="#DejaVuSans-47"/>
       <use x="258.251953" xlink:href="#DejaVuSans-50"/>
       <use x="321.875" xlink:href="#DejaVuSans-48"/>
      </g>
     </g>
    </g>
    <g id="xtick_23">
     <g id="line2d_23">
      <g>
       <use style="stroke:#000000;stroke-width:0.8;" x="138.223703" xlink:href="#m221e854433" y="256.32"/>
      </g>
     </g>
    </g>
    <g id="xtick_24">
     <g id="line2d_24">
      <g>
       <use style="stroke:#000000;stroke-width:0.8;" x="141.304306" xlink:href="#m221e854433" y="256.32"/>
      </g>
     </g>
    </g>
    <g id="xtick_25">
     <g id="line2d_25">
      <g>
       <use style="stroke:#000000;stroke-width:0.8;" x="144.38491" xlink:href="#m221e854433" y="256.32"/>
      </g>
     </g>
     <g id="text_9">
      <!-- 2/15/20 -->
      <g transform="translate(146.040535 286.45)rotate(-90)scale(0.06 -0.06)">
       <use xlink:href="#DejaVuSans-50"/>
       <use x="63.623047" xlink:href="#DejaVuSans-47"/>
       <use x="97.314453" xlink:href="#DejaVuSans-49"/>
       <use x="160.9375" xlink:href="#DejaVuSans-53"/>
       <use x="224.560547" xlink:href="#DejaVuSans-47"/>
       <use x="258.251953" xlink:href="#DejaVuSans-50"/>
       <use x="321.875" xlink:href="#DejaVuSans-48"/>
      </g>
     </g>
    </g>
    <g id="xtick_26">
     <g id="line2d_26">
      <g>
       <use style="stroke:#000000;stroke-width:0.8;" x="147.465513" xlink:href="#m221e854433" y="256.32"/>
      </g>
     </g>
    </g>
    <g id="xtick_27">
     <g id="line2d_27">
      <g>
       <use style="stroke:#000000;stroke-width:0.8;" x="150.546117" xlink:href="#m221e854433" y="256.32"/>
      </g>
     </g>
    </g>
    <g id="xtick_28">
     <g id="line2d_28">
      <g>
       <use style="stroke:#000000;stroke-width:0.8;" x="153.626721" xlink:href="#m221e854433" y="256.32"/>
      </g>
     </g>
     <g id="text_10">
      <!-- 2/18/20 -->
      <g transform="translate(155.282346 286.45)rotate(-90)scale(0.06 -0.06)">
       <use xlink:href="#DejaVuSans-50"/>
       <use x="63.623047" xlink:href="#DejaVuSans-47"/>
       <use x="97.314453" xlink:href="#DejaVuSans-49"/>
       <use x="160.9375" xlink:href="#DejaVuSans-56"/>
       <use x="224.560547" xlink:href="#DejaVuSans-47"/>
       <use x="258.251953" xlink:href="#DejaVuSans-50"/>
       <use x="321.875" xlink:href="#DejaVuSans-48"/>
      </g>
     </g>
    </g>
    <g id="xtick_29">
     <g id="line2d_29">
      <g>
       <use style="stroke:#000000;stroke-width:0.8;" x="156.707324" xlink:href="#m221e854433" y="256.32"/>
      </g>
     </g>
    </g>
    <g id="xtick_30">
     <g id="line2d_30">
      <g>
       <use style="stroke:#000000;stroke-width:0.8;" x="159.787928" xlink:href="#m221e854433" y="256.32"/>
      </g>
     </g>
    </g>
    <g id="xtick_31">
     <g id="line2d_31">
      <g>
       <use style="stroke:#000000;stroke-width:0.8;" x="162.868531" xlink:href="#m221e854433" y="256.32"/>
      </g>
     </g>
     <g id="text_11">
      <!-- 2/21/20 -->
      <g transform="translate(164.524156 286.45)rotate(-90)scale(0.06 -0.06)">
       <use xlink:href="#DejaVuSans-50"/>
       <use x="63.623047" xlink:href="#DejaVuSans-47"/>
       <use x="97.314453" xlink:href="#DejaVuSans-50"/>
       <use x="160.9375" xlink:href="#DejaVuSans-49"/>
       <use x="224.560547" xlink:href="#DejaVuSans-47"/>
       <use x="258.251953" xlink:href="#DejaVuSans-50"/>
       <use x="321.875" xlink:href="#DejaVuSans-48"/>
      </g>
     </g>
    </g>
    <g id="xtick_32">
     <g id="line2d_32">
      <g>
       <use style="stroke:#000000;stroke-width:0.8;" x="165.949135" xlink:href="#m221e854433" y="256.32"/>
      </g>
     </g>
    </g>
    <g id="xtick_33">
     <g id="line2d_33">
      <g>
       <use style="stroke:#000000;stroke-width:0.8;" x="169.029739" xlink:href="#m221e854433" y="256.32"/>
      </g>
     </g>
    </g>
    <g id="xtick_34">
     <g id="line2d_34">
      <g>
       <use style="stroke:#000000;stroke-width:0.8;" x="172.110342" xlink:href="#m221e854433" y="256.32"/>
      </g>
     </g>
     <g id="text_12">
      <!-- 2/24/20 -->
      <defs>
       <path d="M 37.796875 64.3125 
L 12.890625 25.390625 
L 37.796875 25.390625 
z
M 35.203125 72.90625 
L 47.609375 72.90625 
L 47.609375 25.390625 
L 58.015625 25.390625 
L 58.015625 17.1875 
L 47.609375 17.1875 
L 47.609375 0 
L 37.796875 0 
L 37.796875 17.1875 
L 4.890625 17.1875 
L 4.890625 26.703125 
z
" id="DejaVuSans-52"/>
      </defs>
      <g transform="translate(173.765967 286.45)rotate(-90)scale(0.06 -0.06)">
       <use xlink:href="#DejaVuSans-50"/>
       <use x="63.623047" xlink:href="#DejaVuSans-47"/>
       <use x="97.314453" xlink:href="#DejaVuSans-50"/>
       <use x="160.9375" xlink:href="#DejaVuSans-52"/>
       <use x="224.560547" xlink:href="#DejaVuSans-47"/>
       <use x="258.251953" xlink:href="#DejaVuSans-50"/>
       <use x="321.875" xlink:href="#DejaVuSans-48"/>
      </g>
     </g>
    </g>
    <g id="xtick_35">
     <g id="line2d_35">
      <g>
       <use style="stroke:#000000;stroke-width:0.8;" x="175.190946" xlink:href="#m221e854433" y="256.32"/>
      </g>
     </g>
    </g>
    <g id="xtick_36">
     <g id="line2d_36">
      <g>
       <use style="stroke:#000000;stroke-width:0.8;" x="178.27155" xlink:href="#m221e854433" y="256.32"/>
      </g>
     </g>
    </g>
    <g id="xtick_37">
     <g id="line2d_37">
      <g>
       <use style="stroke:#000000;stroke-width:0.8;" x="181.352153" xlink:href="#m221e854433" y="256.32"/>
      </g>
     </g>
     <g id="text_13">
      <!-- 2/27/20 -->
      <defs>
       <path d="M 8.203125 72.90625 
L 55.078125 72.90625 
L 55.078125 68.703125 
L 28.609375 0 
L 18.3125 0 
L 43.21875 64.59375 
L 8.203125 64.59375 
z
" id="DejaVuSans-55"/>
      </defs>
      <g transform="translate(183.007778 286.45)rotate(-90)scale(0.06 -0.06)">
       <use xlink:href="#DejaVuSans-50"/>
       <use x="63.623047" xlink:href="#DejaVuSans-47"/>
       <use x="97.314453" xlink:href="#DejaVuSans-50"/>
       <use x="160.9375" xlink:href="#DejaVuSans-55"/>
       <use x="224.560547" xlink:href="#DejaVuSans-47"/>
       <use x="258.251953" xlink:href="#DejaVuSans-50"/>
       <use x="321.875" xlink:href="#DejaVuSans-48"/>
      </g>
     </g>
    </g>
    <g id="xtick_38">
     <g id="line2d_38">
      <g>
       <use style="stroke:#000000;stroke-width:0.8;" x="184.432757" xlink:href="#m221e854433" y="256.32"/>
      </g>
     </g>
    </g>
    <g id="xtick_39">
     <g id="line2d_39">
      <g>
       <use style="stroke:#000000;stroke-width:0.8;" x="187.51336" xlink:href="#m221e854433" y="256.32"/>
      </g>
     </g>
    </g>
    <g id="xtick_40">
     <g id="line2d_40">
      <g>
       <use style="stroke:#000000;stroke-width:0.8;" x="190.593964" xlink:href="#m221e854433" y="256.32"/>
      </g>
     </g>
     <g id="text_14">
      <!-- 3/1/20 -->
      <g transform="translate(192.249589 282.6325)rotate(-90)scale(0.06 -0.06)">
       <use xlink:href="#DejaVuSans-51"/>
       <use x="63.623047" xlink:href="#DejaVuSans-47"/>
       <use x="97.314453" xlink:href="#DejaVuSans-49"/>
       <use x="160.9375" xlink:href="#DejaVuSans-47"/>
       <use x="194.628906" xlink:href="#DejaVuSans-50"/>
       <use x="258.251953" xlink:href="#DejaVuSans-48"/>
      </g>
     </g>
    </g>
    <g id="xtick_41">
     <g id="line2d_41">
      <g>
       <use style="stroke:#000000;stroke-width:0.8;" x="193.674568" xlink:href="#m221e854433" y="256.32"/>
      </g>
     </g>
    </g>
    <g id="xtick_42">
     <g id="line2d_42">
      <g>
       <use style="stroke:#000000;stroke-width:0.8;" x="196.755171" xlink:href="#m221e854433" y="256.32"/>
      </g>
     </g>
    </g>
    <g id="xtick_43">
     <g id="line2d_43">
      <g>
       <use style="stroke:#000000;stroke-width:0.8;" x="199.835775" xlink:href="#m221e854433" y="256.32"/>
      </g>
     </g>
     <g id="text_15">
      <!-- 3/4/20 -->
      <g transform="translate(201.4914 282.6325)rotate(-90)scale(0.06 -0.06)">
       <use xlink:href="#DejaVuSans-51"/>
       <use x="63.623047" xlink:href="#DejaVuSans-47"/>
       <use x="97.314453" xlink:href="#DejaVuSans-52"/>
       <use x="160.9375" xlink:href="#DejaVuSans-47"/>
       <use x="194.628906" xlink:href="#DejaVuSans-50"/>
       <use x="258.251953" xlink:href="#DejaVuSans-48"/>
      </g>
     </g>
    </g>
    <g id="xtick_44">
     <g id="line2d_44">
      <g>
       <use style="stroke:#000000;stroke-width:0.8;" x="202.916378" xlink:href="#m221e854433" y="256.32"/>
      </g>
     </g>
    </g>
    <g id="xtick_45">
     <g id="line2d_45">
      <g>
       <use style="stroke:#000000;stroke-width:0.8;" x="205.996982" xlink:href="#m221e854433" y="256.32"/>
      </g>
     </g>
    </g>
    <g id="xtick_46">
     <g id="line2d_46">
      <g>
       <use style="stroke:#000000;stroke-width:0.8;" x="209.077586" xlink:href="#m221e854433" y="256.32"/>
      </g>
     </g>
     <g id="text_16">
      <!-- 3/7/20 -->
      <g transform="translate(210.733211 282.6325)rotate(-90)scale(0.06 -0.06)">
       <use xlink:href="#DejaVuSans-51"/>
       <use x="63.623047" xlink:href="#DejaVuSans-47"/>
       <use x="97.314453" xlink:href="#DejaVuSans-55"/>
       <use x="160.9375" xlink:href="#DejaVuSans-47"/>
       <use x="194.628906" xlink:href="#DejaVuSans-50"/>
       <use x="258.251953" xlink:href="#DejaVuSans-48"/>
      </g>
     </g>
    </g>
    <g id="xtick_47">
     <g id="line2d_47">
      <g>
       <use style="stroke:#000000;stroke-width:0.8;" x="212.158189" xlink:href="#m221e854433" y="256.32"/>
      </g>
     </g>
    </g>
    <g id="xtick_48">
     <g id="line2d_48">
      <g>
       <use style="stroke:#000000;stroke-width:0.8;" x="215.238793" xlink:href="#m221e854433" y="256.32"/>
      </g>
     </g>
    </g>
    <g id="xtick_49">
     <g id="line2d_49">
      <g>
       <use style="stroke:#000000;stroke-width:0.8;" x="218.319396" xlink:href="#m221e854433" y="256.32"/>
      </g>
     </g>
     <g id="text_17">
      <!-- 3/10/20 -->
      <g transform="translate(219.975021 286.45)rotate(-90)scale(0.06 -0.06)">
       <use xlink:href="#DejaVuSans-51"/>
       <use x="63.623047" xlink:href="#DejaVuSans-47"/>
       <use x="97.314453" xlink:href="#DejaVuSans-49"/>
       <use x="160.9375" xlink:href="#DejaVuSans-48"/>
       <use x="224.560547" xlink:href="#DejaVuSans-47"/>
       <use x="258.251953" xlink:href="#DejaVuSans-50"/>
       <use x="321.875" xlink:href="#DejaVuSans-48"/>
      </g>
     </g>
    </g>
    <g id="xtick_50">
     <g id="line2d_50">
      <g>
       <use style="stroke:#000000;stroke-width:0.8;" x="221.4" xlink:href="#m221e854433" y="256.32"/>
      </g>
     </g>
    </g>
    <g id="xtick_51">
     <g id="line2d_51">
      <g>
       <use style="stroke:#000000;stroke-width:0.8;" x="224.480604" xlink:href="#m221e854433" y="256.32"/>
      </g>
     </g>
    </g>
    <g id="xtick_52">
     <g id="line2d_52">
      <g>
       <use style="stroke:#000000;stroke-width:0.8;" x="227.561207" xlink:href="#m221e854433" y="256.32"/>
      </g>
     </g>
     <g id="text_18">
      <!-- 3/13/20 -->
      <g transform="translate(229.216832 286.45)rotate(-90)scale(0.06 -0.06)">
       <use xlink:href="#DejaVuSans-51"/>
       <use x="63.623047" xlink:href="#DejaVuSans-47"/>
       <use x="97.314453" xlink:href="#DejaVuSans-49"/>
       <use x="160.9375" xlink:href="#DejaVuSans-51"/>
       <use x="224.560547" xlink:href="#DejaVuSans-47"/>
       <use x="258.251953" xlink:href="#DejaVuSans-50"/>
       <use x="321.875" xlink:href="#DejaVuSans-48"/>
      </g>
     </g>
    </g>
    <g id="xtick_53">
     <g id="line2d_53">
      <g>
       <use style="stroke:#000000;stroke-width:0.8;" x="230.641811" xlink:href="#m221e854433" y="256.32"/>
      </g>
     </g>
    </g>
    <g id="xtick_54">
     <g id="line2d_54">
      <g>
       <use style="stroke:#000000;stroke-width:0.8;" x="233.722414" xlink:href="#m221e854433" y="256.32"/>
      </g>
     </g>
    </g>
    <g id="xtick_55">
     <g id="line2d_55">
      <g>
       <use style="stroke:#000000;stroke-width:0.8;" x="236.803018" xlink:href="#m221e854433" y="256.32"/>
      </g>
     </g>
     <g id="text_19">
      <!-- 3/16/20 -->
      <g transform="translate(238.458643 286.45)rotate(-90)scale(0.06 -0.06)">
       <use xlink:href="#DejaVuSans-51"/>
       <use x="63.623047" xlink:href="#DejaVuSans-47"/>
       <use x="97.314453" xlink:href="#DejaVuSans-49"/>
       <use x="160.9375" xlink:href="#DejaVuSans-54"/>
       <use x="224.560547" xlink:href="#DejaVuSans-47"/>
       <use x="258.251953" xlink:href="#DejaVuSans-50"/>
       <use x="321.875" xlink:href="#DejaVuSans-48"/>
      </g>
     </g>
    </g>
    <g id="xtick_56">
     <g id="line2d_56">
      <g>
       <use style="stroke:#000000;stroke-width:0.8;" x="239.883622" xlink:href="#m221e854433" y="256.32"/>
      </g>
     </g>
    </g>
    <g id="xtick_57">
     <g id="line2d_57">
      <g>
       <use style="stroke:#000000;stroke-width:0.8;" x="242.964225" xlink:href="#m221e854433" y="256.32"/>
      </g>
     </g>
    </g>
    <g id="xtick_58">
     <g id="line2d_58">
      <g>
       <use style="stroke:#000000;stroke-width:0.8;" x="246.044829" xlink:href="#m221e854433" y="256.32"/>
      </g>
     </g>
     <g id="text_20">
      <!-- 3/19/20 -->
      <g transform="translate(247.700454 286.45)rotate(-90)scale(0.06 -0.06)">
       <use xlink:href="#DejaVuSans-51"/>
       <use x="63.623047" xlink:href="#DejaVuSans-47"/>
       <use x="97.314453" xlink:href="#DejaVuSans-49"/>
       <use x="160.9375" xlink:href="#DejaVuSans-57"/>
       <use x="224.560547" xlink:href="#DejaVuSans-47"/>
       <use x="258.251953" xlink:href="#DejaVuSans-50"/>
       <use x="321.875" xlink:href="#DejaVuSans-48"/>
      </g>
     </g>
    </g>
    <g id="xtick_59">
     <g id="line2d_59">
      <g>
       <use style="stroke:#000000;stroke-width:0.8;" x="249.125432" xlink:href="#m221e854433" y="256.32"/>
      </g>
     </g>
    </g>
    <g id="xtick_60">
     <g id="line2d_60">
      <g>
       <use style="stroke:#000000;stroke-width:0.8;" x="252.206036" xlink:href="#m221e854433" y="256.32"/>
      </g>
     </g>
    </g>
    <g id="xtick_61">
     <g id="line2d_61">
      <g>
       <use style="stroke:#000000;stroke-width:0.8;" x="255.28664" xlink:href="#m221e854433" y="256.32"/>
      </g>
     </g>
     <g id="text_21">
      <!-- 3/22/20 -->
      <g transform="translate(256.942265 286.45)rotate(-90)scale(0.06 -0.06)">
       <use xlink:href="#DejaVuSans-51"/>
       <use x="63.623047" xlink:href="#DejaVuSans-47"/>
       <use x="97.314453" xlink:href="#DejaVuSans-50"/>
       <use x="160.9375" xlink:href="#DejaVuSans-50"/>
       <use x="224.560547" xlink:href="#DejaVuSans-47"/>
       <use x="258.251953" xlink:href="#DejaVuSans-50"/>
       <use x="321.875" xlink:href="#DejaVuSans-48"/>
      </g>
     </g>
    </g>
    <g id="xtick_62">
     <g id="line2d_62">
      <g>
       <use style="stroke:#000000;stroke-width:0.8;" x="258.367243" xlink:href="#m221e854433" y="256.32"/>
      </g>
     </g>
    </g>
    <g id="xtick_63">
     <g id="line2d_63">
      <g>
       <use style="stroke:#000000;stroke-width:0.8;" x="261.447847" xlink:href="#m221e854433" y="256.32"/>
      </g>
     </g>
    </g>
    <g id="xtick_64">
     <g id="line2d_64">
      <g>
       <use style="stroke:#000000;stroke-width:0.8;" x="264.52845" xlink:href="#m221e854433" y="256.32"/>
      </g>
     </g>
     <g id="text_22">
      <!-- 3/25/20 -->
      <g transform="translate(266.184075 286.45)rotate(-90)scale(0.06 -0.06)">
       <use xlink:href="#DejaVuSans-51"/>
       <use x="63.623047" xlink:href="#DejaVuSans-47"/>
       <use x="97.314453" xlink:href="#DejaVuSans-50"/>
       <use x="160.9375" xlink:href="#DejaVuSans-53"/>
       <use x="224.560547" xlink:href="#DejaVuSans-47"/>
       <use x="258.251953" xlink:href="#DejaVuSans-50"/>
       <use x="321.875" xlink:href="#DejaVuSans-48"/>
      </g>
     </g>
    </g>
    <g id="xtick_65">
     <g id="line2d_65">
      <g>
       <use style="stroke:#000000;stroke-width:0.8;" x="267.609054" xlink:href="#m221e854433" y="256.32"/>
      </g>
     </g>
    </g>
    <g id="xtick_66">
     <g id="line2d_66">
      <g>
       <use style="stroke:#000000;stroke-width:0.8;" x="270.689658" xlink:href="#m221e854433" y="256.32"/>
      </g>
     </g>
    </g>
    <g id="xtick_67">
     <g id="line2d_67">
      <g>
       <use style="stroke:#000000;stroke-width:0.8;" x="273.770261" xlink:href="#m221e854433" y="256.32"/>
      </g>
     </g>
     <g id="text_23">
      <!-- 3/28/20 -->
      <g transform="translate(275.425886 286.45)rotate(-90)scale(0.06 -0.06)">
       <use xlink:href="#DejaVuSans-51"/>
       <use x="63.623047" xlink:href="#DejaVuSans-47"/>
       <use x="97.314453" xlink:href="#DejaVuSans-50"/>
       <use x="160.9375" xlink:href="#DejaVuSans-56"/>
       <use x="224.560547" xlink:href="#DejaVuSans-47"/>
       <use x="258.251953" xlink:href="#DejaVuSans-50"/>
       <use x="321.875" xlink:href="#DejaVuSans-48"/>
      </g>
     </g>
    </g>
    <g id="xtick_68">
     <g id="line2d_68">
      <g>
       <use style="stroke:#000000;stroke-width:0.8;" x="276.850865" xlink:href="#m221e854433" y="256.32"/>
      </g>
     </g>
    </g>
    <g id="xtick_69">
     <g id="line2d_69">
      <g>
       <use style="stroke:#000000;stroke-width:0.8;" x="279.931469" xlink:href="#m221e854433" y="256.32"/>
      </g>
     </g>
    </g>
    <g id="xtick_70">
     <g id="line2d_70">
      <g>
       <use style="stroke:#000000;stroke-width:0.8;" x="283.012072" xlink:href="#m221e854433" y="256.32"/>
      </g>
     </g>
     <g id="text_24">
      <!-- 3/31/20 -->
      <g transform="translate(284.667697 286.45)rotate(-90)scale(0.06 -0.06)">
       <use xlink:href="#DejaVuSans-51"/>
       <use x="63.623047" xlink:href="#DejaVuSans-47"/>
       <use x="97.314453" xlink:href="#DejaVuSans-51"/>
       <use x="160.9375" xlink:href="#DejaVuSans-49"/>
       <use x="224.560547" xlink:href="#DejaVuSans-47"/>
       <use x="258.251953" xlink:href="#DejaVuSans-50"/>
       <use x="321.875" xlink:href="#DejaVuSans-48"/>
      </g>
     </g>
    </g>
    <g id="xtick_71">
     <g id="line2d_71">
      <g>
       <use style="stroke:#000000;stroke-width:0.8;" x="286.092676" xlink:href="#m221e854433" y="256.32"/>
      </g>
     </g>
    </g>
    <g id="xtick_72">
     <g id="line2d_72">
      <g>
       <use style="stroke:#000000;stroke-width:0.8;" x="289.173279" xlink:href="#m221e854433" y="256.32"/>
      </g>
     </g>
    </g>
    <g id="xtick_73">
     <g id="line2d_73">
      <g>
       <use style="stroke:#000000;stroke-width:0.8;" x="292.253883" xlink:href="#m221e854433" y="256.32"/>
      </g>
     </g>
     <g id="text_25">
      <!-- 4/3/20 -->
      <g transform="translate(293.909508 282.6325)rotate(-90)scale(0.06 -0.06)">
       <use xlink:href="#DejaVuSans-52"/>
       <use x="63.623047" xlink:href="#DejaVuSans-47"/>
       <use x="97.314453" xlink:href="#DejaVuSans-51"/>
       <use x="160.9375" xlink:href="#DejaVuSans-47"/>
       <use x="194.628906" xlink:href="#DejaVuSans-50"/>
       <use x="258.251953" xlink:href="#DejaVuSans-48"/>
      </g>
     </g>
    </g>
    <g id="xtick_74">
     <g id="line2d_74">
      <g>
       <use style="stroke:#000000;stroke-width:0.8;" x="295.334487" xlink:href="#m221e854433" y="256.32"/>
      </g>
     </g>
    </g>
    <g id="xtick_75">
     <g id="line2d_75">
      <g>
       <use style="stroke:#000000;stroke-width:0.8;" x="298.41509" xlink:href="#m221e854433" y="256.32"/>
      </g>
     </g>
    </g>
    <g id="xtick_76">
     <g id="line2d_76">
      <g>
       <use style="stroke:#000000;stroke-width:0.8;" x="301.495694" xlink:href="#m221e854433" y="256.32"/>
      </g>
     </g>
     <g id="text_26">
      <!-- 4/6/20 -->
      <g transform="translate(303.151319 282.6325)rotate(-90)scale(0.06 -0.06)">
       <use xlink:href="#DejaVuSans-52"/>
       <use x="63.623047" xlink:href="#DejaVuSans-47"/>
       <use x="97.314453" xlink:href="#DejaVuSans-54"/>
       <use x="160.9375" xlink:href="#DejaVuSans-47"/>
       <use x="194.628906" xlink:href="#DejaVuSans-50"/>
       <use x="258.251953" xlink:href="#DejaVuSans-48"/>
      </g>
     </g>
    </g>
    <g id="xtick_77">
     <g id="line2d_77">
      <g>
       <use style="stroke:#000000;stroke-width:0.8;" x="304.576297" xlink:href="#m221e854433" y="256.32"/>
      </g>
     </g>
    </g>
    <g id="xtick_78">
     <g id="line2d_78">
      <g>
       <use style="stroke:#000000;stroke-width:0.8;" x="307.656901" xlink:href="#m221e854433" y="256.32"/>
      </g>
     </g>
    </g>
    <g id="xtick_79">
     <g id="line2d_79">
      <g>
       <use style="stroke:#000000;stroke-width:0.8;" x="310.737505" xlink:href="#m221e854433" y="256.32"/>
      </g>
     </g>
     <g id="text_27">
      <!-- 4/9/20 -->
      <g transform="translate(312.39313 282.6325)rotate(-90)scale(0.06 -0.06)">
       <use xlink:href="#DejaVuSans-52"/>
       <use x="63.623047" xlink:href="#DejaVuSans-47"/>
       <use x="97.314453" xlink:href="#DejaVuSans-57"/>
       <use x="160.9375" xlink:href="#DejaVuSans-47"/>
       <use x="194.628906" xlink:href="#DejaVuSans-50"/>
       <use x="258.251953" xlink:href="#DejaVuSans-48"/>
      </g>
     </g>
    </g>
    <g id="xtick_80">
     <g id="line2d_80">
      <g>
       <use style="stroke:#000000;stroke-width:0.8;" x="313.818108" xlink:href="#m221e854433" y="256.32"/>
      </g>
     </g>
    </g>
    <g id="xtick_81">
     <g id="line2d_81">
      <g>
       <use style="stroke:#000000;stroke-width:0.8;" x="316.898712" xlink:href="#m221e854433" y="256.32"/>
      </g>
     </g>
    </g>
    <g id="xtick_82">
     <g id="line2d_82">
      <g>
       <use style="stroke:#000000;stroke-width:0.8;" x="319.979315" xlink:href="#m221e854433" y="256.32"/>
      </g>
     </g>
     <g id="text_28">
      <!-- 4/12/20 -->
      <g transform="translate(321.63494 286.45)rotate(-90)scale(0.06 -0.06)">
       <use xlink:href="#DejaVuSans-52"/>
       <use x="63.623047" xlink:href="#DejaVuSans-47"/>
       <use x="97.314453" xlink:href="#DejaVuSans-49"/>
       <use x="160.9375" xlink:href="#DejaVuSans-50"/>
       <use x="224.560547" xlink:href="#DejaVuSans-47"/>
       <use x="258.251953" xlink:href="#DejaVuSans-50"/>
       <use x="321.875" xlink:href="#DejaVuSans-48"/>
      </g>
     </g>
    </g>
    <g id="xtick_83">
     <g id="line2d_83">
      <g>
       <use style="stroke:#000000;stroke-width:0.8;" x="323.059919" xlink:href="#m221e854433" y="256.32"/>
      </g>
     </g>
    </g>
    <g id="xtick_84">
     <g id="line2d_84">
      <g>
       <use style="stroke:#000000;stroke-width:0.8;" x="326.140523" xlink:href="#m221e854433" y="256.32"/>
      </g>
     </g>
    </g>
    <g id="xtick_85">
     <g id="line2d_85">
      <g>
       <use style="stroke:#000000;stroke-width:0.8;" x="329.221126" xlink:href="#m221e854433" y="256.32"/>
      </g>
     </g>
     <g id="text_29">
      <!-- 4/15/20 -->
      <g transform="translate(330.876751 286.45)rotate(-90)scale(0.06 -0.06)">
       <use xlink:href="#DejaVuSans-52"/>
       <use x="63.623047" xlink:href="#DejaVuSans-47"/>
       <use x="97.314453" xlink:href="#DejaVuSans-49"/>
       <use x="160.9375" xlink:href="#DejaVuSans-53"/>
       <use x="224.560547" xlink:href="#DejaVuSans-47"/>
       <use x="258.251953" xlink:href="#DejaVuSans-50"/>
       <use x="321.875" xlink:href="#DejaVuSans-48"/>
      </g>
     </g>
    </g>
    <g id="xtick_86">
     <g id="line2d_86">
      <g>
       <use style="stroke:#000000;stroke-width:0.8;" x="332.30173" xlink:href="#m221e854433" y="256.32"/>
      </g>
     </g>
    </g>
    <g id="xtick_87">
     <g id="line2d_87">
      <g>
       <use style="stroke:#000000;stroke-width:0.8;" x="335.382333" xlink:href="#m221e854433" y="256.32"/>
      </g>
     </g>
    </g>
    <g id="xtick_88">
     <g id="line2d_88">
      <g>
       <use style="stroke:#000000;stroke-width:0.8;" x="338.462937" xlink:href="#m221e854433" y="256.32"/>
      </g>
     </g>
     <g id="text_30">
      <!-- 4/18/20 -->
      <g transform="translate(340.118562 286.45)rotate(-90)scale(0.06 -0.06)">
       <use xlink:href="#DejaVuSans-52"/>
       <use x="63.623047" xlink:href="#DejaVuSans-47"/>
       <use x="97.314453" xlink:href="#DejaVuSans-49"/>
       <use x="160.9375" xlink:href="#DejaVuSans-56"/>
       <use x="224.560547" xlink:href="#DejaVuSans-47"/>
       <use x="258.251953" xlink:href="#DejaVuSans-50"/>
       <use x="321.875" xlink:href="#DejaVuSans-48"/>
      </g>
     </g>
    </g>
    <g id="xtick_89">
     <g id="line2d_89">
      <g>
       <use style="stroke:#000000;stroke-width:0.8;" x="341.543541" xlink:href="#m221e854433" y="256.32"/>
      </g>
     </g>
    </g>
    <g id="xtick_90">
     <g id="line2d_90">
      <g>
       <use style="stroke:#000000;stroke-width:0.8;" x="344.624144" xlink:href="#m221e854433" y="256.32"/>
      </g>
     </g>
    </g>
    <g id="xtick_91">
     <g id="line2d_91">
      <g>
       <use style="stroke:#000000;stroke-width:0.8;" x="347.704748" xlink:href="#m221e854433" y="256.32"/>
      </g>
     </g>
     <g id="text_31">
      <!-- 4/21/20 -->
      <g transform="translate(349.360373 286.45)rotate(-90)scale(0.06 -0.06)">
       <use xlink:href="#DejaVuSans-52"/>
       <use x="63.623047" xlink:href="#DejaVuSans-47"/>
       <use x="97.314453" xlink:href="#DejaVuSans-50"/>
       <use x="160.9375" xlink:href="#DejaVuSans-49"/>
       <use x="224.560547" xlink:href="#DejaVuSans-47"/>
       <use x="258.251953" xlink:href="#DejaVuSans-50"/>
       <use x="321.875" xlink:href="#DejaVuSans-48"/>
      </g>
     </g>
    </g>
    <g id="xtick_92">
     <g id="line2d_92">
      <g>
       <use style="stroke:#000000;stroke-width:0.8;" x="350.785351" xlink:href="#m221e854433" y="256.32"/>
      </g>
     </g>
    </g>
    <g id="xtick_93">
     <g id="line2d_93">
      <g>
       <use style="stroke:#000000;stroke-width:0.8;" x="353.865955" xlink:href="#m221e854433" y="256.32"/>
      </g>
     </g>
    </g>
    <g id="xtick_94">
     <g id="line2d_94">
      <g>
       <use style="stroke:#000000;stroke-width:0.8;" x="356.946559" xlink:href="#m221e854433" y="256.32"/>
      </g>
     </g>
     <g id="text_32">
      <!-- 4/24/20 -->
      <g transform="translate(358.602184 286.45)rotate(-90)scale(0.06 -0.06)">
       <use xlink:href="#DejaVuSans-52"/>
       <use x="63.623047" xlink:href="#DejaVuSans-47"/>
       <use x="97.314453" xlink:href="#DejaVuSans-50"/>
       <use x="160.9375" xlink:href="#DejaVuSans-52"/>
       <use x="224.560547" xlink:href="#DejaVuSans-47"/>
       <use x="258.251953" xlink:href="#DejaVuSans-50"/>
       <use x="321.875" xlink:href="#DejaVuSans-48"/>
      </g>
     </g>
    </g>
    <g id="xtick_95">
     <g id="line2d_95">
      <g>
       <use style="stroke:#000000;stroke-width:0.8;" x="360.027162" xlink:href="#m221e854433" y="256.32"/>
      </g>
     </g>
    </g>
    <g id="xtick_96">
     <g id="line2d_96">
      <g>
       <use style="stroke:#000000;stroke-width:0.8;" x="363.107766" xlink:href="#m221e854433" y="256.32"/>
      </g>
     </g>
    </g>
    <g id="xtick_97">
     <g id="line2d_97">
      <g>
       <use style="stroke:#000000;stroke-width:0.8;" x="366.18837" xlink:href="#m221e854433" y="256.32"/>
      </g>
     </g>
     <g id="text_33">
      <!-- 4/27/20 -->
      <g transform="translate(367.843995 286.45)rotate(-90)scale(0.06 -0.06)">
       <use xlink:href="#DejaVuSans-52"/>
       <use x="63.623047" xlink:href="#DejaVuSans-47"/>
       <use x="97.314453" xlink:href="#DejaVuSans-50"/>
       <use x="160.9375" xlink:href="#DejaVuSans-55"/>
       <use x="224.560547" xlink:href="#DejaVuSans-47"/>
       <use x="258.251953" xlink:href="#DejaVuSans-50"/>
       <use x="321.875" xlink:href="#DejaVuSans-48"/>
      </g>
     </g>
    </g>
    <g id="xtick_98">
     <g id="line2d_98">
      <g>
       <use style="stroke:#000000;stroke-width:0.8;" x="369.268973" xlink:href="#m221e854433" y="256.32"/>
      </g>
     </g>
    </g>
    <g id="xtick_99">
     <g id="line2d_99">
      <g>
       <use style="stroke:#000000;stroke-width:0.8;" x="372.349577" xlink:href="#m221e854433" y="256.32"/>
      </g>
     </g>
    </g>
   </g>
   <g id="matplotlib.axis_2">
    <g id="ytick_1">
     <g id="line2d_100">
      <defs>
       <path d="M 0 0 
L -3.5 0 
" id="m36d96f36c4" style="stroke:#000000;stroke-width:0.8;"/>
      </defs>
      <g>
       <use style="stroke:#000000;stroke-width:0.8;" x="54" xlink:href="#m36d96f36c4" y="256.32"/>
      </g>
     </g>
     <g id="text_34">
      <!-- 0 -->
      <g transform="translate(40.6375 260.119219)scale(0.1 -0.1)">
       <use xlink:href="#DejaVuSans-48"/>
      </g>
     </g>
    </g>
    <g id="ytick_2">
     <g id="line2d_101">
      <g>
       <use style="stroke:#000000;stroke-width:0.8;" x="54" xlink:href="#m36d96f36c4" y="217.92"/>
      </g>
     </g>
     <g id="text_35">
      <!-- 2 -->
      <g transform="translate(40.6375 221.719219)scale(0.1 -0.1)">
       <use xlink:href="#DejaVuSans-50"/>
      </g>
     </g>
    </g>
    <g id="ytick_3">
     <g id="line2d_102">
      <g>
       <use style="stroke:#000000;stroke-width:0.8;" x="54" xlink:href="#m36d96f36c4" y="179.52"/>
      </g>
     </g>
     <g id="text_36">
      <!-- 4 -->
      <g transform="translate(40.6375 183.319219)scale(0.1 -0.1)">
       <use xlink:href="#DejaVuSans-52"/>
      </g>
     </g>
    </g>
    <g id="ytick_4">
     <g id="line2d_103">
      <g>
       <use style="stroke:#000000;stroke-width:0.8;" x="54" xlink:href="#m36d96f36c4" y="141.12"/>
      </g>
     </g>
     <g id="text_37">
      <!-- 6 -->
      <g transform="translate(40.6375 144.919219)scale(0.1 -0.1)">
       <use xlink:href="#DejaVuSans-54"/>
      </g>
     </g>
    </g>
    <g id="ytick_5">
     <g id="line2d_104">
      <g>
       <use style="stroke:#000000;stroke-width:0.8;" x="54" xlink:href="#m36d96f36c4" y="102.72"/>
      </g>
     </g>
     <g id="text_38">
      <!-- 8 -->
      <g transform="translate(40.6375 106.519219)scale(0.1 -0.1)">
       <use xlink:href="#DejaVuSans-56"/>
      </g>
     </g>
    </g>
    <g id="ytick_6">
     <g id="line2d_105">
      <g>
       <use style="stroke:#000000;stroke-width:0.8;" x="54" xlink:href="#m36d96f36c4" y="64.32"/>
      </g>
     </g>
     <g id="text_39">
      <!-- 10 -->
      <g transform="translate(34.275 68.119219)scale(0.1 -0.1)">
       <use xlink:href="#DejaVuSans-49"/>
       <use x="63.623047" xlink:href="#DejaVuSans-48"/>
      </g>
     </g>
    </g>
   </g>
   <g id="line2d_106">
    <path clip-path="url(#p5499e057f1)" d="M 70.450423 256.32 
L 73.531027 256.32 
L 76.61163 256.32 
L 79.692234 256.32 
L 82.772838 256.32 
L 85.853441 256.32 
L 88.934045 256.32 
L 92.014649 256.32 
L 95.095252 256.32 
L 98.175856 256.32 
L 101.256459 256.32 
L 104.337063 256.32 
L 107.417667 256.32 
L 110.49827 256.32 
L 113.578874 256.32 
L 116.659477 256.32 
L 119.740081 256.32 
L 122.820685 256.32 
L 125.901288 256.32 
L 128.981892 256.32 
L 132.062495 256.32 
L 135.143099 256.32 
L 138.223703 256.32 
L 141.304306 256.32 
L 144.38491 256.32 
L 147.465513 256.32 
L 150.546117 256.32 
L 153.626721 256.32 
L 156.707324 256.32 
L 159.787928 256.32 
L 162.868531 256.32 
L 165.949135 256.32 
L 169.029739 256.32 
L 172.110342 256.32 
L 175.190946 256.32 
L 178.27155 256.32 
L 181.352153 256.32 
L 184.432757 256.32 
L 187.51336 256.32 
L 190.593964 256.32 
L 193.674568 256.32 
L 196.755171 256.32 
L 199.835775 256.32 
L 202.916378 256.32 
L 205.996982 256.32 
L 209.077586 256.32 
L 212.158189 256.32 
L 215.238793 256.32 
L 218.319396 256.32 
L 221.4 256.32 
L 224.480604 253.577143 
L 227.561207 253.577143 
L 230.641811 253.577143 
L 233.722414 248.091429 
L 236.803018 248.091429 
L 239.883622 248.091429 
L 242.964225 245.348571 
L 246.044829 245.348571 
L 249.125432 245.348571 
L 252.206036 237.12 
L 255.28664 237.12 
L 258.367243 234.377143 
L 261.447847 231.634286 
L 264.52845 231.634286 
L 267.609054 234.377143 
L 270.689658 226.148571 
L 273.770261 228.891429 
L 276.850865 231.634286 
L 279.931469 228.891429 
L 283.012072 228.891429 
L 286.092676 231.634286 
L 289.173279 217.92 
L 292.253883 226.148571 
L 295.334487 226.148571 
L 298.41509 217.92 
L 301.495694 193.234286 
L 304.576297 195.977143 
L 307.656901 185.005714 
L 310.737505 187.748571 
L 313.818108 185.005714 
L 316.898712 185.005714 
L 319.979315 187.748571 
L 323.059919 201.462857 
L 326.140523 185.005714 
L 329.221126 190.491429 
L 332.30173 195.977143 
L 335.382333 195.977143 
L 338.462937 193.234286 
L 341.543541 201.462857 
L 344.624144 204.205714 
L 347.704748 212.434286 
L 350.785351 215.177143 
L 353.865955 206.948571 
L 356.946559 209.691429 
L 360.027162 198.72 
L 363.107766 193.234286 
" style="fill:none;stroke:#1f77b4;stroke-linecap:square;stroke-width:1.5;"/>
   </g>
   <g id="patch_102">
    <path d="M 54 256.32 
L 54 34.56 
" style="fill:none;stroke:#000000;stroke-linecap:square;stroke-linejoin:miter;stroke-width:0.8;"/>
   </g>
   <g id="patch_103">
    <path d="M 388.8 256.32 
L 388.8 34.56 
" style="fill:none;stroke:#000000;stroke-linecap:square;stroke-linejoin:miter;stroke-width:0.8;"/>
   </g>
   <g id="patch_104">
    <path d="M 54 256.32 
L 388.8 256.32 
" style="fill:none;stroke:#000000;stroke-linecap:square;stroke-linejoin:miter;stroke-width:0.8;"/>
   </g>
   <g id="patch_105">
    <path d="M 54 34.56 
L 388.8 34.56 
" style="fill:none;stroke:#000000;stroke-linecap:square;stroke-linejoin:miter;stroke-width:0.8;"/>
   </g>
   <g id="text_40">
    <!-- Deaths - - or -->
    <defs>
     <path d="M 19.671875 64.796875 
L 19.671875 8.109375 
L 31.59375 8.109375 
Q 46.6875 8.109375 53.6875 14.9375 
Q 60.6875 21.78125 60.6875 36.53125 
Q 60.6875 51.171875 53.6875 57.984375 
Q 46.6875 64.796875 31.59375 64.796875 
z
M 9.8125 72.90625 
L 30.078125 72.90625 
Q 51.265625 72.90625 61.171875 64.09375 
Q 71.09375 55.28125 71.09375 36.53125 
Q 71.09375 17.671875 61.125 8.828125 
Q 51.171875 0 30.078125 0 
L 9.8125 0 
z
" id="DejaVuSans-68"/>
     <path d="M 56.203125 29.59375 
L 56.203125 25.203125 
L 14.890625 25.203125 
Q 15.484375 15.921875 20.484375 11.0625 
Q 25.484375 6.203125 34.421875 6.203125 
Q 39.59375 6.203125 44.453125 7.46875 
Q 49.3125 8.734375 54.109375 11.28125 
L 54.109375 2.78125 
Q 49.265625 0.734375 44.1875 -0.34375 
Q 39.109375 -1.421875 33.890625 -1.421875 
Q 20.796875 -1.421875 13.15625 6.1875 
Q 5.515625 13.8125 5.515625 26.8125 
Q 5.515625 40.234375 12.765625 48.109375 
Q 20.015625 56 32.328125 56 
Q 43.359375 56 49.78125 48.890625 
Q 56.203125 41.796875 56.203125 29.59375 
z
M 47.21875 32.234375 
Q 47.125 39.59375 43.09375 43.984375 
Q 39.0625 48.390625 32.421875 48.390625 
Q 24.90625 48.390625 20.390625 44.140625 
Q 15.875 39.890625 15.1875 32.171875 
z
" id="DejaVuSans-101"/>
     <path d="M 34.28125 27.484375 
Q 23.390625 27.484375 19.1875 25 
Q 14.984375 22.515625 14.984375 16.5 
Q 14.984375 11.71875 18.140625 8.90625 
Q 21.296875 6.109375 26.703125 6.109375 
Q 34.1875 6.109375 38.703125 11.40625 
Q 43.21875 16.703125 43.21875 25.484375 
L 43.21875 27.484375 
z
M 52.203125 31.203125 
L 52.203125 0 
L 43.21875 0 
L 43.21875 8.296875 
Q 40.140625 3.328125 35.546875 0.953125 
Q 30.953125 -1.421875 24.3125 -1.421875 
Q 15.921875 -1.421875 10.953125 3.296875 
Q 6 8.015625 6 15.921875 
Q 6 25.140625 12.171875 29.828125 
Q 18.359375 34.515625 30.609375 34.515625 
L 43.21875 34.515625 
L 43.21875 35.40625 
Q 43.21875 41.609375 39.140625 45 
Q 35.0625 48.390625 27.6875 48.390625 
Q 23 48.390625 18.546875 47.265625 
Q 14.109375 46.140625 10.015625 43.890625 
L 10.015625 52.203125 
Q 14.9375 54.109375 19.578125 55.046875 
Q 24.21875 56 28.609375 56 
Q 40.484375 56 46.34375 49.84375 
Q 52.203125 43.703125 52.203125 31.203125 
z
" id="DejaVuSans-97"/>
     <path d="M 18.3125 70.21875 
L 18.3125 54.6875 
L 36.8125 54.6875 
L 36.8125 47.703125 
L 18.3125 47.703125 
L 18.3125 18.015625 
Q 18.3125 11.328125 20.140625 9.421875 
Q 21.96875 7.515625 27.59375 7.515625 
L 36.8125 7.515625 
L 36.8125 0 
L 27.59375 0 
Q 17.1875 0 13.234375 3.875 
Q 9.28125 7.765625 9.28125 18.015625 
L 9.28125 47.703125 
L 2.6875 47.703125 
L 2.6875 54.6875 
L 9.28125 54.6875 
L 9.28125 70.21875 
z
" id="DejaVuSans-116"/>
     <path d="M 54.890625 33.015625 
L 54.890625 0 
L 45.90625 0 
L 45.90625 32.71875 
Q 45.90625 40.484375 42.875 44.328125 
Q 39.84375 48.1875 33.796875 48.1875 
Q 26.515625 48.1875 22.3125 43.546875 
Q 18.109375 38.921875 18.109375 30.90625 
L 18.109375 0 
L 9.078125 0 
L 9.078125 75.984375 
L 18.109375 75.984375 
L 18.109375 46.1875 
Q 21.34375 51.125 25.703125 53.5625 
Q 30.078125 56 35.796875 56 
Q 45.21875 56 50.046875 50.171875 
Q 54.890625 44.34375 54.890625 33.015625 
z
" id="DejaVuSans-104"/>
     <path d="M 44.28125 53.078125 
L 44.28125 44.578125 
Q 40.484375 46.53125 36.375 47.5 
Q 32.28125 48.484375 27.875 48.484375 
Q 21.1875 48.484375 17.84375 46.4375 
Q 14.5 44.390625 14.5 40.28125 
Q 14.5 37.15625 16.890625 35.375 
Q 19.28125 33.59375 26.515625 31.984375 
L 29.59375 31.296875 
Q 39.15625 29.25 43.1875 25.515625 
Q 47.21875 21.78125 47.21875 15.09375 
Q 47.21875 7.46875 41.1875 3.015625 
Q 35.15625 -1.421875 24.609375 -1.421875 
Q 20.21875 -1.421875 15.453125 -0.5625 
Q 10.6875 0.296875 5.421875 2 
L 5.421875 11.28125 
Q 10.40625 8.6875 15.234375 7.390625 
Q 20.0625 6.109375 24.8125 6.109375 
Q 31.15625 6.109375 34.5625 8.28125 
Q 37.984375 10.453125 37.984375 14.40625 
Q 37.984375 18.0625 35.515625 20.015625 
Q 33.0625 21.96875 24.703125 23.78125 
L 21.578125 24.515625 
Q 13.234375 26.265625 9.515625 29.90625 
Q 5.8125 33.546875 5.8125 39.890625 
Q 5.8125 47.609375 11.28125 51.796875 
Q 16.75 56 26.8125 56 
Q 31.78125 56 36.171875 55.265625 
Q 40.578125 54.546875 44.28125 53.078125 
z
" id="DejaVuSans-115"/>
     <path id="DejaVuSans-32"/>
     <path d="M 4.890625 31.390625 
L 31.203125 31.390625 
L 31.203125 23.390625 
L 4.890625 23.390625 
z
" id="DejaVuSans-45"/>
     <path d="M 30.609375 48.390625 
Q 23.390625 48.390625 19.1875 42.75 
Q 14.984375 37.109375 14.984375 27.296875 
Q 14.984375 17.484375 19.15625 11.84375 
Q 23.34375 6.203125 30.609375 6.203125 
Q 37.796875 6.203125 41.984375 11.859375 
Q 46.1875 17.53125 46.1875 27.296875 
Q 46.1875 37.015625 41.984375 42.703125 
Q 37.796875 48.390625 30.609375 48.390625 
z
M 30.609375 56 
Q 42.328125 56 49.015625 48.375 
Q 55.71875 40.765625 55.71875 27.296875 
Q 55.71875 13.875 49.015625 6.21875 
Q 42.328125 -1.421875 30.609375 -1.421875 
Q 18.84375 -1.421875 12.171875 6.21875 
Q 5.515625 13.875 5.515625 27.296875 
Q 5.515625 40.765625 12.171875 48.375 
Q 18.84375 56 30.609375 56 
z
" id="DejaVuSans-111"/>
     <path d="M 41.109375 46.296875 
Q 39.59375 47.171875 37.8125 47.578125 
Q 36.03125 48 33.890625 48 
Q 26.265625 48 22.1875 43.046875 
Q 18.109375 38.09375 18.109375 28.8125 
L 18.109375 0 
L 9.078125 0 
L 9.078125 54.6875 
L 18.109375 54.6875 
L 18.109375 46.1875 
Q 20.953125 51.171875 25.484375 53.578125 
Q 30.03125 56 36.53125 56 
Q 37.453125 56 38.578125 55.875 
Q 39.703125 55.765625 41.0625 55.515625 
z
" id="DejaVuSans-114"/>
    </defs>
    <g transform="translate(185.85 28.56)scale(0.12 -0.12)">
     <use xlink:href="#DejaVuSans-68"/>
     <use x="77.001953" xlink:href="#DejaVuSans-101"/>
     <use x="138.525391" xlink:href="#DejaVuSans-97"/>
     <use x="199.804688" xlink:href="#DejaVuSans-116"/>
     <use x="239.013672" xlink:href="#DejaVuSans-104"/>
     <use x="302.392578" xlink:href="#DejaVuSans-115"/>
     <use x="354.492188" xlink:href="#DejaVuSans-32"/>
     <use x="386.279297" xlink:href="#DejaVuSans-45"/>
     <use x="422.363281" xlink:href="#DejaVuSans-45"/>
     <use x="458.447266" xlink:href="#DejaVuSans-32"/>
     <use x="490.234375" xlink:href="#DejaVuSans-111"/>
     <use x="551.416016" xlink:href="#DejaVuSans-114"/>
    </g>
   </g>
   <g id="legend_1">
    <g id="patch_106">
     <path d="M 61 71.91625 
L 177.784375 71.91625 
Q 179.784375 71.91625 179.784375 69.91625 
L 179.784375 41.56 
Q 179.784375 39.56 177.784375 39.56 
L 61 39.56 
Q 59 39.56 59 41.56 
L 59 69.91625 
Q 59 71.91625 61 71.91625 
z
" style="fill:#ffffff;opacity:0.8;stroke:#cccccc;stroke-linejoin:miter;"/>
    </g>
    <g id="patch_107">
     <path d="M 63 51.158437 
L 83 51.158437 
L 83 44.158437 
L 63 44.158437 
z
" style="fill:#ffa500;"/>
    </g>
    <g id="text_41">
     <!-- (est.) daily count -->
     <defs>
      <path d="M 31 75.875 
Q 24.46875 64.65625 21.28125 53.65625 
Q 18.109375 42.671875 18.109375 31.390625 
Q 18.109375 20.125 21.3125 9.0625 
Q 24.515625 -2 31 -13.1875 
L 23.1875 -13.1875 
Q 15.875 -1.703125 12.234375 9.375 
Q 8.59375 20.453125 8.59375 31.390625 
Q 8.59375 42.28125 12.203125 53.3125 
Q 15.828125 64.359375 23.1875 75.875 
z
" id="DejaVuSans-40"/>
      <path d="M 10.6875 12.40625 
L 21 12.40625 
L 21 0 
L 10.6875 0 
z
" id="DejaVuSans-46"/>
      <path d="M 8.015625 75.875 
L 15.828125 75.875 
Q 23.140625 64.359375 26.78125 53.3125 
Q 30.421875 42.28125 30.421875 31.390625 
Q 30.421875 20.453125 26.78125 9.375 
Q 23.140625 -1.703125 15.828125 -13.1875 
L 8.015625 -13.1875 
Q 14.5 -2 17.703125 9.0625 
Q 20.90625 20.125 20.90625 31.390625 
Q 20.90625 42.671875 17.703125 53.65625 
Q 14.5 64.65625 8.015625 75.875 
z
" id="DejaVuSans-41"/>
      <path d="M 45.40625 46.390625 
L 45.40625 75.984375 
L 54.390625 75.984375 
L 54.390625 0 
L 45.40625 0 
L 45.40625 8.203125 
Q 42.578125 3.328125 38.25 0.953125 
Q 33.9375 -1.421875 27.875 -1.421875 
Q 17.96875 -1.421875 11.734375 6.484375 
Q 5.515625 14.40625 5.515625 27.296875 
Q 5.515625 40.1875 11.734375 48.09375 
Q 17.96875 56 27.875 56 
Q 33.9375 56 38.25 53.625 
Q 42.578125 51.265625 45.40625 46.390625 
z
M 14.796875 27.296875 
Q 14.796875 17.390625 18.875 11.75 
Q 22.953125 6.109375 30.078125 6.109375 
Q 37.203125 6.109375 41.296875 11.75 
Q 45.40625 17.390625 45.40625 27.296875 
Q 45.40625 37.203125 41.296875 42.84375 
Q 37.203125 48.484375 30.078125 48.484375 
Q 22.953125 48.484375 18.875 42.84375 
Q 14.796875 37.203125 14.796875 27.296875 
z
" id="DejaVuSans-100"/>
      <path d="M 9.421875 54.6875 
L 18.40625 54.6875 
L 18.40625 0 
L 9.421875 0 
z
M 9.421875 75.984375 
L 18.40625 75.984375 
L 18.40625 64.59375 
L 9.421875 64.59375 
z
" id="DejaVuSans-105"/>
      <path d="M 9.421875 75.984375 
L 18.40625 75.984375 
L 18.40625 0 
L 9.421875 0 
z
" id="DejaVuSans-108"/>
      <path d="M 32.171875 -5.078125 
Q 28.375 -14.84375 24.75 -17.8125 
Q 21.140625 -20.796875 15.09375 -20.796875 
L 7.90625 -20.796875 
L 7.90625 -13.28125 
L 13.1875 -13.28125 
Q 16.890625 -13.28125 18.9375 -11.515625 
Q 21 -9.765625 23.484375 -3.21875 
L 25.09375 0.875 
L 2.984375 54.6875 
L 12.5 54.6875 
L 29.59375 11.921875 
L 46.6875 54.6875 
L 56.203125 54.6875 
z
" id="DejaVuSans-121"/>
      <path d="M 48.78125 52.59375 
L 48.78125 44.1875 
Q 44.96875 46.296875 41.140625 47.34375 
Q 37.3125 48.390625 33.40625 48.390625 
Q 24.65625 48.390625 19.8125 42.84375 
Q 14.984375 37.3125 14.984375 27.296875 
Q 14.984375 17.28125 19.8125 11.734375 
Q 24.65625 6.203125 33.40625 6.203125 
Q 37.3125 6.203125 41.140625 7.25 
Q 44.96875 8.296875 48.78125 10.40625 
L 48.78125 2.09375 
Q 45.015625 0.34375 40.984375 -0.53125 
Q 36.96875 -1.421875 32.421875 -1.421875 
Q 20.0625 -1.421875 12.78125 6.34375 
Q 5.515625 14.109375 5.515625 27.296875 
Q 5.515625 40.671875 12.859375 48.328125 
Q 20.21875 56 33.015625 56 
Q 37.15625 56 41.109375 55.140625 
Q 45.0625 54.296875 48.78125 52.59375 
z
" id="DejaVuSans-99"/>
      <path d="M 8.5 21.578125 
L 8.5 54.6875 
L 17.484375 54.6875 
L 17.484375 21.921875 
Q 17.484375 14.15625 20.5 10.265625 
Q 23.53125 6.390625 29.59375 6.390625 
Q 36.859375 6.390625 41.078125 11.03125 
Q 45.3125 15.671875 45.3125 23.6875 
L 45.3125 54.6875 
L 54.296875 54.6875 
L 54.296875 0 
L 45.3125 0 
L 45.3125 8.40625 
Q 42.046875 3.421875 37.71875 1 
Q 33.40625 -1.421875 27.6875 -1.421875 
Q 18.265625 -1.421875 13.375 4.4375 
Q 8.5 10.296875 8.5 21.578125 
z
M 31.109375 56 
z
" id="DejaVuSans-117"/>
      <path d="M 54.890625 33.015625 
L 54.890625 0 
L 45.90625 0 
L 45.90625 32.71875 
Q 45.90625 40.484375 42.875 44.328125 
Q 39.84375 48.1875 33.796875 48.1875 
Q 26.515625 48.1875 22.3125 43.546875 
Q 18.109375 38.921875 18.109375 30.90625 
L 18.109375 0 
L 9.078125 0 
L 9.078125 54.6875 
L 18.109375 54.6875 
L 18.109375 46.1875 
Q 21.34375 51.125 25.703125 53.5625 
Q 30.078125 56 35.796875 56 
Q 45.21875 56 50.046875 50.171875 
Q 54.890625 44.34375 54.890625 33.015625 
z
" id="DejaVuSans-110"/>
     </defs>
     <g transform="translate(91 51.158437)scale(0.1 -0.1)">
      <use xlink:href="#DejaVuSans-40"/>
      <use x="39.013672" xlink:href="#DejaVuSans-101"/>
      <use x="100.537109" xlink:href="#DejaVuSans-115"/>
      <use x="152.636719" xlink:href="#DejaVuSans-116"/>
      <use x="191.845703" xlink:href="#DejaVuSans-46"/>
      <use x="223.632812" xlink:href="#DejaVuSans-41"/>
      <use x="262.646484" xlink:href="#DejaVuSans-32"/>
      <use x="294.433594" xlink:href="#DejaVuSans-100"/>
      <use x="357.910156" xlink:href="#DejaVuSans-97"/>
      <use x="419.189453" xlink:href="#DejaVuSans-105"/>
      <use x="446.972656" xlink:href="#DejaVuSans-108"/>
      <use x="474.755859" xlink:href="#DejaVuSans-121"/>
      <use x="533.935547" xlink:href="#DejaVuSans-32"/>
      <use x="565.722656" xlink:href="#DejaVuSans-99"/>
      <use x="620.703125" xlink:href="#DejaVuSans-111"/>
      <use x="681.884766" xlink:href="#DejaVuSans-117"/>
      <use x="745.263672" xlink:href="#DejaVuSans-110"/>
      <use x="808.642578" xlink:href="#DejaVuSans-116"/>
     </g>
    </g>
    <g id="line2d_107">
     <path d="M 63 62.336562 
L 83 62.336562 
" style="fill:none;stroke:#1f77b4;stroke-linecap:square;stroke-width:1.5;"/>
    </g>
    <g id="line2d_108"/>
    <g id="text_42">
     <!-- 7 day average -->
     <defs>
      <path d="M 2.984375 54.6875 
L 12.5 54.6875 
L 29.59375 8.796875 
L 46.6875 54.6875 
L 56.203125 54.6875 
L 35.6875 0 
L 23.484375 0 
z
" id="DejaVuSans-118"/>
      <path d="M 45.40625 27.984375 
Q 45.40625 37.75 41.375 43.109375 
Q 37.359375 48.484375 30.078125 48.484375 
Q 22.859375 48.484375 18.828125 43.109375 
Q 14.796875 37.75 14.796875 27.984375 
Q 14.796875 18.265625 18.828125 12.890625 
Q 22.859375 7.515625 30.078125 7.515625 
Q 37.359375 7.515625 41.375 12.890625 
Q 45.40625 18.265625 45.40625 27.984375 
z
M 54.390625 6.78125 
Q 54.390625 -7.171875 48.1875 -13.984375 
Q 42 -20.796875 29.203125 -20.796875 
Q 24.46875 -20.796875 20.265625 -20.09375 
Q 16.0625 -19.390625 12.109375 -17.921875 
L 12.109375 -9.1875 
Q 16.0625 -11.328125 19.921875 -12.34375 
Q 23.78125 -13.375 27.78125 -13.375 
Q 36.625 -13.375 41.015625 -8.765625 
Q 45.40625 -4.15625 45.40625 5.171875 
L 45.40625 9.625 
Q 42.625 4.78125 38.28125 2.390625 
Q 33.9375 0 27.875 0 
Q 17.828125 0 11.671875 7.65625 
Q 5.515625 15.328125 5.515625 27.984375 
Q 5.515625 40.671875 11.671875 48.328125 
Q 17.828125 56 27.875 56 
Q 33.9375 56 38.28125 53.609375 
Q 42.625 51.21875 45.40625 46.390625 
L 45.40625 54.6875 
L 54.390625 54.6875 
z
" id="DejaVuSans-103"/>
     </defs>
     <g transform="translate(91 65.836562)scale(0.1 -0.1)">
      <use xlink:href="#DejaVuSans-55"/>
      <use x="63.623047" xlink:href="#DejaVuSans-32"/>
      <use x="95.410156" xlink:href="#DejaVuSans-100"/>
      <use x="158.886719" xlink:href="#DejaVuSans-97"/>
      <use x="220.166016" xlink:href="#DejaVuSans-121"/>
      <use x="279.345703" xlink:href="#DejaVuSans-32"/>
      <use x="311.132812" xlink:href="#DejaVuSans-97"/>
      <use x="372.412109" xlink:href="#DejaVuSans-118"/>
      <use x="431.591797" xlink:href="#DejaVuSans-101"/>
      <use x="493.115234" xlink:href="#DejaVuSans-114"/>
      <use x="534.228516" xlink:href="#DejaVuSans-97"/>
      <use x="595.507812" xlink:href="#DejaVuSans-103"/>
      <use x="658.984375" xlink:href="#DejaVuSans-101"/>
     </g>
    </g>
   </g>
  </g>
 </g>
 <defs>
  <clipPath id="p5499e057f1">
   <rect height="221.76" width="334.8" x="54" y="34.56"/>
  </clipPath>
 </defs>
</svg>
